<svg width="368" height="298" viewBox="0 0 368 298" fill="none" xmlns="http://www.w3.org/2000/svg">
<path d="M98.7873 239.543C121.961 262.716 153.958 277.035 189.314 277.035V285.827C189.314 287.585 190.759 289.061 192.548 288.998C267.312 287.302 327.632 226.983 329.328 152.219C329.359 150.46 327.915 148.984 326.157 148.984H317.364C317.364 78.2709 260.028 20.9341 189.314 20.9341V12.1734C189.314 10.3836 187.87 8.93917 186.08 9.00197C149.875 9.81838 117.031 24.4195 92.6014 47.7185C91.314 48.9431 91.314 50.9841 92.57 52.2401L98.7559 58.4574C75.5825 81.6308 61.264 113.628 61.264 148.984H52.5347C50.7763 148.984 49.3005 150.429 49.3633 152.219C50.1797 188.454 64.7808 221.299 88.0798 245.697C89.3044 246.985 91.3454 246.985 92.6014 245.729L98.7873 239.543Z" fill="#6EDBFF" stroke="white" stroke-width="2" stroke-miterlimit="10" stroke-linecap="round" stroke-linejoin="round"/>
<path d="M362.958 51.1413L351.56 13.147L311.21 51.1413H320.568L290.078 106.783C303.486 106.783 316.894 106.783 330.302 106.783C330.553 106.783 331.087 106.783 331.683 106.469C332.531 105.966 332.782 105.15 332.845 104.961L353.978 51.1413H362.958Z" fill="#6EDBFF"/>
<path d="M328.7 34.656L354.982 24.5451L351.56 13.1782L328.7 34.656Z" fill="white"/>
<path d="M330.301 106.782C329.422 106.72 328.574 106.217 328.198 105.244L318.495 80.626C318.055 79.527 316.517 79.4956 316.014 80.5632L303.831 106.814C312.655 106.782 321.478 106.782 330.301 106.782Z" fill="black" stroke="black" stroke-width="1.2" stroke-miterlimit="10" stroke-linecap="round" stroke-linejoin="round"/>
<path d="M362.958 51.1413L351.56 13.147L311.21 51.1413H320.568L290.078 106.783C303.486 106.783 316.894 106.783 330.302 106.783C330.553 106.783 331.087 106.783 331.683 106.469C332.531 105.966 332.782 105.15 332.845 104.961L353.978 51.1413H362.958V51.1413Z" stroke="black" stroke-width="1.2" stroke-miterlimit="10" stroke-linecap="round" stroke-linejoin="round"/>
<path d="M284.08 148.074C284.834 147.697 285.18 147.069 285.274 146.849L316.046 80.5319C316.234 80.1237 316.58 79.8725 316.988 79.7783H278.114C276.764 79.7783 275.54 80.4377 274.755 81.5053L227.466 148.356H282.856C283.107 148.356 283.547 148.325 284.08 148.074Z" fill="#6EDBFF"/>
<path d="M274.755 81.5367L269.888 88.4447H312.404L316.046 80.5633C316.234 80.1551 316.58 79.9039 316.988 79.8097H278.115C276.764 79.7783 275.508 80.4377 274.755 81.5367Z" fill="white"/>
<path d="M284.08 148.074C284.834 147.697 285.179 147.069 285.274 146.849L316.046 80.5319C316.234 80.1237 316.58 79.8725 316.988 79.7783H278.114C276.764 79.7783 275.54 80.4377 274.755 81.5053L227.466 148.356H282.856C283.107 148.356 283.547 148.325 284.08 148.074Z" stroke="black" stroke-width="1.2" stroke-miterlimit="10" stroke-linecap="round" stroke-linejoin="round"/>
<path d="M282.856 148.356C281.914 148.325 281.004 147.791 280.564 146.755L272.368 126.722C271.521 124.681 268.82 124.21 267.344 125.874C262.791 131.024 256.637 138.811 249.446 148.356H282.856Z" fill="black" stroke="black" stroke-width="1.2" stroke-miterlimit="10" stroke-linecap="round" stroke-linejoin="round"/>
<path d="M161.18 273.078C191.858 228.427 246.557 149.33 267.313 125.874C267.878 125.246 268.6 124.932 269.323 124.869H182.909L74.0443 255.808C65.5035 266.076 53.7598 273.141 40.6659 275.873L27.6348 278.573L28.1686 285.795L140.205 285.638C148.432 284.728 156.187 280.363 161.18 273.078Z" fill="#6EDBFF"/>
<path d="M171.009 139.188H256.449C260.657 133.787 264.362 129.265 267.345 125.874C267.91 125.246 268.632 124.932 269.354 124.869H182.909L171.009 139.188Z" fill="white"/>
<path d="M137.065 285.795H28.137C14.6977 285.795 7.72686 279.484 6.03125 277.537C42.3613 277.537 79.4137 278.605 115.744 278.605C119.009 279.986 126.922 285.795 137.065 285.795Z" fill="black" stroke="black" stroke-width="1.2" stroke-miterlimit="10" stroke-linecap="round" stroke-linejoin="round"/>
<path d="M161.18 273.078C191.858 228.427 246.557 149.33 267.313 125.874C267.878 125.246 268.6 124.932 269.323 124.869H182.909L74.0443 255.808C65.5035 266.076 53.7598 273.141 40.6659 275.873L27.6348 278.573L28.1686 285.795L140.205 285.638C148.432 284.728 156.187 280.363 161.18 273.078Z" stroke="black" stroke-width="1.2" stroke-miterlimit="10" stroke-linecap="round" stroke-linejoin="round"/>
<path d="M226.963 49.3197C226.963 45.8029 222.944 37.89 219.961 33.8394L217.072 10.666H163.943L160.677 25.4241C158.887 24.8589 157.035 24.5763 155.151 24.5763C153.267 24.5763 151.446 24.8589 149.624 25.4241L146.422 10.666L132.291 21.6247L135.557 36.3828C132.543 40.4335 129.905 45.3633 127.77 51.0153L119.888 44.8923L114.048 71.3313L121.929 77.4544C121.647 80.8142 121.49 84.2682 121.49 87.785C121.49 91.3019 121.647 94.7559 121.929 98.1157L114.048 104.239L119.888 130.678L127.77 124.555C129.936 130.175 132.574 135.137 135.557 139.187L132.291 153.945L146.422 164.904L149.687 150.146C151.477 150.711 153.33 150.994 155.214 150.994C157.098 150.994 158.919 150.711 160.74 150.146L164.006 164.904L178.104 153.945L219.992 156.238L233.4 107.128C233.683 103.768 226.963 52.8366 226.963 49.3197Z" fill="#6EDBFF" stroke="black" stroke-width="1.2" stroke-miterlimit="10" stroke-linecap="round" stroke-linejoin="round"/>
<path d="M225.299 83.8284L197.572 113.313C197.572 113.313 181.621 89.0095 182.312 88.4443C183.003 87.8791 202.251 56.416 202.251 56.416L224.011 58.8024L225.299 83.8284Z" fill="black"/>
<path d="M243.574 130.678H204.543L229.255 104.239H249.414L243.574 130.678Z" fill="black" stroke="black" stroke-width="1.2" stroke-miterlimit="10" stroke-linecap="round" stroke-linejoin="round"/>
<path d="M243.573 44.8608H190.476L236.037 71.3313H249.414L243.573 44.8608Z" fill="black" stroke="black" stroke-width="1.2" stroke-miterlimit="10" stroke-linecap="round" stroke-linejoin="round"/>
<path d="M217.072 164.904H163.942L196.347 141.637L231.17 153.946L217.072 164.904Z" fill="black" stroke="black" stroke-width="1.2" stroke-miterlimit="10" stroke-linecap="round" stroke-linejoin="round"/>
<path d="M242.004 87.785C242.004 84.2682 241.847 80.8142 241.564 77.4544L249.414 71.3313L243.574 44.8923L235.692 51.0153C233.525 45.3947 230.888 40.4335 227.905 36.3828L231.17 21.6247L217.072 10.666L213.806 25.4241C212.016 24.8589 210.164 24.5763 208.28 24.5763C206.396 24.5763 204.574 24.8589 202.753 25.4241L199.488 10.666L185.389 21.6247L188.655 36.3828C185.64 40.4335 183.002 45.3633 180.867 51.0153L172.986 44.8923L167.177 71.3313L175.058 77.4544C174.776 80.8142 174.619 84.2682 174.619 87.785C174.619 91.3019 174.776 94.7559 175.058 98.1157L167.177 104.239L173.017 130.678L180.899 124.555C183.065 130.175 185.703 135.137 188.686 139.187L185.42 153.945L199.519 164.904L202.785 150.146C204.574 150.711 206.427 150.994 208.311 150.994C210.195 150.994 212.016 150.711 213.838 150.146L217.103 164.904L231.202 153.945L227.936 139.187C230.951 135.137 233.588 130.207 235.724 124.555L243.605 130.678L249.445 104.239L241.564 98.1157C241.847 94.7559 242.004 91.3019 242.004 87.785ZM208.311 117.238C199.645 117.238 192.611 104.05 192.611 87.785C192.611 71.5197 199.645 58.3316 208.311 58.3316C216.978 58.3316 224.011 71.5197 224.011 87.785C224.011 104.05 216.978 117.238 208.311 117.238Z" fill="white" stroke="black" stroke-width="1.2" stroke-miterlimit="10" stroke-linecap="round" stroke-linejoin="round"/>
<path d="M119.888 44.8608H173.018L167.177 71.3313H114.048L119.888 44.8608Z" fill="#6EDBFF" stroke="black" stroke-width="1.2" stroke-miterlimit="10" stroke-linecap="round" stroke-linejoin="round"/>
<path d="M132.291 21.625H185.42L188.686 36.3831H135.557L132.291 21.625Z" fill="#6EDBFF" stroke="black" stroke-width="1.2" stroke-miterlimit="10" stroke-linecap="round" stroke-linejoin="round"/>
<path d="M146.421 10.666H199.519L185.42 21.6247H132.291L146.421 10.666Z" fill="black" stroke="black" stroke-width="1.2" stroke-miterlimit="10" stroke-linecap="round" stroke-linejoin="round"/>
<path d="M121.929 77.4546H175.027L167.177 71.3315H114.048L121.929 77.4546Z" fill="black" stroke="black" stroke-width="1.2" stroke-miterlimit="10" stroke-linecap="round" stroke-linejoin="round"/>
<path d="M114.048 104.239H167.177L173.018 130.678H119.888L114.048 104.239Z" fill="#6EDBFF" stroke="black" stroke-width="1.2" stroke-miterlimit="10" stroke-linecap="round" stroke-linejoin="round"/>
<path d="M121.929 98.1157H175.027L167.177 104.239H114.048L121.929 98.1157Z" fill="white" stroke="black" stroke-width="1.2" stroke-miterlimit="10" stroke-linecap="round" stroke-linejoin="round"/>
<path d="M132.291 153.946H185.42L188.686 139.188H135.557L132.291 153.946Z" fill="white" stroke="black" stroke-width="1.2" stroke-miterlimit="10" stroke-linecap="round" stroke-linejoin="round"/>
<path d="M146.421 164.904H199.519L185.42 153.945H132.291L146.421 164.904Z" fill="#6EDBFF" stroke="black" stroke-width="1.2" stroke-miterlimit="10" stroke-linecap="round" stroke-linejoin="round"/>
<path d="M135.557 36.3828C134.772 37.4504 133.987 38.5808 133.202 39.8682C132.103 41.6267 131.192 43.3223 130.407 44.8923C144.6 44.8923 158.793 44.8923 172.986 44.8923L180.867 51.0153C181.809 48.5033 183.034 45.6459 184.698 42.6315C186.017 40.2764 187.367 38.1726 188.655 36.3828C170.976 36.3828 153.267 36.3828 135.557 36.3828Z" fill="black" stroke="black" stroke-width="1.2" stroke-miterlimit="10" stroke-linecap="round" stroke-linejoin="round"/>
<path d="M135.557 139.187H188.686L180.899 124.555L173.017 130.678H130.438C131.098 132.059 131.883 133.535 132.825 135.042C133.736 136.581 134.646 137.963 135.557 139.187Z" fill="black" stroke="black" stroke-width="1.2" stroke-miterlimit="10" stroke-linecap="round" stroke-linejoin="round"/>
<path d="M204.607 173.947L150.19 251.443" stroke="white" stroke-width="1.2" stroke-miterlimit="10" stroke-linecap="round" stroke-linejoin="round"/>
<path d="M173.176 202.71L168.937 208.739" stroke="white" stroke-width="1.2" stroke-miterlimit="10" stroke-linecap="round" stroke-linejoin="round"/>
<path d="M193.366 173.947L181.214 191.217" stroke="white" stroke-width="1.2" stroke-miterlimit="10" stroke-linecap="round" stroke-linejoin="round"/>
<path d="M144.13 33.0548C144.287 32.0814 144.382 30.9196 143.942 30.7312C142.906 30.2602 139.703 35.3156 135.747 40.9677C132.921 44.9869 128.179 50.6389 126.044 52.68L140.771 54.4384C142.843 51.581 144.884 48.7235 146.957 45.8975C150.693 42.6319 153.613 40.3397 153.017 39.1779C152.766 38.7068 150.787 39.7431 147.899 41.0305C147.899 41.0305 153.645 31.9872 151.981 31.0766C151.258 30.6684 149.563 32.7408 146.234 38.33" fill="#6EDBFF"/>
<path d="M141.43 37.2624C144.79 31.6417 146.517 29.5379 147.27 29.8833C147.521 30.0089 148.024 30.3543 147.867 31.8616" fill="#6EDBFF"/>
<path d="M144.256 37.3564C147.584 31.83 149.091 30.0716 149.845 30.3856C150.096 30.5112 150.567 31.0764 150.379 32.1754L150.034 34.3734L147.364 38.3926" fill="#6EDBFF"/>
<path d="M147.867 31.8613L147.49 39.68L141.43 39.1776L144.507 33.8395L147.867 31.8613Z" fill="#6EDBFF"/>
<path d="M126.044 52.68C128.179 50.6389 132.921 44.9869 135.747 40.9677C139.703 35.3156 142.906 30.2602 143.942 30.7312C144.382 30.9196 144.287 32.0814 144.13 33.0548" stroke="black" stroke-width="1.2" stroke-miterlimit="10" stroke-linecap="round" stroke-linejoin="round"/>
<path d="M141.43 37.2624C144.79 31.6417 146.517 29.5379 147.27 29.8833C147.521 30.0089 148.024 30.3543 147.867 31.8616" stroke="black" stroke-width="1.2" stroke-miterlimit="10" stroke-linecap="round" stroke-linejoin="round"/>
<path d="M144.256 37.3564C147.584 31.83 149.091 30.0716 149.845 30.3856C150.096 30.5112 150.567 31.0764 150.379 32.1754" stroke="black" stroke-width="1.2" stroke-miterlimit="10" stroke-linecap="round" stroke-linejoin="round"/>
<path d="M146.234 38.3614C149.594 32.7722 151.29 30.7312 151.98 31.108C153.645 32.0186 147.898 41.0619 147.898 41.0619C150.819 39.7744 152.797 38.7068 153.017 39.2092C153.582 40.371 150.693 42.6633 146.956 45.9289C144.884 48.7863 142.843 51.6437 140.771 54.4698" stroke="black" stroke-width="1.2" stroke-miterlimit="10" stroke-linecap="round" stroke-linejoin="round"/>
<path d="M114.049 221.331C99.165 231.379 93.8584 236.403 95.1458 236.811C101.708 238.883 110.155 233.106 123.814 222.524" fill="black"/>
<path d="M114.049 221.331C99.165 231.379 93.8584 236.403 95.1458 236.811C101.708 238.883 110.155 233.106 123.814 222.524" stroke="black" stroke-width="1.2" stroke-miterlimit="10" stroke-linecap="round" stroke-linejoin="round"/>
<path d="M83.3701 255.023C82.8677 257.378 76.0852 257.88 68.2666 256.153C60.4479 254.426 54.5132 251.129 55.047 248.806C55.5494 246.451 62.3319 245.948 70.1506 247.675C77.9692 249.402 83.9039 252.699 83.3701 255.023Z" fill="black" stroke="black" stroke-width="1.2" stroke-miterlimit="10" stroke-linecap="round" stroke-linejoin="round"/>
<path d="M60.6055 255.683L54.2941 258.257C53.8544 259.262 56.7747 261.649 59.9461 263.815C63.9653 266.516 68.6754 267.96 73.511 267.96H82.9625L60.6055 255.683Z" fill="black" stroke="black" stroke-width="1.2" stroke-miterlimit="10" stroke-linecap="round" stroke-linejoin="round"/>
<path d="M57.8422 243.405C57.0258 245.572 56.2408 248.053 55.5814 250.847C54.9533 253.548 54.5451 256.028 54.2939 258.258C58.9412 257.316 70.0569 262.685 79.6968 267.269C83.0566 268.871 87.1072 267.615 89.682 264.914C91.095 263.407 92.5395 261.931 93.9525 260.424C94.8003 259.545 94.9887 258.258 94.4549 257.159C94.0153 256.279 93.3559 255.337 92.3511 254.521C89.0854 251.883 83.3706 253.956 82.9938 254.081C82.3972 252.825 81.361 250.313 80.7644 249.057L57.8422 243.405Z" fill="white" stroke="black" stroke-width="1.2" stroke-miterlimit="10" stroke-linecap="round" stroke-linejoin="round"/>
<path d="M54.8281 254.427C58.1566 253.359 75.3325 261.209 80.4193 264.475C80.8903 264.663 82.1149 265.071 83.6222 264.789C84.6898 264.6 85.6632 264.098 86.4796 263.344C88.9602 261.021 91.4722 258.697 93.9528 256.405" stroke="black" stroke-width="1.2" stroke-miterlimit="10" stroke-linecap="round" stroke-linejoin="round"/>
<path d="M85.6318 259.608C85.5376 258.886 85.2864 257.818 84.7526 256.656C84.1874 255.494 83.4965 254.647 82.9941 254.113" stroke="black" stroke-width="1.2" stroke-miterlimit="10" stroke-linecap="round" stroke-linejoin="round"/>
<path d="M114.049 215.176V221.299C114.049 223.34 115.713 225.005 117.754 225.005H119.701C120.863 225.005 121.962 224.628 122.872 223.906C126.326 221.205 130.032 217.908 133.768 213.952C136.217 211.346 138.353 208.802 140.237 206.353C140.582 205.913 140.77 205.348 140.708 204.783C140.048 199.131 133.266 199.759 129.78 202.679C124.537 206.887 119.293 211.031 114.049 215.176Z" fill="white" stroke="black" stroke-width="1.2" stroke-miterlimit="10" stroke-linecap="round" stroke-linejoin="round"/>
<path d="M140.331 203.307C137.159 206.73 133.705 210.278 130 213.858C127.833 215.93 125.698 217.908 123.563 219.824C121.585 221.582 119.01 222.555 116.372 222.555H114.708" stroke="black" stroke-width="1.2" stroke-miterlimit="10" stroke-linecap="round" stroke-linejoin="round"/>
<path d="M105.728 133.41L128.304 155.013C130.879 157.839 132.23 161.576 132.073 165.407L130.502 205.348C127.959 210.403 113.075 220.891 110.846 215.773C110.72 208.048 110.626 177.056 112.542 169.394C106.324 166.066 100.107 162.769 93.8584 159.44L105.728 133.41Z" fill="black" stroke="black" stroke-width="1.2" stroke-miterlimit="10" stroke-linecap="round" stroke-linejoin="round"/>
<path d="M94.4542 106.783L80.7637 107.662L75.5826 109.954C70.5586 120.976 76.2734 167.825 77.3097 181.327C73.9812 188.518 70.747 196.273 67.6698 204.657C62.2061 219.541 57.7473 236.215 55.0469 248.806C55.5493 246.451 62.4259 245.54 70.1504 247.676C77.1213 249.622 83.4955 251.758 82.9617 254.081C89.6186 233.891 96.558 215.114 103.215 195.017C104.439 191.312 105.256 187.45 105.664 183.588L109.683 131.149L94.4542 106.783Z" fill="black" stroke="black" stroke-width="1.2" stroke-miterlimit="10" stroke-linecap="round" stroke-linejoin="round"/>
<path d="M78.9748 177.025C78.0014 178.532 77.0279 180.134 76.0545 181.892C75.1753 183.462 74.3589 185.001 73.6367 186.476" stroke="#6EDBFF" stroke-width="1.2" stroke-miterlimit="10" stroke-linecap="round" stroke-linejoin="round"/>
<path d="M156.408 61.1581C158.983 58.9287 161.589 56.6679 164.164 54.4385C175.499 43.1344 180.366 30.9511 182.282 25.3618C177.603 26.1154 172.893 26.869 168.183 27.6226C164.415 33.4003 160.301 38.1417 152.797 42.9774C148.181 45.9604 143.534 47.185 138.729 47.8444C144.005 49.383 144.068 62.1315 143.754 68.8512C147.836 66.9044 152.106 64.3923 156.408 61.1581Z" fill="#6EDBFF"/>
<path d="M162.656 49.3513C155.936 55.2859 149.342 59.4936 143.816 62.4138C143.879 64.7688 143.816 67.0296 143.722 68.8194C147.772 66.8726 152.074 64.3606 156.376 61.1264C158.951 58.897 161.557 56.6361 164.132 54.4067C175.467 43.1026 180.334 30.9193 182.25 25.3301C178.513 31.8613 172.327 40.779 162.656 49.3513Z" fill="white"/>
<path d="M178.105 30.6683C178.294 30.4171 182.281 25.3616 182.281 25.3616C185.327 18.3908 186.803 14.7169 186.018 14.4029C185.233 14.1517 183.977 15.9416 182.627 19.4584C184.856 13.6807 184.919 11.2943 184.103 11.2001C183.506 11.0745 182.847 12.3305 180.021 18.171C181.905 11.7025 183.098 9.5045 181.905 9.1905C180.837 8.6881 180.178 11.0431 176.912 17.386C178.074 12.8015 179.393 9.88131 178.262 9.63011C177.163 9.1277 175.373 13.3667 172.076 20.3376C171.762 16.9778 171.385 15.2822 170.946 15.2508C170.224 15.2194 169.282 19.3328 168.183 27.6225C168.465 29.1925 168.779 30.7625 169.062 32.3639L178.105 30.6683Z" fill="#6EDBFF"/>
<path d="M182.972 25.3618C186.018 18.391 186.803 14.7171 186.049 14.4031C185.264 14.1519 184.008 15.9418 182.658 19.4586C184.887 13.6809 184.95 11.2945 184.134 11.2003C183.537 11.0747 182.878 12.3307 180.052 18.1712C181.936 11.7027 183.098 9.5989 181.936 9.1907C180.774 8.81389 180.209 11.0433 176.943 17.3862C178.105 12.8017 179.392 9.9129 178.293 9.6303C177.414 9.1907 175.405 13.3669 172.107 20.3378C171.793 16.978 171.417 15.2823 170.977 15.2509C170.255 15.2195 169.313 19.333 168.214 27.6226" stroke="black" stroke-width="1.2" stroke-miterlimit="10" stroke-linecap="round" stroke-linejoin="round"/>
<path d="M175.656 19.3013C176.567 19.5525 177.572 19.8979 178.639 20.3375C179.644 20.7457 180.555 21.1853 181.371 21.6249" stroke="black" stroke-width="1.2" stroke-miterlimit="10" stroke-linecap="round" stroke-linejoin="round"/>
<path d="M123.406 33.5259C124.129 35.9751 124.851 39.3035 124.914 43.2914C125.008 49.069 123.689 53.7162 122.59 56.6679C117.817 56.1027 113.044 55.5375 108.271 54.9723L102.557 54.3442L104.755 49.7598L108.585 35.7553L123.406 33.5259Z" fill="#6EDBFF"/>
<path d="M124.913 42.6946C127.425 42.569 128.995 42.569 128.995 43.4796C128.995 44.7042 127.959 45.081 124.882 46.1172" fill="white"/>
<path d="M124.913 42.6946C127.425 42.569 128.995 42.569 128.995 43.4796C128.995 44.7042 127.959 45.081 124.882 46.1172" stroke="black" stroke-width="1.2" stroke-miterlimit="10" stroke-linecap="round" stroke-linejoin="round"/>
<path d="M124.945 43.2914C124.882 39.3035 124.16 35.9751 123.438 33.5259L118.257 34.3109V36.3833C119.262 38.5185 120.266 41.0933 121.051 44.0764C122.37 48.9748 122.653 53.3394 122.621 56.6679C123.72 53.7162 125.039 49.069 124.945 43.2914Z" fill="white"/>
<path d="M123.406 33.5259C124.129 35.9751 124.851 39.3035 124.914 43.2914C125.008 49.069 123.689 53.7162 122.59 56.6679C117.817 56.1027 113.044 55.5375 108.271 54.9723L102.557 54.3442L104.755 49.7598L108.585 35.7553L123.406 33.5259Z" stroke="black" stroke-width="1.2" stroke-miterlimit="10" stroke-linecap="round" stroke-linejoin="round"/>
<path d="M114.614 43.6682C115.116 45.1126 111.725 47.5304 110.626 48.2212C108.146 49.7912 105.791 50.3878 104.346 50.639C102.902 48.6294 100.578 44.2334 100.578 38.6127C100.547 24.514 114.771 25.3304 118.79 19.5842C119.701 21.5938 119.104 24.5768 118.79 25.3304C119.858 25.0164 121.836 24.2628 123.72 22.5044C125.322 20.9972 126.201 19.3958 126.64 18.4224C130.44 25.6758 124.599 33.1491 123.657 34.2795C121.585 35.8181 118.602 38.3615 118.319 39.0523C117.189 38.2987 115.87 38.1103 115.085 38.5499C113.201 39.6489 114.08 42.1924 114.614 43.6682Z" fill="black" stroke="black" stroke-width="1.2" stroke-miterlimit="10" stroke-linecap="round" stroke-linejoin="round"/>
<path d="M131.287 64.1721C133.171 85.8069 118.445 114.884 110.155 131.871C108.522 128.511 91.5031 106.06 75.5518 109.985C79.7908 98.8694 94.1721 61.6287 102.556 54.3439C104.314 54.1241 105.539 53.9671 107.046 53.8101" fill="white"/>
<path d="M131.287 64.1721C133.171 85.8069 118.445 114.884 110.155 131.871C108.522 128.511 91.5031 106.06 75.5518 109.985C79.7908 98.8694 94.1721 61.6287 102.556 54.3439C104.314 54.1241 105.539 53.9671 107.046 53.8101" stroke="black" stroke-width="1.2" stroke-miterlimit="10" stroke-linecap="round" stroke-linejoin="round"/>
<path d="M138.729 47.8442C127.707 49.2887 115.964 47.5616 102.556 56.4479L123.971 75.1625C128.304 74.4089 135.557 72.776 143.753 68.851C144.067 62.1314 144.004 49.3829 138.729 47.8442Z" fill="white"/>
<path d="M123.971 75.1625C128.305 74.4089 135.558 72.776 143.753 68.851C144.067 62.1314 144.005 49.3829 138.729 47.8442C127.708 49.2887 120.423 47.9698 105.885 53.9987" stroke="black" stroke-width="1.2" stroke-miterlimit="10" stroke-linecap="round" stroke-linejoin="round"/>
<path d="M134.93 48.5664C137.63 49.0374 139.734 54.7523 139.734 61.8173" stroke="black" stroke-width="1.2" stroke-miterlimit="10" stroke-linecap="round" stroke-linejoin="round"/>
<path d="M168.214 27.6226C164.446 33.4003 160.333 38.1417 152.828 42.9774C148.212 45.9604 143.565 47.185 138.761 47.8444C144.036 49.383 144.099 62.1315 143.785 68.8512C147.835 66.9044 165.953 61.8175 183.004 25.3618" stroke="black" stroke-width="1.2" stroke-miterlimit="10" stroke-linecap="round" stroke-linejoin="round"/>
<path d="M107.862 171.059L110.626 134.478" stroke="#6EDBFF" stroke-width="1.2" stroke-miterlimit="10" stroke-linecap="round" stroke-linejoin="round"/>
<path d="M109.652 210.592C114.519 213.889 129.435 200.858 132.072 198.377" stroke="#6EDBFF" stroke-width="1.2" stroke-miterlimit="10" stroke-linecap="round" stroke-linejoin="round"/>
<path d="M75.6459 267.018L80.1361 267.96C77.5613 269.938 74.2329 272.168 70.1509 274.177C65.692 276.375 61.5472 277.726 58.1874 278.574C47.9823 278.574 37.8086 278.574 27.6035 278.574C33.4754 278.071 41.5766 276.689 50.4315 272.921C55.6439 270.692 59.9458 268.149 63.3998 265.762C67.4818 266.17 71.5639 266.61 75.6459 267.018Z" fill="black" stroke="black" stroke-width="1.2" stroke-miterlimit="10" stroke-linecap="round" stroke-linejoin="round"/>
<path d="M72.1604 240.359C65.9431 238.978 59.4433 239.072 56.3661 240.328L55.9893 241.929C57.2453 240.768 63.7451 239.794 71.9092 241.584C80.7955 243.531 86.4475 247.55 86.1335 248.963C86.0707 249.309 86.2591 249.623 86.6045 249.685C86.6359 249.685 86.6987 249.685 86.7301 249.685C87.0127 249.685 87.2639 249.497 87.3267 249.214C87.9861 246.2 79.8535 242.055 72.1604 240.359Z" fill="#6EDBFF"/>
<path d="M6 277.474H120.894" stroke="#6EDBFF" stroke-width="1.2" stroke-miterlimit="10" stroke-linecap="round" stroke-linejoin="round"/>
</svg>
