<svg width="368" height="298" viewBox="0 0 368 298" fill="none" xmlns="http://www.w3.org/2000/svg">
<path d="M293.345 86.3931C283.713 54.6976 264.617 24.2901 238.69 3.23451C237.682 2.45053 236.338 2.28253 235.218 2.78652L193.499 21.6582C156.203 14.7703 118.964 13.2583 83.0126 26.5301C81.7806 26.9781 80.8846 28.1541 80.8286 29.4981C80.3246 39.6899 78.1407 82.1931 78.1407 82.1931C53.2211 108.401 33.7334 141.44 29.0295 177.223C28.8615 178.455 29.4215 179.687 30.4295 180.415L75.2287 211.607C84.8606 243.302 104.012 273.71 129.884 294.765C130.892 295.549 132.236 295.717 133.356 295.213L175.075 276.342C212.37 283.23 249.61 284.742 285.561 271.47C286.793 271.022 287.689 269.846 287.745 268.502L290.545 215.863C315.409 189.599 334.84 156.616 339.544 120.776C339.712 119.544 339.152 118.313 338.144 117.585L293.345 86.3931Z" fill="#FFE84D" stroke="white" stroke-width="2" stroke-linecap="round" stroke-linejoin="round"/>
<path d="M294.745 241.398H302.809C306.505 241.398 309.473 238.43 309.473 234.734V20.4821C309.473 16.7862 306.505 13.8182 302.809 13.8182H294.745V241.398Z" fill="black"/>
<path d="M293.457 13.9303L71.0289 47.6977C67.7809 48.2017 65.373 51.0017 65.373 54.2496V201.191C65.373 204.495 67.7809 207.295 71.0289 207.743L293.457 241.342C297.489 241.958 301.073 238.822 301.073 234.79V20.4822C301.073 16.3943 297.433 13.3143 293.457 13.9303Z" fill="#FFE84D"/>
<path d="M293.289 13.3704L71.0289 47.6978C67.7809 48.2018 65.373 51.0017 65.373 54.2497V201.191C65.373 204.495 67.7809 207.295 71.0289 207.743L293.457 241.902" stroke="white" stroke-width="1.2" stroke-miterlimit="10" stroke-linecap="round" stroke-linejoin="round"/>
<path d="M291.721 94.905L282.649 97.985V105.433L291.721 102.353V94.905Z" fill="black" stroke="black" stroke-width="1.2" stroke-miterlimit="10" stroke-linecap="round" stroke-linejoin="round"/>
<path d="M147.859 101.233L142.819 103.641L282.649 97.985L291.721 94.905L147.859 101.233Z" fill="#FFE84D" stroke="black" stroke-width="1.2" stroke-miterlimit="10" stroke-linecap="round" stroke-linejoin="round"/>
<path d="M282.649 105.433L142.819 109.689V103.641L282.649 97.985V105.433Z" fill="#FFE84D" stroke="black" stroke-width="1.2" stroke-miterlimit="10" stroke-linecap="round" stroke-linejoin="round"/>
<path d="M269.657 95.801L260.641 98.881V106.105L269.657 103.025V95.801Z" fill="black" stroke="black" stroke-width="1.2" stroke-miterlimit="10" stroke-linecap="round" stroke-linejoin="round"/>
<path d="M216.683 97.985L207.611 101.009V107.729L216.683 104.761V97.985Z" fill="black" stroke="black" stroke-width="1.2" stroke-miterlimit="10" stroke-linecap="round" stroke-linejoin="round"/>
<path d="M157.995 101.009L151.107 103.305V109.409L160.179 106.385L157.995 101.009Z" fill="black" stroke="black" stroke-width="1.2" stroke-miterlimit="10" stroke-linecap="round" stroke-linejoin="round"/>
<path d="M233.651 79.7293L234.547 80.7933H238.803L244.346 73.4574L241.659 70.3214C243.339 67.1295 244.514 63.4336 245.074 59.5696L248.938 59.1776V49.2658L245.074 49.7138C244.514 45.9619 243.339 42.6019 241.659 39.746L244.346 35.994L238.859 29.8901H231.411L236.171 33.6421C233.763 31.9061 231.075 30.8421 228.163 30.6181V25.9702H220.715L220.771 31.7941C217.971 32.9141 215.395 34.7061 213.155 37.058L210.691 34.2021H203.243L208.115 44.3379C206.603 47.4178 205.539 50.8898 205.035 54.5297L201.675 54.9217V64.1056L205.035 63.7696C205.539 67.2975 206.603 70.5454 208.059 73.2894L203.187 82.8652H210.635L213.099 79.4493C215.339 81.2973 217.915 82.5292 220.715 83.0332V130.128L228.107 137.352V82.5292C230.067 81.8572 231.915 80.9053 233.651 79.7293ZM224.467 71.1614C218.419 71.7214 213.659 65.8975 213.659 58.1697C213.659 50.4418 218.475 43.4979 224.467 42.7139C230.627 41.8739 235.667 47.6978 235.667 55.7057C235.667 63.6576 230.571 70.6014 224.467 71.1614Z" fill="black" stroke="black" stroke-width="1.2" stroke-miterlimit="10" stroke-linecap="round" stroke-linejoin="round"/>
<path d="M191.427 40.418C190.811 36.2181 189.523 32.4101 187.787 29.1622L190.755 24.6263L184.707 17.4584H177.259C177.259 17.4584 178.883 20.0344 177.315 19.4184C175.915 18.9144 174.516 18.5784 173.004 18.4664V12.9225H165.556L164.94 19.9784C161.86 21.3223 159.06 23.5623 156.652 26.3622L154.02 23.0023H146.572L151.22 35.0981C149.596 38.794 148.42 42.938 147.916 47.2499L144.276 47.7539V58.6737L147.916 58.2257C148.476 62.4256 149.596 66.2336 151.22 69.4815L146.572 80.8493H154.02L156.652 76.7614C159.06 78.9453 161.916 80.4013 164.94 80.9053V128.728C156.092 131.416 149.596 142.504 149.596 155.608C149.596 168.152 155.532 178.904 163.764 182.376V156.336C163.764 153.144 165.556 150.624 167.852 150.624H169.924C172.22 150.624 174.068 153.256 174.068 156.448V182.768C182.635 179.912 189.075 169.104 189.075 156C189.075 142.336 182.131 131.08 173.06 128.56V80.1213C174.516 79.6173 175.971 78.8893 177.315 77.9934H184.707L190.755 69.1455L187.787 65.4496C189.635 61.5856 190.923 57.2177 191.539 52.6258L195.795 52.0658V40.25L191.427 40.418ZM168.972 67.6895C162.084 68.4175 156.596 61.2496 156.596 51.6178C156.596 41.986 162.084 33.3061 168.972 32.1862C176.027 31.0662 181.795 38.178 181.795 48.2019C181.795 58.1697 176.027 66.9055 168.972 67.6895Z" fill="black" stroke="black" stroke-width="1.2" stroke-miterlimit="10" stroke-linecap="round" stroke-linejoin="round"/>
<path d="M294.632 52.6816C294.072 49.3217 292.952 46.2977 291.328 43.7218L293.96 40.3619L288.584 34.8179L286.009 38.1779C283.713 36.6099 281.025 35.6579 278.225 35.4339V31.234L271.057 32.242V36.3859C268.313 37.3379 265.793 38.9619 263.609 41.0898L261.201 38.5139L256.329 45.0658L258.681 47.6417C257.225 50.4417 256.161 53.5216 255.713 56.7696L252.409 57.1056V65.3934L255.713 65.1134C256.217 68.3054 257.225 71.2173 258.681 73.6813L256.329 76.7052L261.145 82.3051L263.553 79.2812C265.737 80.9611 268.257 82.0811 271.001 82.5291V124.864C268.873 127.72 260.473 139.312 259.857 145.36C259.801 146.928 259.913 148.44 260.025 149.952L257.449 152.696L261.985 167.592L267.865 177.615H275.705L268.481 153.48L287.912 139.2L278.617 124.36V82.2491C280.577 81.4091 284.329 79.2252 286.009 77.7692L288.584 80.6252L293.96 74.0173L291.328 71.1613C292.952 68.3054 294.128 65.0014 294.688 61.5295L298.44 61.1935V52.2896L294.632 52.6816ZM274.585 70.8253C269.153 71.2733 264.841 66.4014 264.841 60.0175C264.841 53.6336 269.153 47.9217 274.585 47.3057C280.073 46.6337 284.609 51.4497 284.609 58.0575C284.609 64.6654 280.073 70.3773 274.585 70.8253Z" fill="black" stroke="black" stroke-width="1.2" stroke-miterlimit="10" stroke-linecap="round" stroke-linejoin="round"/>
<path d="M237.626 49.6576C237.066 45.9057 235.89 42.5458 234.21 39.6898L236.898 35.9379L231.41 29.834L228.778 33.5859C226.37 31.85 223.682 30.786 220.77 30.562V25.9141L213.378 27.09V31.682C210.578 32.8019 208.002 34.5939 205.762 36.9459L203.354 34.0899L198.426 41.3698L200.834 44.2257C199.322 47.3057 198.258 50.7776 197.754 54.4176L194.394 54.8096V63.9934L197.754 63.6574C198.258 67.1853 199.322 70.4333 200.778 73.1772L198.37 76.5932L203.298 82.7531L205.762 79.3371C207.33 80.6251 209.066 81.6331 210.914 82.2491V135.392H222.562V81.6891C224.802 80.7371 226.874 79.3371 228.778 77.5452L231.41 80.6811L236.954 73.3452L234.266 70.2093C235.946 67.0174 237.122 63.3214 237.682 59.4575L241.546 59.0655V49.1537L237.626 49.6576ZM217.018 71.1613C210.97 71.7213 206.21 65.8974 206.21 58.1695C206.21 50.4416 211.026 43.4978 217.018 42.7138C223.178 41.8738 228.218 47.6977 228.218 55.7055C228.218 63.6574 223.178 70.6013 217.018 71.1613Z" fill="white" stroke="black" stroke-width="1.2" stroke-miterlimit="10" stroke-linecap="round" stroke-linejoin="round"/>
<path d="M184.09 41.0338C183.474 36.5539 182.186 32.5779 180.339 29.218L183.306 24.6821L177.259 17.4582L174.347 21.9941C171.715 19.9781 168.747 18.7462 165.611 18.5222V12.9783L157.547 14.5462V20.0341C154.467 21.3781 151.667 23.6181 149.259 26.418L146.627 23.0581L141.251 31.7939L143.883 35.1539C142.259 38.8498 141.083 42.9937 140.579 47.3057L136.939 47.8097V58.7295L140.579 58.2815C141.139 62.4814 142.259 66.2893 143.883 69.5373L141.251 73.6252L146.627 80.9051L149.259 76.8172C150.659 78.1051 152.227 79.1131 153.907 79.8411V130.52C147.019 134.776 142.203 144.52 142.203 155.72C142.203 168.264 148.139 179.015 156.371 182.487V156.448C156.371 153.256 158.163 150.736 160.459 150.736H162.531C164.827 150.736 166.675 153.368 166.675 156.56V182.879C175.243 180.023 181.682 169.216 181.682 156.112C181.682 144.352 176.531 134.384 169.307 130.24V78.5531C171.099 77.4891 172.835 76.0892 174.403 74.4092L177.315 78.1611L183.362 69.3133L180.395 65.6174C182.242 61.7534 183.53 57.3855 184.146 52.7936L188.402 52.2336V40.4178L184.09 41.0338ZM161.523 67.6893C154.635 68.4173 149.147 61.2494 149.147 51.6176C149.147 42.0418 154.635 33.3619 161.523 32.2419C168.579 31.122 174.347 38.2338 174.347 48.2577C174.403 58.1695 168.579 66.9053 161.523 67.6893Z" fill="white" stroke="black" stroke-width="1.2" stroke-miterlimit="10" stroke-linecap="round" stroke-linejoin="round"/>
<path d="M260.641 153.424L281.081 138.36L272.625 124.808V81.1851C274.585 80.3451 276.433 79.1691 278.113 77.7132L280.689 80.5691L286.064 73.9612L283.433 71.1053C285.057 68.2493 286.232 64.9454 286.792 61.4735L290.544 61.1375V52.2336L286.792 52.6256C286.232 49.2657 285.113 46.2417 283.489 43.6658L286.12 40.3058L280.745 34.7619L278.169 38.1219C275.873 36.5539 273.185 35.6019 270.385 35.3779V31.178L263.217 32.186V36.3299C260.473 37.2819 257.953 38.9058 255.769 41.0338L253.361 38.4579L248.489 45.0657L250.841 47.6417C249.385 50.4416 248.321 53.5216 247.873 56.7695L244.569 57.1055V65.3934L247.873 65.1134C248.377 68.3053 249.385 71.2173 250.841 73.6812L248.489 76.7052L253.305 82.3051L255.713 79.2811C257.897 80.9611 260.417 82.0811 263.161 82.5291V124.864C261.033 127.72 252.633 139.312 252.017 145.36C251.681 161.376 262.321 176.103 267.865 177.671L260.641 153.424ZM266.689 70.8253C261.257 71.2733 256.945 66.4014 256.945 60.0175C256.945 53.6336 261.257 47.9217 266.689 47.3057C272.177 46.6337 276.713 51.4496 276.713 58.0575C276.713 64.6654 272.233 70.3773 266.689 70.8253Z" fill="white" stroke="black" stroke-width="1.2" stroke-miterlimit="10" stroke-linecap="round" stroke-linejoin="round"/>
<path d="M238.802 99.7767L221.835 100.449V107.281L232.306 106.945L238.802 99.7767Z" fill="#FFE84D"/>
<path d="M238.97 99.7209L221.835 100.449V107.281L234.49 106.889" stroke="black" stroke-width="1.2" stroke-miterlimit="10" stroke-linecap="round" stroke-linejoin="round"/>
<path d="M279.569 98.0968L268.201 98.5448V105.881L280.185 105.489L279.569 98.0968Z" fill="#FFE84D"/>
<path d="M282.649 97.985L268.201 98.545V105.881L282.649 105.433" stroke="black" stroke-width="1.2" stroke-miterlimit="10" stroke-linecap="round" stroke-linejoin="round"/>
<path d="M268.201 98.545L277.777 95.521L291.721 94.905L282.649 97.985L268.201 98.545Z" fill="#FFE84D" stroke="black" stroke-width="1.2" stroke-miterlimit="10" stroke-linecap="round" stroke-linejoin="round"/>
<path d="M162.699 102.857L170.763 100.281L175.691 100.001V102.297L162.699 102.857Z" fill="#FFE84D" stroke="black" stroke-width="1.2" stroke-miterlimit="10" stroke-linecap="round" stroke-linejoin="round"/>
<path d="M64.9252 123.52L55.8533 126.6L114.26 126.432L123.276 123.352L64.9252 123.52Z" fill="#FFE84D" stroke="black" stroke-width="1.2" stroke-miterlimit="10" stroke-linecap="round" stroke-linejoin="round"/>
<path d="M55.8533 126.6V133.264L114.26 133.88V126.432L55.8533 126.6Z" fill="white" stroke="black" stroke-width="1.2" stroke-miterlimit="10" stroke-linecap="round" stroke-linejoin="round"/>
<path d="M123.276 123.352L114.26 126.432V133.88L123.276 130.8V123.352Z" fill="black" stroke="black" stroke-width="1.2" stroke-miterlimit="10" stroke-linecap="round" stroke-linejoin="round"/>
<path d="M179.555 102.129L162.699 102.857V109.073L175.355 108.681" fill="#FFE84D"/>
<path d="M179.555 102.129L162.699 102.857V109.073L175.355 108.681" stroke="black" stroke-width="1.2" stroke-miterlimit="10" stroke-linecap="round" stroke-linejoin="round"/>
<path d="M53.2773 207.071L59.3252 205.055" stroke="black" stroke-width="1.2" stroke-miterlimit="10" stroke-linecap="round" stroke-linejoin="round"/>
<path d="M59.6043 219.335L56.8604 207.407L99.2516 193.127L98.9716 206.007L59.6043 219.335Z" fill="#FFE84D" stroke="black" stroke-width="1.2" stroke-miterlimit="10" stroke-linecap="round" stroke-linejoin="round"/>
<path d="M79.3721 179.631C76.8522 178.119 74.2202 177.111 71.5883 176.775L64.8684 167.76L60.8365 173.079L62.8524 178.119C61.8444 178.679 60.9485 179.351 60.1645 180.191C59.3805 181.031 59.2125 177.223 57.1405 175.767L53.1086 181.087L51.9886 189.879L57.0845 191.783C57.5325 194.359 58.5405 196.991 60.1645 199.455L57.0845 202.591L64.7004 209.983L67.7803 206.847C70.3003 208.359 72.9323 209.367 75.5642 209.703L77.5802 214.743L86.316 213.399L90.348 208.079C88.5 205.167 86.204 207.127 86.988 206.343C87.772 205.503 88.444 204.607 88.948 203.599L94.0439 205.503L98.0758 200.183L90.068 194.863C89.62 192.287 88.612 189.655 86.988 187.191L90.068 184.055L82.4521 176.663L79.3721 179.631ZM80.8281 200.295C77.8042 203.375 72.1483 202.703 68.1163 198.839C64.0844 194.919 63.3004 189.263 66.2684 186.183C69.2923 183.103 74.9482 183.775 78.9801 187.639C83.0121 191.559 83.8521 197.215 80.8281 200.295Z" fill="white" stroke="black" stroke-width="1.2" stroke-miterlimit="10" stroke-linecap="round" stroke-linejoin="round"/>
<path d="M83.4036 174.311C80.8837 172.8 78.2517 171.792 75.6198 171.456L73.6038 166.416L64.868 167.76L66.8839 172.8C65.8759 173.36 64.98 174.032 64.196 174.871C63.412 175.711 62.74 176.607 62.236 177.615L57.1401 175.711L56.0201 184.503L61.116 186.407C61.564 188.983 62.572 191.615 64.196 194.079L61.116 197.215L68.7319 204.663L71.8118 201.527C74.3318 203.039 76.9637 204.047 79.5957 204.383L81.6117 209.423L90.3475 208.079L88.3315 203.039C89.3395 202.479 90.2355 201.807 91.0195 200.967C91.8035 200.127 92.4755 199.231 92.9795 198.223L98.0754 200.127L99.1954 191.335L94.0994 189.431C93.6515 186.855 92.6435 184.223 91.0195 181.759L94.0994 178.623L86.4836 171.232L83.4036 174.311ZM84.8596 194.975C81.8357 198.055 76.1798 197.383 72.1478 193.519C68.1159 189.655 67.3319 183.943 70.2999 180.863C73.3238 177.783 78.9797 178.455 83.0116 182.319C87.0436 186.239 87.8836 191.895 84.8596 194.975Z" fill="black" stroke="black" stroke-width="1.2" stroke-miterlimit="10" stroke-linecap="round" stroke-linejoin="round"/>
<path d="M56.0205 184.503L51.9886 189.823" stroke="black" stroke-width="1.2" stroke-miterlimit="10" stroke-linecap="round" stroke-linejoin="round"/>
<path d="M57.0843 191.727L61.1163 186.407" stroke="black" stroke-width="1.2" stroke-miterlimit="10" stroke-linecap="round" stroke-linejoin="round"/>
<path d="M61.1163 197.215L57.0843 202.591L64.7002 209.983L68.7321 204.663L61.1163 197.215Z" fill="white" stroke="black" stroke-width="1.2" stroke-miterlimit="10" stroke-linecap="round" stroke-linejoin="round"/>
<path d="M77.5797 214.743L81.6117 209.423" stroke="black" stroke-width="1.2" stroke-miterlimit="10" stroke-linecap="round" stroke-linejoin="round"/>
<path d="M79.5959 204.383L75.564 209.703" stroke="black" stroke-width="1.2" stroke-miterlimit="10" stroke-linecap="round" stroke-linejoin="round"/>
<path d="M132.179 183.832C132.571 179.576 132.067 175.488 130.835 171.848L136.323 166.136L128.595 155.384L121.259 155.048C120.587 157.176 120.195 159.36 118.515 158.8C116.835 158.24 115.155 157.96 113.419 157.848L112.523 150.008L105.411 149.728L100.764 161.712C97.5716 163.84 94.6597 166.808 92.4197 170.448L86.0918 168.32L79.3159 167.704L87.5478 184.896C87.1558 189.151 87.6598 193.239 88.8918 196.879L84.2999 212.223L91.1317 213.287L96.6196 207.575C98.0196 208.583 99.5316 209.367 101.212 209.927C102.892 210.487 104.572 210.767 106.307 210.879L107.203 218.719L119.859 214.911L118.963 207.071C127.027 206.399 126.803 202.535 129.043 198.951L133.635 200.519L138.563 185.96L132.179 183.832ZM105.747 196.599C100.26 194.751 97.6836 187.751 99.9796 181.032C102.276 174.256 108.547 170.28 114.035 172.128C119.523 173.976 122.099 180.976 119.803 187.696C117.507 194.471 111.179 198.447 105.747 196.599Z" fill="black" stroke="black" stroke-width="1.2" stroke-miterlimit="10" stroke-linecap="round" stroke-linejoin="round"/>
<path d="M124.843 183.104C125.235 178.904 124.731 174.872 123.499 171.288L128.875 165.632L121.259 155.048L115.884 160.704C114.484 159.752 112.972 158.968 111.348 158.408C109.724 157.848 108.044 157.568 106.308 157.512L105.468 149.728L92.98 153.48L93.82 161.264C90.684 163.392 87.8281 166.304 85.5881 169.888L79.3162 167.704L74.4443 182.04L80.7162 184.168C80.3242 188.367 80.8282 192.399 82.0602 195.983L76.6843 201.639L84.3001 212.223L89.676 206.567C91.076 207.519 92.588 208.303 94.212 208.863C95.8359 209.423 97.5159 209.703 99.2519 209.759L100.092 217.543L112.58 213.791L111.74 206.007C114.876 203.879 117.732 200.967 119.972 197.383L126.243 199.511L131.115 185.176L124.843 183.104ZM98.6919 195.703C93.316 193.855 90.74 186.968 92.98 180.304C95.2199 173.64 101.436 169.72 106.868 171.512C112.244 173.36 114.82 180.248 112.58 186.912C110.284 193.631 104.124 197.551 98.6919 195.703Z" fill="white" stroke="black" stroke-width="1.2" stroke-miterlimit="10" stroke-linecap="round" stroke-linejoin="round"/>
<path d="M133.468 187.975L126.132 204.383L97.5165 214.071L102.108 214.799L140.916 214.127V213.455L144.5 186.519L139.292 186.015L133.468 187.975Z" fill="#FFE84D" stroke="#FFE84D" stroke-width="1.2" stroke-miterlimit="10" stroke-linecap="round" stroke-linejoin="round"/>
<path d="M136.715 189.151L129.38 205.559L102.108 214.799L105.076 227.735L144.499 214.463V213.791V200.463V186.52L136.715 189.151Z" fill="black" stroke="black" stroke-width="1.2" stroke-miterlimit="10" stroke-linecap="round" stroke-linejoin="round"/>
<path d="M53.2773 207.071L57.2532 205.727L102.108 212.503L100.205 215.359L53.2773 207.071Z" fill="#FFE84D" stroke="#FFE84D" stroke-width="1.2" stroke-miterlimit="10" stroke-linecap="round" stroke-linejoin="round"/>
<path d="M56.0213 218.999L53.2773 207.071L102.108 214.799L105.076 227.735L56.0213 218.999Z" fill="white" stroke="black" stroke-width="1.2" stroke-miterlimit="10" stroke-linecap="round" stroke-linejoin="round"/>
<path d="M56.0213 218.999L53.2773 207.071L102.108 214.799L105.076 227.735L56.0213 218.999Z" fill="white" stroke="black" stroke-width="1.2" stroke-miterlimit="10" stroke-linecap="round" stroke-linejoin="round"/>
<path d="M87.8841 88.017C87.3241 83.985 86.0922 80.2331 84.4122 76.9852L87.8281 66.0654H81.5562L78.8123 69.6493C76.3483 67.4093 73.4924 65.8414 70.4124 65.0574V60.0175H62.4606V65.0574C59.3806 65.7854 56.5247 67.3533 54.0607 69.5933L51.3168 66.0094L45.7169 73.3452L48.4608 76.9292C46.7248 80.1771 45.5489 83.929 44.9889 87.961H41.1249V98.3768H44.9889C45.5489 102.409 46.7808 106.161 48.4608 109.409L45.7169 112.993L51.3168 120.328L54.0607 116.744C56.5247 118.984 59.3806 120.552 62.4606 121.336V126.376H70.4124V121.336C73.4924 120.608 76.3483 119.04 78.8123 116.8L81.5562 120.384H87.6601L84.4122 109.465C86.1482 106.217 87.3241 102.465 87.8841 98.4328H91.7481V88.017H87.8841ZM66.4365 109.857C59.4366 109.857 53.7247 102.409 53.7247 93.2249C53.7247 84.041 59.4366 76.5932 66.4365 76.5932C73.4364 76.5932 79.1483 84.041 79.1483 93.2249C79.1483 102.409 73.4364 109.857 66.4365 109.857Z" fill="white" stroke="black" stroke-width="1.2" stroke-miterlimit="10" stroke-linecap="round" stroke-linejoin="round"/>
<path d="M70.4122 65.0574V60.0175H62.4604V65.0574H70.4122Z" fill="#FFE84D" stroke="black" stroke-width="1.2" stroke-miterlimit="10" stroke-linecap="round" stroke-linejoin="round"/>
<path d="M70.4124 126.432V121.784C69.6284 121.112 67.9485 119.768 67.9485 119.768L66.8285 119.208L58.5406 114.393L57.3647 119.32C58.9326 120.272 60.6126 121 62.4046 121.392V126.432H70.4124Z" fill="#FFE84D" stroke="black" stroke-width="1.2" stroke-miterlimit="10" stroke-linecap="round" stroke-linejoin="round"/>
<path d="M89.5083 98.4328L89.3403 88.0169H87.8843C87.3803 84.433 86.3724 81.0731 84.9164 78.0491L75.1166 73.4012L66.8287 72.2252L66.8847 76.5931C73.7166 76.9851 79.1485 84.265 79.1485 93.2249C79.1485 102.073 73.8846 109.297 67.2767 109.801V111.369C67.2767 111.369 72.9326 113.441 73.4926 113.329C73.8286 113.273 80.0445 111.481 84.6924 110.137L84.5244 109.465C86.2604 106.217 87.4363 102.465 87.9963 98.4328H89.5083Z" fill="#FFE84D" stroke="black" stroke-width="1.2" stroke-miterlimit="10" stroke-linecap="round" stroke-linejoin="round"/>
<path d="M94.2124 88.017C93.6524 83.985 92.4205 80.2331 90.7405 76.9852L93.4844 73.4012L87.8845 66.0654L85.1406 69.6493C82.6766 67.4093 79.8207 65.8414 76.7407 65.0574V60.0175H68.7889V65.0574C65.7089 65.7854 62.853 67.3533 60.389 69.5933L57.6451 66.0094L52.0452 73.3452L54.7891 76.9292C53.0531 80.1771 51.8772 83.929 51.3172 87.961H47.4532V98.3768H51.3172C51.8772 102.409 53.1091 106.161 54.7891 109.409L52.0452 112.993L57.6451 120.328L60.389 116.744C62.853 118.984 65.7089 120.552 68.7889 121.336V126.376H76.7407V121.336C79.8207 120.608 82.6766 119.04 85.1406 116.8L87.8845 120.384L93.4844 113.049L90.7405 109.465C92.4765 106.217 93.6524 102.465 94.2124 98.4328L95.6684 94.9048L98.1324 88.017H94.2124ZM72.7088 109.857C65.7089 109.857 59.997 102.409 59.997 93.2249C59.997 84.041 65.7089 76.5932 72.7088 76.5932C79.7087 76.5932 85.4206 84.041 85.4206 93.2249C85.4206 102.409 79.7647 109.857 72.7088 109.857Z" fill="black" stroke="black" stroke-width="1.2" stroke-miterlimit="10" stroke-linecap="round" stroke-linejoin="round"/>
<path d="M45.7175 73.4012L51.3174 66.0653H57.6453L51.9894 73.4012H45.7175Z" fill="white" stroke="black" stroke-width="1.2" stroke-miterlimit="10" stroke-linecap="round" stroke-linejoin="round"/>
<path d="M45.6606 112.993L51.3165 120.385H57.5884L51.9885 112.993H45.6606Z" fill="white" stroke="black" stroke-width="1.2" stroke-miterlimit="10" stroke-linecap="round" stroke-linejoin="round"/>
<path d="M47.397 88.017H41.0692V98.4328H47.397V88.017Z" fill="white" stroke="black" stroke-width="1.2" stroke-miterlimit="10" stroke-linecap="round" stroke-linejoin="round"/>
<path d="M94.7164 79.1133L82.4526 81.0732C83.7966 89.6971 78.8127 97.593 71.2528 98.8249L73.4928 112.769C81.0527 111.593 88.2765 117.585 89.6765 126.152H99.3643L103.62 124.08C102.276 115.457 105.636 107.673 113.196 106.497L110.956 92.553C103.34 93.729 96.1164 87.7371 94.7164 79.1133ZM93.4845 110.921C89.4525 111.537 85.5886 108.345 84.8606 103.809C84.1326 99.2169 86.8206 95.017 90.8525 94.345C94.8844 93.729 98.7484 96.921 99.4763 101.457C100.204 106.049 97.5164 110.305 93.4845 110.921Z" fill="white" stroke="black" stroke-width="1.2" stroke-miterlimit="10" stroke-linecap="round" stroke-linejoin="round"/>
<path d="M92.1405 81.0732H82.4527L94.7165 79.1133H104.46L92.1405 81.0732Z" fill="white" stroke="black" stroke-width="1.2" stroke-miterlimit="10" stroke-linecap="round" stroke-linejoin="round"/>
<path d="M80.9409 98.8247H71.1971L73.437 112.768H83.1249L80.9409 98.8247Z" fill="white" stroke="black" stroke-width="1.2" stroke-miterlimit="10" stroke-linecap="round" stroke-linejoin="round"/>
<path d="M113.14 106.497L110.9 92.5531C106.98 93.1691 103.172 91.8811 100.204 89.2491L95.6682 95.465C97.6282 96.697 99.0842 98.881 99.4761 101.513C100.036 105.209 98.4122 108.681 95.6682 110.193L96.6202 115.121C96.6202 115.121 101.772 116.241 103.9 115.457C105.188 110.697 108.268 107.225 113.14 106.497Z" fill="#FFE84D" stroke="black" stroke-width="1.2" stroke-miterlimit="10" stroke-linecap="round" stroke-linejoin="round"/>
<path d="M104.461 79.1133L92.1967 81.0732C93.5407 89.6971 88.5568 97.593 80.9969 98.8249L83.2369 112.769C90.7967 111.593 98.0206 117.585 99.4206 126.152L111.684 124.192C110.34 115.569 115.324 107.673 122.884 106.441L120.644 92.497C113.084 93.729 105.804 87.7371 104.461 79.1133ZM103.229 110.921C99.1966 111.537 95.3327 108.345 94.6047 103.809C93.8767 99.2169 96.5646 95.017 100.597 94.345C104.629 93.729 108.492 96.921 109.22 101.457C109.892 106.049 107.26 110.305 103.229 110.921Z" fill="black" stroke="black" stroke-width="1.2" stroke-miterlimit="10" stroke-linecap="round" stroke-linejoin="round"/>
<path d="M221.835 100.449L230.795 97.5928L263.106 96.1929V98.0968L260.642 98.8808L221.835 100.449Z" fill="#FFE84D" stroke="black" stroke-width="1.2" stroke-miterlimit="10" stroke-linecap="round" stroke-linejoin="round"/>
<path d="M261.594 138.136C261.146 138.472 261.538 139.872 262.546 141.272C263.554 142.672 264.73 143.512 265.178 143.176L271.674 138.584L268.146 133.6L261.594 138.136Z" fill="#FFE84D" stroke="black" stroke-width="1.2" stroke-miterlimit="10" stroke-linecap="round" stroke-linejoin="round"/>
<path d="M267.698 141.328C267.25 141.664 266.074 140.824 265.066 139.424C264.058 138.024 263.666 136.624 264.114 136.288" stroke="black" stroke-width="1.2" stroke-miterlimit="10" stroke-linecap="round" stroke-linejoin="round"/>
<path d="M270.721 135.448C271.729 136.848 272.121 138.248 271.673 138.584C271.225 138.92 270.049 138.08 269.041 136.68C268.033 135.28 267.641 133.88 268.089 133.544C268.537 133.208 269.713 134.048 270.721 135.448Z" fill="#FFE84D" stroke="black" stroke-width="1.2" stroke-miterlimit="10" stroke-linecap="round" stroke-linejoin="round"/>
<mask id="mask0" mask-type="alpha" maskUnits="userSpaceOnUse" x="29" y="2" width="311" height="294">
<path d="M293.346 86.3932C283.714 54.6977 264.618 24.2903 238.691 3.23463C237.683 2.45065 236.339 2.28265 235.219 2.78664L193.5 21.6583C156.204 14.7704 118.965 13.2585 83.0135 26.5302C81.7815 26.9782 80.8855 28.1542 80.8295 29.4982C80.3255 39.69 78.1416 82.1933 78.1416 82.1933C53.222 108.401 33.7343 141.44 29.0304 177.224C28.8624 178.456 29.4224 179.688 30.4304 180.416L75.2296 211.607C84.8614 243.302 104.013 273.71 129.885 294.766C130.893 295.55 132.237 295.718 133.357 295.214L175.076 276.342C212.371 283.23 249.611 284.742 285.562 271.47C286.794 271.022 287.69 269.846 287.746 268.502L290.546 215.863C315.409 189.599 334.841 156.616 339.545 120.777C339.713 119.545 339.153 118.313 338.145 117.585L293.346 86.3932Z" fill="#FFE84D"/>
</mask>
<g mask="url(#mask0)">
<path d="M210.859 161.208C211.083 157.68 206.211 132.984 193.723 114.953C187.675 106.161 175.02 94.9609 169.252 103.697C165.612 111.761 175.859 120.832 180.395 133.096C190.531 160.536 189.355 170.616 188.347 182.935C187.507 188.591 183.251 188.367 180.675 185.287C174.292 177.559 163.876 159.528 150.772 156.84C150.436 156.784 145.06 156.952 144.22 163C143.716 166.64 146.404 172.464 149.708 181.423C155.98 198.391 164.66 218.551 166.788 223.423C177.203 246.886 193.891 268.95 200.275 277.014C203.803 281.998 208.171 290.005 210.467 295.549C210.467 295.549 271.898 291.965 272.57 291.517C273.242 291.069 285.618 275.11 285.618 275.11C280.018 253.494 273.634 231.094 266.242 208.079C262.378 195.927 258.402 184.055 254.314 172.52C252.97 168.32 243.842 144.24 234.938 146.76" fill="#FFE84D"/>
<path d="M153.18 157.456C152.396 157.176 151.612 156.952 150.772 156.784C150.436 156.728 145.06 156.896 144.22 162.944C143.716 166.584 146.404 172.408 149.708 181.367C154.636 194.695 161.076 210.039 164.604 218.327C161.804 200.407 144.948 162.328 153.18 157.456Z" fill="white"/>
<path d="M210.131 129.736L213.211 129.456C230.795 125.928 237.347 150.904 238.747 162.328L207.051 170.28L192.156 126.432" fill="#FFE84D"/>
<path d="M190.587 115.233L193.667 114.953C214.443 111.425 225.307 148.552 226.707 159.92" fill="#FFE84D"/>
<path d="M169.252 103.641C165.612 111.705 175.86 120.777 180.396 133.04C187.06 151.072 188.852 161.6 188.964 170.224C193.164 137.8 176.084 108.401 173.06 100.729C171.604 101.121 170.316 102.073 169.252 103.641Z" fill="white"/>
<path d="M211.252 161.712C214.892 158.912 206.94 121.896 201.34 115.456C198.988 114.672 196.468 114.448 193.724 114.896C206.212 132.984 211.476 158.184 211.252 161.712Z" fill="black"/>
<path d="M220.771 129.736C219.259 129.288 217.691 129.064 215.955 129.12C222.395 139.872 226.259 154.32 226.987 160.536C230.179 154.208 220.771 129.736 220.771 129.736Z" fill="black"/>
<path d="M215.955 129.121C231.523 128.561 237.459 151.52 238.747 162.328" stroke="black" stroke-width="1.2" stroke-miterlimit="10" stroke-linecap="round" stroke-linejoin="round"/>
<path d="M193.724 114.896C214.5 111.368 225.363 148.496 226.763 159.864" stroke="black" stroke-width="1.2" stroke-miterlimit="10" stroke-linecap="round" stroke-linejoin="round"/>
<path d="M276.826 242.686C276.77 242.574 276.77 242.462 276.714 242.406C269.826 241.902 222.059 237.086 199.939 276.51C200.051 276.678 200.219 276.846 200.331 277.014C203.859 281.998 208.227 290.005 210.523 295.549C210.523 295.549 271.954 291.965 272.626 291.517C272.738 291.461 273.13 291.013 273.69 290.285C273.802 290.117 273.914 290.005 274.082 289.837C274.978 288.717 276.266 287.094 277.61 285.414C277.778 285.19 278.002 284.91 278.17 284.686C278.562 284.182 278.954 283.678 279.346 283.174C282.538 279.142 285.618 275.11 285.618 275.11C282.93 264.47 279.962 253.662 276.826 242.686Z" fill="black"/>
<path d="M224.298 283.285C227.02 283.285 229.226 279.55 229.226 274.942C229.226 270.333 227.02 266.598 224.298 266.598C221.577 266.598 219.371 270.333 219.371 274.942C219.371 279.55 221.577 283.285 224.298 283.285Z" fill="white"/>
<path d="M205.54 169.552C211.532 168.208 219.875 166.976 229.787 167.76C236.563 168.264 242.387 169.608 246.979 171.008" stroke="black" stroke-width="1.2" stroke-miterlimit="10" stroke-linecap="round" stroke-linejoin="round"/>
<path d="M210.859 161.208C211.083 157.68 206.211 132.984 193.723 114.953C187.675 106.161 175.02 94.9609 169.252 103.697C165.612 111.761 175.859 120.832 180.395 133.096C190.531 160.536 189.355 170.616 188.347 182.935C187.507 188.591 183.251 188.367 180.675 185.287C174.292 177.559 163.876 159.528 150.772 156.84C150.436 156.784 145.06 156.952 144.22 163C143.716 166.64 146.404 172.464 149.708 181.423C155.98 198.391 164.66 218.551 166.788 223.423C177.203 246.886 193.891 268.95 200.275 277.014C203.803 281.998 208.171 290.005 210.467 295.549C210.467 295.549 271.898 291.965 272.57 291.517C273.242 291.069 285.618 275.11 285.618 275.11C280.018 253.494 273.634 231.094 266.242 208.079C262.378 195.927 258.402 184.055 254.314 172.52C252.97 168.32 243.842 144.24 234.938 146.76" stroke="black" stroke-width="1.2" stroke-miterlimit="10" stroke-linecap="round" stroke-linejoin="round"/>
</g>
<path d="M288.942 246L287.745 268.502C287.689 269.846 286.793 271.022 285.561 271.47C251.514 284.039 216.311 283.348 181 277.39" stroke="white" stroke-width="2" stroke-linecap="round" stroke-linejoin="round"/>
</svg>
