<svg width="368" height="298" viewBox="0 0 368 298" fill="none" xmlns="http://www.w3.org/2000/svg">
<path d="M41 152.371C42.7579 231.645 106.091 294.245 184.629 296C185.072 296.006 185.511 295.924 185.922 295.758C186.333 295.593 186.706 295.347 187.021 295.036C187.336 294.725 187.586 294.354 187.755 293.945C187.925 293.536 188.012 293.097 188.01 292.654V283.444C262.257 283.444 322.451 223.25 322.451 149C322.451 74.7499 262.264 14.5524 188.01 14.5597V5.34228C188.012 4.89962 187.925 4.46111 187.755 4.05237C187.585 3.64362 187.336 3.27285 187.021 2.96171C186.706 2.65056 186.332 2.4053 185.922 2.24024C185.511 2.07518 185.071 1.99364 184.629 2.00039C147.972 2.79953 112.945 17.3056 86.4562 42.6576C86.1394 42.966 85.8871 43.3342 85.7137 43.7409C85.5404 44.1476 85.4496 44.5847 85.4466 45.0267C85.4436 45.4688 85.5283 45.9071 85.696 46.3161C85.8638 46.7251 86.1111 47.0968 86.4236 47.4095L92.9479 53.9338C80.4473 66.4054 70.5342 81.2242 63.7784 97.5387C57.0226 113.853 53.557 131.342 53.581 149H44.3564C43.9134 148.999 43.4746 149.086 43.0657 149.256C42.6567 149.427 42.2858 149.677 41.9744 149.992C41.663 150.307 41.4174 150.681 41.252 151.092C41.0866 151.503 41.0046 151.942 41.0109 152.385" fill="#FF788F"/>
<path d="M41 152.371C42.7579 231.645 106.091 294.245 184.629 296C185.072 296.006 185.511 295.924 185.922 295.758C186.333 295.593 186.706 295.347 187.021 295.036C187.336 294.725 187.586 294.354 187.755 293.945C187.925 293.536 188.012 293.097 188.01 292.654V283.444C262.257 283.444 322.451 223.25 322.451 149C322.451 74.7499 262.264 14.5524 188.01 14.5597V5.34228C188.012 4.89962 187.925 4.46111 187.755 4.05237C187.585 3.64362 187.336 3.27285 187.021 2.96171C186.706 2.65056 186.332 2.4053 185.922 2.24024C185.511 2.07518 185.071 1.99364 184.629 2.00039C147.972 2.79953 112.945 17.3056 86.4562 42.6576C86.1394 42.966 85.8871 43.3342 85.7137 43.7409C85.5404 44.1476 85.4496 44.5847 85.4466 45.0267C85.4436 45.4688 85.5283 45.9071 85.696 46.3161C85.8638 46.7251 86.1111 47.0968 86.4236 47.4095L92.9479 53.9338C80.4473 66.4054 70.5342 81.2242 63.7784 97.5387C57.0226 113.853 53.557 131.342 53.581 149H44.3564C43.9134 148.999 43.4746 149.086 43.0657 149.256C42.6567 149.427 42.2858 149.677 41.9744 149.992C41.663 150.307 41.4174 150.681 41.252 151.092C41.0866 151.503 41.0046 151.942 41.0109 152.385" stroke="white" stroke-width="2" stroke-linecap="round" stroke-linejoin="round"/>
<path d="M327.185 75.9388V75.9062C327.105 75.6742 327.021 75.4495 326.924 75.2284L321.929 62.1798L317.384 70.3968L137.966 60.9365C134.898 60.7749 131.854 61.5599 129.248 63.1852C126.641 64.8106 124.596 67.1977 123.391 70.0234L57.6804 223.953L51.4498 221.358L55.8464 232.979C56.2983 234.458 57.1771 235.772 58.3726 236.754C59.5681 237.736 61.0271 238.343 62.5664 238.499L249.774 257.709C253.081 258.048 256.407 257.278 259.228 255.521C262.049 253.763 264.206 251.117 265.36 247.999L327.083 81.1039C327.7 79.4432 327.736 77.6224 327.185 75.9388V75.9388Z" fill="black" stroke="black" stroke-width="1.2" stroke-linecap="round" stroke-linejoin="round"/>
<path d="M315.97 85.7035L260.6 235.432C259.447 238.55 257.29 241.195 254.468 242.953C251.647 244.711 248.321 245.481 245.015 245.143L57.8108 225.932C56.5843 225.807 55.4044 225.395 54.3663 224.729C53.3282 224.064 52.461 223.164 51.8346 222.102C51.2082 221.04 50.8401 219.846 50.76 218.615C50.6799 217.385 50.8901 216.153 51.3735 215.019L111.723 73.6082L315.97 85.7035Z" fill="white" stroke="black" stroke-width="1.2" stroke-linecap="round" stroke-linejoin="round"/>
<path d="M322.32 68.5337L315.97 85.7034L111.723 73.6081L118.61 57.4423C119.819 54.621 121.865 52.239 124.472 50.6184C127.078 48.9977 130.12 48.2167 133.185 48.3808L315.354 57.9498C316.586 58.0134 317.785 58.3659 318.856 58.979C319.926 59.592 320.837 60.4483 321.516 61.4787C322.194 62.509 322.62 63.6845 322.76 64.9101C322.9 66.1357 322.749 67.377 322.32 68.5337V68.5337Z" fill="#FF788F" stroke="black" stroke-width="1.2" stroke-linecap="round" stroke-linejoin="round"/>
<path d="M133.643 66.815C137.02 66.6096 139.623 64.2418 139.458 61.5264C139.293 58.8109 136.422 56.7761 133.045 56.9814C129.668 57.1868 127.064 59.5546 127.229 62.27C127.394 64.9855 130.266 67.0203 133.643 66.815Z" fill="black" stroke="black" stroke-width="1.2"/>
<path d="M150.438 67.5411C153.818 67.3995 156.466 65.0812 156.352 62.3631C156.238 59.645 153.406 57.5564 150.026 57.6981C146.646 57.8397 143.998 60.158 144.112 62.8761C144.226 65.5942 147.058 67.6828 150.438 67.5411Z" stroke="white" stroke-width="1.2"/>
<path d="M173.997 63.967C174.133 61.2465 171.501 58.904 168.118 58.7348C164.735 58.5656 161.882 60.6339 161.746 63.3544C161.61 66.0749 164.243 68.4174 167.626 68.5866C171.009 68.7557 173.861 66.6874 173.997 63.967Z" stroke="white" stroke-width="1.2"/>
<path d="M170.174 198.867H170.083L85.9016 191.908C85.7588 191.896 85.6197 191.857 85.4922 191.791C85.3647 191.726 85.2514 191.636 85.1587 191.527C85.066 191.418 84.9957 191.291 84.9518 191.155C84.9079 191.018 84.8914 190.875 84.903 190.732C84.9147 190.589 84.9543 190.45 85.0198 190.323C85.0852 190.195 85.1751 190.082 85.2843 189.989C85.3936 189.896 85.52 189.826 85.6564 189.782C85.7928 189.738 85.9364 189.722 86.0792 189.733L170.264 196.693C170.553 196.705 170.825 196.831 171.02 197.043C171.215 197.256 171.318 197.537 171.306 197.825C171.294 198.114 171.168 198.385 170.956 198.581C170.743 198.776 170.462 198.879 170.174 198.867V198.867Z" fill="#FF788F"/>
<path d="M156.313 204.776H156.219L82.6141 198.686C82.4713 198.675 82.3322 198.635 82.2048 198.569C82.0773 198.504 81.964 198.414 81.8712 198.305C81.7785 198.196 81.7081 198.069 81.6643 197.933C81.6204 197.797 81.6038 197.653 81.6155 197.51C81.6272 197.367 81.6669 197.228 81.7323 197.101C81.7977 196.973 81.8876 196.86 81.9968 196.767C82.106 196.674 82.2324 196.604 82.3688 196.56C82.5052 196.516 82.6489 196.5 82.7917 196.511L156.4 202.597C156.689 202.609 156.961 202.734 157.156 202.946C157.352 203.158 157.456 203.44 157.444 203.728C157.433 204.016 157.307 204.288 157.095 204.484C156.883 204.68 156.602 204.783 156.313 204.772V204.776Z" fill="#FF788F"/>
<path d="M144.033 210.916H143.942L80.2943 205.653C80.0059 205.629 79.7389 205.491 79.5519 205.27C79.365 205.049 79.2735 204.763 79.2975 204.475C79.3216 204.186 79.4592 203.919 79.6801 203.732C79.901 203.545 80.1871 203.454 80.4755 203.478L144.12 208.741C144.408 208.752 144.68 208.878 144.876 209.09C145.072 209.302 145.175 209.583 145.164 209.872C145.152 210.16 145.027 210.432 144.815 210.628C144.603 210.824 144.321 210.927 144.033 210.916V210.916Z" fill="#FF788F"/>
<path d="M68.0323 114.573L69.6706 122.885L221.828 132.57L220.106 123.845L68.0323 114.573Z" fill="#FF788F" stroke="black" stroke-width="1.2" stroke-linecap="round" stroke-linejoin="round"/>
<path d="M233.354 95.0405L234.949 103.123L221.828 132.57L220.106 123.845L233.354 95.0405Z" fill="black" stroke="black" stroke-width="1.2" stroke-linecap="round" stroke-linejoin="round"/>
<path d="M233.354 95.0405L81.2657 86.3306L68.0323 114.574L220.106 123.845L233.354 95.0405Z" fill="white" stroke="black" stroke-width="1.2" stroke-linecap="round" stroke-linejoin="round"/>
<path d="M57.434 161.146L59.471 169.388L199.428 180.987L197.706 172.266L57.434 161.146Z" fill="#FF788F" stroke="black" stroke-width="1.2" stroke-linecap="round" stroke-linejoin="round"/>
<path d="M210.954 143.461L212.549 151.541L199.428 180.987L197.706 172.266L210.954 143.461Z" fill="black" stroke="black" stroke-width="1.2" stroke-linecap="round" stroke-linejoin="round"/>
<path d="M210.954 143.462L70.7254 134.77L57.434 161.146L197.706 172.266L210.954 143.462Z" fill="white" stroke="black" stroke-width="1.2" stroke-linecap="round" stroke-linejoin="round"/>
<path d="M217.203 103.283H217.152L146.578 99.1726C146.468 99.1699 146.361 99.1452 146.261 99.1001C146.161 99.0549 146.072 98.9902 145.998 98.9097C145.924 98.8292 145.867 98.7347 145.83 98.6317C145.793 98.5287 145.777 98.4193 145.784 98.3101C145.79 98.201 145.818 98.0941 145.867 97.9961C145.915 97.898 145.983 97.8107 146.066 97.7393C146.148 97.6679 146.245 97.614 146.349 97.5806C146.453 97.5473 146.563 97.5352 146.672 97.5451L217.25 101.655C217.357 101.659 217.463 101.683 217.561 101.727C217.658 101.77 217.747 101.833 217.82 101.911C217.894 101.989 217.951 102.081 217.989 102.181C218.027 102.281 218.045 102.387 218.042 102.495C218.039 102.602 218.015 102.707 217.971 102.805C217.927 102.903 217.865 102.991 217.787 103.064C217.709 103.138 217.617 103.195 217.517 103.233C217.417 103.272 217.31 103.29 217.203 103.287V103.283Z" fill="#FF788F"/>
<path d="M192.15 106.755H192.095L144.878 103.714C144.664 103.697 144.467 103.596 144.327 103.434C144.187 103.272 144.116 103.062 144.13 102.849C144.144 102.635 144.241 102.436 144.401 102.293C144.56 102.151 144.769 102.076 144.983 102.087L192.201 105.142C192.417 105.149 192.622 105.241 192.77 105.399C192.918 105.557 192.997 105.767 192.991 105.983C192.984 106.199 192.892 106.404 192.734 106.552C192.576 106.7 192.366 106.78 192.15 106.773V106.755Z" fill="#FF788F"/>
<path d="M194.495 151.374H194.448L129.734 147.604C129.518 147.592 129.315 147.494 129.171 147.332C129.027 147.17 128.953 146.958 128.966 146.742C128.978 146.525 129.076 146.323 129.238 146.179C129.4 146.035 129.612 145.961 129.828 145.973L194.542 149.743C194.758 149.749 194.963 149.841 195.112 149.998C195.26 150.156 195.34 150.366 195.334 150.582C195.328 150.798 195.236 151.003 195.079 151.152C194.921 151.3 194.711 151.38 194.495 151.374Z" fill="#FF788F"/>
<path d="M175.368 155.397H175.314L128.096 152.353C127.988 152.348 127.882 152.321 127.784 152.274C127.686 152.228 127.599 152.162 127.526 152.082C127.454 152.001 127.399 151.907 127.364 151.804C127.328 151.702 127.314 151.594 127.321 151.486C127.328 151.378 127.356 151.272 127.404 151.175C127.452 151.078 127.52 150.992 127.601 150.921C127.683 150.85 127.779 150.797 127.881 150.763C127.984 150.729 128.093 150.717 128.201 150.725L175.419 153.766C175.526 153.77 175.631 153.794 175.729 153.838C175.826 153.882 175.914 153.945 175.988 154.023C176.061 154.101 176.119 154.193 176.156 154.293C176.194 154.394 176.212 154.5 176.209 154.607C176.205 154.714 176.181 154.82 176.137 154.917C176.093 155.015 176.03 155.103 175.952 155.177C175.874 155.25 175.782 155.307 175.682 155.345C175.582 155.383 175.475 155.401 175.368 155.397Z" fill="#FF788F"/>
<path d="M80.2073 102.413L81.9906 98.56C82.0747 98.3791 82.2254 98.2376 82.4111 98.1649L95.9273 93.0107C96.0694 92.9571 96.2241 92.947 96.372 92.9816C96.5198 93.0163 96.6539 93.0942 96.7573 93.2054C96.8608 93.3165 96.9287 93.456 96.9526 93.6059C96.9764 93.7559 96.9552 93.9095 96.8914 94.0473L95.4416 97.15C95.399 97.2441 95.3374 97.3285 95.2607 97.3977C95.184 97.4669 95.0938 97.5196 94.9957 97.5523L85.26 100.869L85.5029 100.63L85.2274 101.224V100.956L91.045 105.189C91.1886 105.294 91.2916 105.445 91.3365 105.617C91.3815 105.788 91.3656 105.97 91.2914 106.132L89.6132 109.756C89.5642 109.863 89.4912 109.957 89.3999 110.031C89.3086 110.105 89.2016 110.157 89.0869 110.183C88.9723 110.209 88.8531 110.209 88.7389 110.181C88.6246 110.153 88.5182 110.1 88.4279 110.025L80.4031 103.33C80.2722 103.221 80.1818 103.072 80.1463 102.905C80.1108 102.739 80.1323 102.566 80.2073 102.413V102.413Z" fill="#FF788F"/>
<path d="M94.7964 111.438C94.5291 111.44 94.2674 111.361 94.0451 111.213C93.8229 111.064 93.6503 110.852 93.5496 110.605C93.447 110.312 93.4082 110.001 93.4357 109.692C93.4632 109.383 93.5564 109.084 93.7091 108.814C94.025 108.131 94.5277 107.552 95.1589 107.143C95.7097 106.73 96.3846 106.517 97.0727 106.538C97.3334 106.543 97.5871 106.624 97.8027 106.771C98.0183 106.917 98.1865 107.124 98.287 107.364C98.3965 107.65 98.4422 107.956 98.4209 108.26C98.3996 108.565 98.3118 108.862 98.1637 109.129C97.9451 109.588 97.6413 110.002 97.2684 110.347C96.9089 110.693 96.4934 110.974 96.0397 111.181C95.6533 111.369 95.2259 111.458 94.7964 111.438V111.438Z" fill="#FF788F"/>
<path d="M102.151 111.964C101.883 111.966 101.621 111.887 101.399 111.739C101.177 111.59 101.004 111.378 100.904 111.13C100.8 110.838 100.761 110.528 100.788 110.219C100.816 109.911 100.91 109.612 101.063 109.343C101.38 108.66 101.883 108.08 102.513 107.669C103.064 107.256 103.739 107.044 104.427 107.067C104.688 107.071 104.942 107.151 105.158 107.298C105.374 107.445 105.542 107.652 105.641 107.893C105.751 108.179 105.798 108.485 105.778 108.79C105.758 109.096 105.672 109.393 105.525 109.662C105.305 110.12 105.001 110.533 104.63 110.88C104.27 111.224 103.855 111.505 103.401 111.71C103.013 111.9 102.582 111.987 102.151 111.964Z" fill="#FF788F"/>
<path d="M109.512 112.493C109.245 112.495 108.983 112.417 108.761 112.268C108.538 112.119 108.366 111.907 108.266 111.659C108.161 111.367 108.121 111.056 108.148 110.747C108.176 110.437 108.27 110.138 108.425 109.869C108.742 109.186 109.244 108.606 109.875 108.194C110.426 107.782 111.101 107.569 111.789 107.593C112.049 107.598 112.303 107.679 112.519 107.825C112.734 107.972 112.902 108.178 113.003 108.419C113.113 108.705 113.16 109.011 113.14 109.316C113.12 109.622 113.033 109.919 112.887 110.188C112.668 110.647 112.364 111.06 111.992 111.406C111.631 111.75 111.216 112.032 110.763 112.239C110.374 112.428 109.944 112.515 109.512 112.493V112.493Z" fill="#FF788F"/>
<path d="M130.702 106.712L117.186 111.866C117.043 111.921 116.888 111.931 116.74 111.897C116.591 111.863 116.456 111.785 116.352 111.674C116.248 111.563 116.18 111.423 116.156 111.272C116.132 111.122 116.154 110.967 116.218 110.829L117.668 107.737C117.712 107.644 117.774 107.559 117.851 107.49C117.929 107.421 118.019 107.368 118.117 107.335L127.856 104.011L127.617 104.258L127.893 103.663V103.921L122.057 99.7053C121.913 99.6009 121.81 99.45 121.766 99.2781C121.721 99.1063 121.737 98.9243 121.811 98.7629L123.492 95.1383C123.541 95.0315 123.614 94.9374 123.705 94.8634C123.796 94.7893 123.902 94.7372 124.017 94.7113C124.131 94.6853 124.25 94.6861 124.364 94.7137C124.478 94.7412 124.584 94.7947 124.674 94.8701L132.703 101.568C132.833 101.676 132.923 101.824 132.96 101.989C132.996 102.153 132.977 102.325 132.906 102.478L131.122 106.327C131.036 106.504 130.886 106.642 130.702 106.712V106.712Z" fill="#FF788F"/>
<path d="M71.3742 149.754L72.9872 146.267C73.0626 146.101 73.2007 145.97 73.3714 145.905L85.6008 141.243C85.7291 141.195 85.8687 141.186 86.0021 141.217C86.1356 141.249 86.2567 141.319 86.3503 141.419C86.4438 141.519 86.5055 141.645 86.5276 141.78C86.5497 141.915 86.5312 142.054 86.4743 142.179L85.1767 144.988C85.137 145.072 85.0806 145.148 85.0109 145.21C84.9411 145.273 84.8594 145.32 84.7708 145.35L75.963 148.351L76.1805 148.134L75.9303 148.674V148.431L81.1896 152.262C81.3201 152.356 81.4137 152.493 81.454 152.648C81.4944 152.804 81.4791 152.969 81.4108 153.114L79.8957 156.376C79.8515 156.475 79.7848 156.562 79.7008 156.631C79.6169 156.699 79.518 156.747 79.4123 156.77C79.3065 156.793 79.1968 156.791 79.0919 156.765C78.987 156.738 78.8899 156.687 78.8083 156.615L71.5591 150.555C71.4472 150.459 71.369 150.329 71.3358 150.185C71.3025 150.041 71.316 149.89 71.3742 149.754V149.754Z" fill="#FF788F"/>
<path d="M84.5787 157.924C84.3365 157.925 84.0994 157.854 83.8979 157.72C83.6964 157.585 83.5396 157.394 83.4478 157.17C83.3549 156.905 83.3198 156.623 83.3448 156.344C83.3698 156.065 83.4544 155.794 83.5928 155.55C83.8781 154.932 84.3315 154.407 84.9013 154.035C85.3988 153.662 86.0088 153.47 86.6302 153.491C86.8644 153.496 87.0919 153.57 87.285 153.702C87.4781 153.835 87.6283 154.021 87.7176 154.237C87.8181 154.496 87.8608 154.773 87.8426 155.05C87.8245 155.327 87.7459 155.596 87.6125 155.84C87.413 156.249 87.1389 156.618 86.8042 156.927C86.4778 157.237 86.1033 157.491 85.6951 157.681C85.3488 157.853 84.9652 157.936 84.5787 157.924V157.924Z" fill="#FF788F"/>
<path d="M91.2371 158.402C90.9946 158.403 90.7574 158.331 90.556 158.196C90.3545 158.061 90.1979 157.869 90.1062 157.645C90.0134 157.381 89.9782 157.1 90.0032 156.821C90.0283 156.542 90.1128 156.272 90.2512 156.028C90.5365 155.41 90.99 154.885 91.5597 154.513C92.0561 154.138 92.6666 153.944 93.2887 153.966C93.5229 153.973 93.75 154.048 93.9429 154.181C94.1358 154.314 94.2862 154.5 94.376 154.716C94.4765 154.974 94.5192 155.251 94.501 155.527C94.4828 155.803 94.4043 156.072 94.2709 156.314C94.0722 156.725 93.798 157.093 93.4626 157.402C93.1375 157.713 92.7626 157.968 92.3535 158.156C92.008 158.331 91.624 158.415 91.2371 158.402Z" fill="#FF788F"/>
<path d="M97.8919 158.877C97.6503 158.878 97.414 158.806 97.2132 158.672C97.0124 158.538 96.8562 158.347 96.7646 158.123C96.6716 157.858 96.6366 157.577 96.6616 157.297C96.6866 157.018 96.7711 156.747 96.9096 156.503C97.1949 155.885 97.6483 155.36 98.2181 154.988C98.7156 154.615 99.3256 154.423 99.947 154.444C100.181 154.45 100.409 154.523 100.602 154.656C100.795 154.788 100.945 154.974 101.034 155.191C101.135 155.449 101.178 155.727 101.159 156.004C101.141 156.28 101.063 156.55 100.929 156.793C100.73 157.202 100.456 157.571 100.121 157.88C99.7949 158.19 99.4203 158.445 99.0119 158.634C98.6644 158.807 98.2795 158.89 97.8919 158.877V158.877Z" fill="#FF788F"/>
<path d="M117.07 153.647L104.84 158.308C104.712 158.357 104.572 158.367 104.437 158.336C104.303 158.305 104.181 158.235 104.087 158.135C103.993 158.035 103.931 157.909 103.909 157.773C103.887 157.637 103.906 157.498 103.963 157.373L105.261 154.575C105.301 154.49 105.357 154.414 105.427 154.352C105.496 154.29 105.578 154.242 105.667 154.212L114.478 151.204L114.261 151.432L114.511 150.892V151.124L109.241 147.3C109.117 147.204 109.03 147.069 108.993 146.917C108.956 146.765 108.972 146.605 109.038 146.463L110.56 143.175C110.604 143.076 110.671 142.989 110.755 142.921C110.839 142.852 110.937 142.805 111.043 142.781C111.149 142.758 111.259 142.76 111.364 142.787C111.468 142.814 111.566 142.865 111.647 142.936L118.896 148.996C119.013 149.094 119.094 149.228 119.128 149.376C119.161 149.525 119.145 149.681 119.081 149.819L117.465 153.306C117.383 153.467 117.241 153.589 117.07 153.647V153.647Z" fill="#FF788F"/>
<path d="M288.626 152.24V172.27L286.788 174.891L275.356 167.645L288.626 152.24Z" fill="black" stroke="black" stroke-width="1.2" stroke-linecap="round" stroke-linejoin="round"/>
<path d="M270.844 211.329V231.355L296.035 200.774V180.744L270.844 211.329Z" fill="black" stroke="black" stroke-width="1.2" stroke-linecap="round" stroke-linejoin="round"/>
<path d="M249.799 197.312V217.342L235.493 233.95V213.92L249.799 197.312Z" fill="black" stroke="black" stroke-width="1.2" stroke-linecap="round" stroke-linejoin="round"/>
<path d="M191.385 133.689V149.562L235.493 233.95V213.92L191.385 133.689Z" fill="#FF788F"/>
<path d="M194.981 157.732L194.325 138.228L191.28 130.261V150.29L194.981 157.732Z" fill="white"/>
<path d="M191.385 133.689V149.562L235.493 233.95V213.92L191.385 133.689Z" stroke="black" stroke-width="1.2" stroke-linecap="round" stroke-linejoin="round"/>
<path d="M249.799 197.312V217.342L270.844 231.355V211.329L249.799 197.312Z" fill="#FF788F" stroke="black" stroke-width="1.2" stroke-linecap="round" stroke-linejoin="round"/>
<path d="M288.626 152.24V172.27L286.788 174.891" stroke="#FF788F" stroke-width="1.2" stroke-linecap="round" stroke-linejoin="round"/>
<path d="M191.385 133.689L235.493 213.92L249.799 197.312L270.844 211.329L296.035 180.744L275.356 167.645L288.626 152.24L191.385 133.689Z" fill="white" stroke="black" stroke-width="1.2" stroke-linecap="round" stroke-linejoin="round"/>
</svg>
