<svg width="368" height="298" viewBox="0 0 368 298" fill="none" xmlns="http://www.w3.org/2000/svg">
<path d="M325.119 129.321C320.835 161.872 303.207 191.854 280.62 215.704L280.349 220.889L278.14 263.584C278.095 264.801 277.283 265.883 276.156 266.289C243.47 278.327 209.611 276.974 175.752 270.707L137.836 287.84C136.799 288.291 135.581 288.155 134.68 287.434C114.166 270.798 98.3863 247.714 88.8283 223.008C87.3856 219.311 86.1232 215.614 84.9961 211.872L44.3294 183.513C43.3826 182.882 42.8867 181.755 43.022 180.628C47.305 148.076 64.9333 118.095 87.5208 94.245C87.5208 94.245 89.5046 55.6523 89.9554 46.3648C90.0005 45.1475 90.812 44.1105 91.9391 43.6597C124.671 31.622 158.53 32.9745 192.388 39.2864L230.305 22.1541C231.342 21.7033 232.559 21.8386 233.461 22.5599C256.995 41.721 274.353 69.2679 283.144 98.0772L323.811 126.436C324.758 127.067 325.254 128.194 325.119 129.321Z" fill="#FF642D" stroke="white" stroke-width="2" stroke-linecap="round" stroke-linejoin="round"/>
<path d="M156.14 223.909C156.14 223.909 161.099 210.519 162.497 202.223C163.94 193.928 164.21 191.899 164.21 191.899C164.21 191.899 188.556 194.965 202.578 194.018C216.599 193.071 233.235 189.149 233.235 189.149C233.235 189.149 236.482 195.957 236.977 203.35C237.564 212.052 236.031 218.228 236.031 218.228" stroke="white" stroke-width="1.2" stroke-miterlimit="10" stroke-linecap="round" stroke-linejoin="round"/>
<path d="M93.2017 224.901L280.317 223.413" stroke="black" stroke-width="1.2" stroke-miterlimit="10" stroke-linecap="round" stroke-linejoin="round"/>
<path d="M325.119 129.321C320.835 161.872 303.207 191.854 280.62 215.704L280.349 220.888L278.14 263.584C278.095 264.801 277.283 265.883 276.156 266.289C243.47 278.327 209.611 276.974 175.752 270.707L137.836 287.839C136.799 288.29 135.581 288.155 134.68 287.434C114.166 270.797 98.3863 247.714 88.8283 223.007C87.3856 219.31 86.1232 215.613 84.9961 211.871L44.3294 183.513C43.3826 182.882 42.8867 181.755 43.022 180.627C47.305 148.076 64.9333 118.095 87.5208 94.2447C87.5208 94.2447 89.5046 55.652 89.9554 46.3645C90.0005 45.1472 90.812 44.1103 91.9391 43.6594C124.671 31.6217 158.53 32.9743 192.388 39.2862L230.305 22.1539C231.342 21.7031 232.559 21.8383 233.461 22.5597C256.995 41.7208 274.353 69.2677 283.144 98.077L323.811 126.435C324.758 127.067 325.254 128.194 325.119 129.321Z" stroke="white" stroke-width="2" stroke-linecap="round" stroke-linejoin="round"/>
<path d="M83.1934 165.795C85.2673 162.098 114.618 124.497 122.057 115.841C129.496 107.184 143.607 94.2448 149.603 88.9699C155.6 83.695 180.261 71.3417 202.578 71.7925C224.895 72.2434 237.79 75.6248 251.541 86.9862C265.291 98.3476 296.22 125.534 300.548 138.563C304.831 151.593 306.679 156.958 304.606 169.311C302.532 181.665 289.367 215.253 276.743 215.163C265.562 215.027 252.668 201.186 249.241 173.234C245.815 145.281 252.397 138.563 252.397 138.563L219.44 129.456L158.17 148.212C158.17 148.212 146.943 171.115 135.582 191.989L83.1934 165.795Z" fill="white" stroke="black" stroke-width="1.2" stroke-miterlimit="10" stroke-linecap="round" stroke-linejoin="round"/>
<path d="M144.689 224.315C148.07 216.425 156.546 195.686 156.411 186.263C156.231 174.496 154.067 142.982 154.292 141.809C154.517 140.682 148.251 126.345 148.206 109.754C148.206 93.1628 149.603 88.9699 149.603 88.9699L159.251 82.9736C159.251 82.9736 156.456 99.4747 157.628 110.611C158.755 121.792 160.604 127.608 160.604 127.608C160.604 127.608 177.736 129.817 189.864 128.104C201.992 126.39 219.485 122.964 219.485 122.964C219.485 122.964 218.358 105.787 219.485 93.7489C220.477 83.5147 220.837 75.715 220.928 73.641C220.928 73.3705 221.198 73.1451 221.469 73.2353L229.9 75.219C229.9 75.219 228.637 84.0106 228.367 98.9337C228.096 113.812 227.781 124.407 230.08 128.735C232.379 133.063 249.827 153.261 249.827 153.261C249.827 153.261 254.696 189.96 255.282 202.313C255.688 210.88 255.643 218.995 255.598 223.188" fill="#FF642D"/>
<path d="M144.689 224.315C148.07 216.425 156.546 195.686 156.411 186.263C156.231 174.496 154.067 142.982 154.292 141.809C154.517 140.682 148.251 126.345 148.206 109.754C148.206 93.1628 149.603 88.9699 149.603 88.9699L159.251 82.9736C159.251 82.9736 156.456 99.4747 157.628 110.611C158.755 121.792 160.604 127.608 160.604 127.608C160.604 127.608 177.736 129.817 189.864 128.104C201.992 126.39 219.485 122.964 219.485 122.964C219.485 122.964 218.358 105.787 219.485 93.7489C220.477 83.5147 220.837 75.715 220.928 73.641C220.928 73.3705 221.198 73.1451 221.469 73.2353L229.9 75.219C229.9 75.219 228.637 84.0106 228.367 98.9337C228.096 113.812 227.781 124.407 230.08 128.735C232.379 133.063 249.827 153.261 249.827 153.261C249.827 153.261 254.696 189.96 255.282 202.313C255.688 210.88 255.643 218.995 255.598 223.188" stroke="black" stroke-width="1.2" stroke-miterlimit="10" stroke-linecap="round" stroke-linejoin="round"/>
<path d="M285.669 144.92C284.813 144.424 271.648 135.182 258.754 135.272C253.479 135.317 248.429 137.436 248.429 137.436" stroke="black" stroke-width="1.2" stroke-miterlimit="10" stroke-linecap="round" stroke-linejoin="round"/>
<path d="M164.21 93.0726C165.067 92.8472 168.223 96.6343 169.666 99.8804C171.108 103.127 174.535 108.537 180.261 107.41C185.986 106.282 194.868 96.2285 197.168 86.941C199.467 77.6535 197.979 76.2559 194.598 73.7762C191.848 71.7474 188.962 69.7186 186.573 65.4806C184.318 61.5131 180.261 52.0453 180.261 52.0453L166.239 71.7474L164.21 93.0726Z" fill="#FF642D" stroke="black" stroke-width="1.2" stroke-miterlimit="10" stroke-linecap="round" stroke-linejoin="round"/>
<path d="M279.177 141.359C279.177 141.359 286.797 150.015 289.096 166.426C291.395 182.792 291.395 185.181 291.395 185.181" stroke="black" stroke-width="1.2" stroke-miterlimit="10" stroke-linecap="round" stroke-linejoin="round"/>
<path d="M176.653 65.8413C179.539 64.624 181.117 52.8118 179.809 47.8524C178.502 42.8931 141.757 35.3188 137.294 45.508C137.294 45.508 131.298 53.6684 132.786 61.1976C134.273 68.7268 137.925 79.457 145.229 86.9862C152.939 94.9211 160.378 98.8886 166.194 95.6425C170.747 93.1177 173.497 89.6011 175.842 83.199" fill="#FF642D"/>
<path d="M169.259 93.5235C168.899 93.7489 166.599 95.372 166.194 95.5974C160.378 98.7984 152.939 94.876 145.229 86.9411C137.925 79.4119 134.427 69.9477 132.939 62.4185C132.128 58.2707 133.372 52.7216 134.86 49.6558C140.946 46.545 138.061 48.664 136.888 54.1643C135.581 60.341 137.61 71.4769 145.59 82.8834C153.615 94.2448 161.37 96.6794 169.259 93.5235Z" fill="white"/>
<path d="M176.653 65.8413C179.539 64.624 181.117 52.8118 179.809 47.8524C178.502 42.8931 141.757 35.3188 137.294 45.508C137.294 45.508 131.298 53.6684 132.786 61.1976C134.273 68.7268 137.925 79.457 145.229 86.9862C152.939 94.9211 160.378 98.8886 166.194 95.6425C170.747 93.1177 173.497 89.6011 175.842 83.199" stroke="black" stroke-width="1.2" stroke-miterlimit="10" stroke-linecap="round" stroke-linejoin="round"/>
<path d="M157.222 86.9861C162.587 87.7526 164.21 80.8997 164.21 80.8997" stroke="black" stroke-width="1.2" stroke-miterlimit="10" stroke-linecap="round" stroke-linejoin="round"/>
<path d="M176.429 93.4333C175.662 97.9869 173.634 100.737 170.072 100.737L166.781 95.2367C166.781 95.2367 171.695 91.4946 172.912 89.2855C174.175 87.0763 176.519 83.1539 176.519 83.1539C176.519 83.1539 176.925 90.5028 176.429 93.4333Z" fill="black"/>
<path d="M133.733 66.5627C133.733 66.6078 126.475 65.3454 126.475 57.5908C126.475 48.5287 127.827 42.3972 133.553 32.6588C139.279 22.9205 150.46 19.494 153.976 13.5428C157.493 7.59157 156.952 2.09121 157.899 2.00104C158.846 1.91087 161.821 7.72682 162.092 12.1001C162.362 16.4733 161.28 18.8628 161.28 18.8628C161.28 18.8628 166.014 18.5021 166.781 11.6041C166.871 10.8377 181.163 21.4326 184.95 36.4459C186.573 42.8029 184.319 54.5701 184.319 57.5006C184.319 59.5294 184.409 61.5132 184.409 61.5132C184.409 61.5132 179.855 61.964 179.72 58.222C179.54 53.3528 175.482 48.8443 172.732 52.9921C169.982 57.1399 170.838 59.8901 170.838 59.8901C170.838 59.8901 168.584 52.7667 164.166 50.6026C158.891 48.0328 153.616 48.2131 148.16 49.2501C142.705 50.287 138.693 50.1518 138.693 50.1518C138.693 50.1518 134.455 55.1562 133.688 60.1606C133.237 63.3166 133.733 66.5627 133.733 66.5627Z" fill="black" stroke="black" stroke-width="1.2" stroke-miterlimit="10" stroke-linecap="round" stroke-linejoin="round"/>
<path d="M148.881 70.6654C148.385 72.6041 144.958 79.0512 147.754 80.6743C150.369 82.2072 153.885 75.76 153.885 75.76" stroke="black" stroke-width="1.2" stroke-miterlimit="10" stroke-linecap="round" stroke-linejoin="round"/>
<path d="M214.796 202.674C215.066 202.674 231.883 200.781 236.211 198.436" stroke="white" stroke-width="1.2" stroke-miterlimit="10" stroke-linecap="round" stroke-linejoin="round"/>
<path d="M209.205 203.215C209.476 203.215 191.171 203.711 180.937 202.629C172.957 201.818 162.813 200.51 162.813 200.51" stroke="white" stroke-width="1.2" stroke-miterlimit="10" stroke-linecap="round" stroke-linejoin="round"/>
<path d="M83.1935 165.795C81.9311 168.094 80.4884 170.574 79.1809 172.783C75.7545 178.509 73.1846 188.247 74.8979 210.023C76.6111 231.799 80.8942 244.378 91.4891 246.948C102.084 249.517 106.097 237.48 118.991 219.761C123.454 213.585 129.586 203.035 135.627 191.944L83.1935 165.795Z" fill="white" stroke="black" stroke-width="1.2" stroke-miterlimit="10" stroke-linecap="round" stroke-linejoin="round"/>
<path d="M106.322 238.336C101.588 244.964 97.6203 248.435 91.4437 246.948C80.8487 244.378 76.5657 231.754 74.8524 210.023C73.1392 188.247 75.7091 178.509 79.1355 172.783C79.2708 172.512 79.4511 172.287 79.5864 172.016C89.4149 170.033 101.092 186.173 105.736 208.129C108.215 219.536 108.26 230.356 106.322 238.336Z" fill="black" stroke="black" stroke-width="1.2" stroke-miterlimit="10" stroke-linecap="round" stroke-linejoin="round"/>
<path d="M274.262 214.892C263.713 212.909 252.441 199.067 249.24 173.234C245.814 145.326 252.396 138.563 252.396 138.563L250.277 137.977C250.954 137.391 251.72 137.031 252.532 136.85C260.016 135.272 269.934 152.314 274.758 174.947C278.455 192.26 278.05 207.814 274.262 214.892Z" fill="black"/>
<path d="M250.391 169.041C251.563 169.176 272.663 173.234 274.151 174.947C275.639 176.66 268.154 143.974 257.559 139.195C246.965 134.416 246.153 168.455 250.391 169.041Z" fill="#FF642D" stroke="black" stroke-width="1.2" stroke-miterlimit="10" stroke-linecap="round" stroke-linejoin="round"/>
<path d="M274.262 214.892C263.713 212.909 252.441 199.067 249.24 173.234C245.814 145.326 252.396 138.563 252.396 138.563L250.277 137.977C250.954 137.391 251.72 137.031 252.532 136.85C260.016 135.272 269.934 152.314 274.758 174.947C278.455 192.26 278.05 207.814 274.262 214.892Z" stroke="black" stroke-width="1.2" stroke-miterlimit="10" stroke-linecap="round" stroke-linejoin="round"/>
<path d="M92.1649 202.674C93.2469 203.801 95.5463 206.642 101.633 206.597C107.674 206.551 107.629 201.006 106.772 199.518C105.916 198.03 88.2876 193.522 88.2876 195.641C88.3327 197.76 92.1649 202.674 92.1649 202.674Z" fill="#FF642D" stroke="black" stroke-width="1.2" stroke-miterlimit="10" stroke-linecap="round" stroke-linejoin="round"/>
<path d="M90.9924 157.995C84.6805 158.04 74.5815 155.876 70.4788 154.704C66.376 153.532 59.974 156.237 62.3184 163.27C64.6628 170.303 74.311 168.996 74.311 168.996L90.9924 157.995Z" fill="#FF642D"/>
<path d="M74.311 168.951C77.5571 169.537 64.753 170.213 62.4086 163.27C60.2445 156.778 65.6096 153.982 69.6221 154.569C63.6258 158.987 68.2696 167.869 74.311 168.951Z" fill="white"/>
<path d="M90.9924 157.995C84.6805 158.04 74.5815 155.876 70.4788 154.704C66.376 153.532 59.974 156.237 62.3184 163.27C64.6628 170.303 74.311 168.996 74.311 168.996L90.9924 157.995Z" stroke="black" stroke-width="1.2" stroke-miterlimit="10" stroke-linecap="round" stroke-linejoin="round"/>
<path d="M71.3357 186.579C70.8848 191.719 70.8848 193.883 72.6431 197.535C74.3563 201.186 85.312 206.957 89.4147 206.552C93.5175 206.146 95.2307 205.47 95.0053 201.953C94.7798 198.436 88.3327 192.395 88.3327 192.395L71.3357 186.579Z" fill="#FF642D"/>
<path d="M87.6569 206.461C82.8328 205.65 74.1314 200.781 72.5985 197.535C71.7419 195.776 71.3361 194.333 71.1558 192.755C73.0042 193.251 74.5371 193.747 76.3856 195.01C78.8653 196.723 83.1484 203.305 87.6569 206.461Z" fill="white"/>
<path d="M71.3357 186.579C70.8848 191.719 70.8848 193.883 72.6431 197.535C74.3563 201.186 85.312 206.957 89.4147 206.552C93.5175 206.146 95.2307 205.47 95.0053 201.953C94.7798 198.436 88.3327 192.395 88.3327 192.395L71.3357 186.579Z" stroke="black" stroke-width="1.2" stroke-miterlimit="10" stroke-linecap="round" stroke-linejoin="round"/>
<path d="M144.061 158.184L144.197 159.133L112.168 153.443C112.168 153.443 90.8763 168.028 76.4861 178.053L63.6748 173.718V187.265L92.7258 198.373C102.785 202.211 114.108 200.27 122.273 193.271L158.993 161.752V148.205L144.061 158.184Z" fill="black"/>
<mask id="mask0" mask-type="alpha" maskUnits="userSpaceOnUse" x="64" y="148" width="96" height="53">
<path d="M144.689 157.995L144.824 158.942L112.814 153.261C112.814 153.261 91.5339 167.824 77.1518 177.832L64.3477 173.504V187.03L93.3824 198.121C103.436 201.953 114.753 200.014 122.913 193.026L159.612 161.557V148.031L144.689 157.995Z" fill="black"/>
</mask>
<g mask="url(#mask0)">
<path d="M89.3705 171.836H60.2456V206.552H89.3705V171.836Z" fill="#FF642D"/>
<path d="M97.2147 171.836H93.2021V207.994H97.2147V171.836Z" fill="#FF642D"/>
<path d="M101.047 170.078H99.0186V207.994H101.047V170.078Z" fill="#FF642D"/>
<path d="M144.689 157.995L144.824 158.942L112.814 153.261C112.814 153.261 91.5339 167.824 77.1518 177.832L64.3477 173.504V187.03L93.3824 198.121C103.436 201.953 114.753 200.014 122.913 193.026L159.612 161.557V148.031L144.689 157.995Z" stroke="black" stroke-width="1.2" stroke-miterlimit="10" stroke-linecap="round" stroke-linejoin="round"/>
</g>
<path d="M211.774 106.328C196.581 102.901 189.728 122.919 187.879 128.374C187.158 130.493 185.896 132.161 184.272 133.649C185.941 135.498 187.879 137.256 188.33 139.736C189.277 139.195 190.269 138.654 191.306 138.067C199.556 133.379 221.152 135.272 224.308 133.514C227.509 131.71 226.923 109.754 211.774 106.328ZM217.725 126.931C212.946 129.411 204.966 129.456 200.187 128.374C196.31 127.472 194.507 123.505 198.294 118.906C202.081 114.308 208.167 110.34 212.946 113.181C217.68 116.021 222.505 124.452 217.725 126.931Z" fill="black" stroke="black" stroke-width="1.2" stroke-miterlimit="10" stroke-linecap="round" stroke-linejoin="round"/>
<path d="M184.273 133.649C181.748 135.993 178.367 137.842 175.031 140.141C169.53 143.838 107.674 206.551 107.674 206.551C131.343 202.494 141.307 194.829 151.226 187.12C161.145 179.41 170.793 157.048 175.031 150.736C178.728 145.236 182.109 143.252 188.376 139.736C187.88 137.256 185.986 135.498 184.273 133.649Z" fill="#FF642D"/>
<path d="M184.273 133.649C181.748 135.993 178.367 137.842 175.031 140.141C169.53 143.838 107.674 206.551 107.674 206.551C131.343 202.494 141.307 194.829 151.226 187.12C161.145 179.41 170.793 157.048 175.031 150.736C178.728 145.236 182.109 143.252 188.376 139.736C187.88 137.256 185.986 135.498 184.273 133.649Z" stroke="black" stroke-width="1.2" stroke-miterlimit="10" stroke-linecap="round" stroke-linejoin="round"/>
<path d="M231.477 151.277C223.497 147.265 202.983 151.367 188.872 146.138C189.232 148.662 187.79 151.097 186.031 153.081C191.171 156.146 195.95 159.302 198.249 161.512C203.164 166.2 204.787 179.591 221.513 177.922C238.24 176.254 239.998 155.605 231.477 151.277ZM205.733 161.512C205.463 156.462 206.004 154.433 212.586 154.749C219.169 155.019 228.05 155.109 228.05 159.077C228.096 163.044 205.733 161.512 205.733 161.512Z" fill="black" stroke="black" stroke-width="1.2" stroke-miterlimit="10" stroke-linecap="round" stroke-linejoin="round"/>
<path d="M188.872 146.138C187.88 145.777 186.933 145.371 185.986 144.875C171.965 137.797 154.021 123.505 132.561 122.062C111.1 120.619 87.4756 133.469 87.4756 133.469C87.4756 133.469 162.497 141.629 169.756 144.83C173.633 146.543 180.215 149.609 186.076 153.081C187.745 151.097 189.232 148.662 188.872 146.138Z" fill="#FF642D"/>
<path d="M122.416 122.333C114.977 125.849 102.354 130.899 93.8777 134.19C89.8651 133.739 87.4756 133.469 87.4756 133.469C87.4756 133.469 104.247 124.316 122.416 122.333Z" fill="white"/>
<path d="M134.635 122.243L105.194 135.452C103.796 135.272 102.489 135.137 101.227 135.002C110.198 130.899 122.958 125.173 130.126 121.972C130.938 121.972 131.749 122.017 132.561 122.062C133.237 122.107 133.958 122.197 134.635 122.243Z" fill="white"/>
<path d="M188.872 146.138C187.88 145.777 186.933 145.371 185.986 144.875C171.965 137.797 154.021 123.505 132.561 122.062C111.1 120.619 87.4756 133.469 87.4756 133.469C87.4756 133.469 162.497 141.629 169.756 144.83C173.633 146.543 180.215 149.609 186.076 153.081C187.745 151.097 189.232 148.662 188.872 146.138Z" stroke="black" stroke-width="1.2" stroke-miterlimit="10" stroke-linecap="round" stroke-linejoin="round"/>
<path d="M175.707 144.65C176.404 144.65 176.97 144.085 176.97 143.387C176.97 142.69 176.404 142.125 175.707 142.125C175.01 142.125 174.445 142.69 174.445 143.387C174.445 144.085 175.01 144.65 175.707 144.65Z" fill="#FF642D" stroke="black" stroke-width="1.2" stroke-miterlimit="10" stroke-linecap="round" stroke-linejoin="round"/>
<path d="M217.727 167.914C218.223 163.811 240.269 140.412 248.294 142.576C256.32 144.74 254.381 141.133 259.746 148.076C265.111 155.019 264.796 164.262 262.812 167.057C260.828 169.852 258.844 169.672 255.643 172.422C252.442 175.217 247.979 171.295 244.913 171.836C213.399 177.381 217.727 167.914 217.727 167.914Z" fill="#FF642D"/>
<path d="M258.889 143.432C258.889 143.432 256.59 139.781 247.167 130.719C239.232 123.054 230.982 116.787 219.169 115.841C207.628 114.939 205.103 124.001 209.206 127.923C212.812 131.44 221.874 129.366 227.059 135.813C230.666 140.322 230.125 147.986 230.125 147.986L231.477 158.175" fill="#FF642D"/>
<mask id="mask1" mask-type="alpha" maskUnits="userSpaceOnUse" x="207" y="115" width="52" height="44">
<path d="M258.89 143.432C258.89 143.432 256.591 139.781 247.168 130.719C239.233 123.054 230.983 116.787 219.17 115.841C207.629 114.939 205.104 124.001 209.207 127.923C212.813 131.44 221.875 129.366 227.06 135.813C230.667 140.322 230.126 147.986 230.126 147.986L231.478 158.175" fill="#FF642D"/>
</mask>
<g mask="url(#mask1)">
<path d="M228.637 140.186C228.456 139.465 227.69 139.014 227.374 138.203C224.309 130.493 209.07 131.846 206.725 126.661C205.238 123.37 208.439 117.193 212.812 115.795C209.476 124.587 214.345 126.886 221.919 130.178C225.887 131.936 228.547 138.203 228.637 140.186Z" fill="white"/>
</g>
<path d="M258.889 143.432C258.889 143.432 256.59 139.781 247.167 130.719C239.232 123.054 230.982 116.787 219.169 115.841C207.628 114.939 205.103 124.001 209.206 127.923C212.812 131.44 221.874 129.366 227.059 135.813C230.666 140.322 230.125 147.986 230.125 147.986L231.477 158.175" stroke="black" stroke-width="1.2" stroke-miterlimit="10" stroke-linecap="round" stroke-linejoin="round"/>
<path d="M233.507 174.406C233.822 174.316 237.61 176.299 242.524 176.164C254.336 175.804 258.168 171.881 260.783 168.59" fill="#FF642D"/>
<path d="M233.507 174.406C233.822 174.316 237.61 176.299 242.524 176.164C254.336 175.804 258.168 171.881 260.783 168.59" stroke="black" stroke-width="1.2" stroke-miterlimit="10" stroke-linecap="round" stroke-linejoin="round"/>
<path d="M243.019 170.078C243.019 170.078 238.195 174.18 229.9 175.488C221.604 176.795 216.149 172.557 216.149 172.557C216.149 172.557 212.001 169.852 212.948 166.696C213.894 163.54 221.784 159.032 221.784 159.032" fill="#FF642D"/>
<path d="M221.964 168.184C219.845 172.242 224.444 174.722 227.419 175.713C226.924 175.713 226.428 175.713 225.977 175.713C224.218 175.398 221.739 174.902 219.62 174.406C217.411 173.549 216.148 172.557 216.148 172.557C216.148 172.557 215.923 172.422 215.652 172.197C215.517 170.619 215.066 168.004 219.71 165.84C224.94 163.315 224.264 163.811 221.964 168.184Z" fill="white"/>
<path d="M243.019 170.078C243.019 170.078 238.195 174.18 229.9 175.488C221.604 176.795 216.149 172.557 216.149 172.557C216.149 172.557 212.001 169.852 212.948 166.696C213.894 163.54 221.784 159.032 221.784 159.032" stroke="black" stroke-width="1.2" stroke-miterlimit="10" stroke-linecap="round" stroke-linejoin="round"/>
<path d="M230.756 135.903C232.83 142.756 221.514 151.458 217.727 153.937C211.279 158.22 198.385 161.016 196.627 167.914C194.869 174.767 206.005 176.48 214.841 173.053C223.227 169.852 231.973 165.254 235.355 162.098" fill="#FF642D"/>
<path d="M215.112 172.918C215.022 172.963 214.886 173.008 214.796 173.053C205.96 176.435 194.824 174.767 196.582 167.914C197.213 165.344 201.136 162.413 203.976 160.7C201.271 164.262 199.287 168.364 203.3 171.385C206.365 173.639 211.235 173.594 215.112 172.918Z" fill="white"/>
<path d="M230.756 135.903C232.83 142.756 221.514 151.458 217.727 153.937C211.279 158.22 198.385 161.016 196.627 167.914C194.869 174.767 206.005 176.48 214.841 173.053C223.227 169.852 231.973 165.254 235.355 162.098" stroke="black" stroke-width="1.2" stroke-miterlimit="10" stroke-linecap="round" stroke-linejoin="round"/>
<path d="M64.3469 173.549C63.7157 173.369 112.813 139.736 112.813 139.736L159.656 148.076L122.957 179.546C114.797 186.534 103.436 188.517 93.4266 184.64L64.3469 173.549Z" fill="#FF642D" stroke="black" stroke-width="1.2" stroke-miterlimit="10" stroke-linecap="round" stroke-linejoin="round"/>
<path d="M79.044 162.999C83.9583 159.573 89.5037 155.741 94.6885 152.179C106.275 144.199 120.567 141.088 134.453 143.568L141.622 144.83C148.835 146.093 151.315 155.2 145.77 159.979L122.957 179.546C114.796 186.534 103.435 188.517 93.4261 184.64L81.1179 179.951C73.8592 177.156 72.687 167.418 79.044 162.999Z" fill="white" stroke="black" stroke-width="1.2" stroke-miterlimit="10" stroke-linecap="round" stroke-linejoin="round"/>
<path d="M94.0577 162.999C96.6726 160.565 104.562 156.417 106.997 155.11C115.518 150.646 122.191 150.556 126.97 151.322C133.237 152.359 135.897 157.409 129.585 162.954C112.543 177.832 101.136 177.021 95.1848 173.73C89.955 170.889 89.7295 167.057 94.0577 162.999Z" fill="#FF642D" stroke="black" stroke-width="1.2" stroke-miterlimit="10" stroke-linecap="round" stroke-linejoin="round"/>
<path d="M126.475 274.475L168.358 283.917L217.32 236.443L185.31 231.979L176.879 238.111L193.921 241.853L186.707 247.985L168.808 243.972L154.652 254.296L173.948 258.85L165.202 266.334L144.192 261.916L126.475 274.475Z" fill="white" stroke="black" stroke-width="1.2" stroke-miterlimit="10" stroke-linecap="round" stroke-linejoin="round"/>
<path d="M168.357 296V283.917L217.59 236.443V247.939L168.357 296Z" fill="black" stroke="black" stroke-width="1.2" stroke-miterlimit="10" stroke-linecap="round" stroke-linejoin="round"/>
<path d="M154.381 254.296V264.125L165.202 266.334L173.948 258.85L154.381 254.296Z" fill="black" stroke="black" stroke-width="1.2" stroke-miterlimit="10" stroke-linecap="round" stroke-linejoin="round"/>
<path d="M176.608 238.111V245.775L186.707 247.985L193.921 241.853L176.608 238.111Z" fill="black" stroke="black" stroke-width="1.2" stroke-miterlimit="10" stroke-linecap="round" stroke-linejoin="round"/>
<path d="M126.384 274.675V286.758L168.358 296V283.917L126.384 274.675Z" fill="#FF642D" stroke="black" stroke-width="1.2" stroke-miterlimit="10" stroke-linecap="round" stroke-linejoin="round"/>
<path d="M284.813 235.676L275.751 236.533C275.751 236.533 256.184 234.73 256.049 234.73C255.959 234.73 253.479 239.238 252.352 241.402C248.249 241.808 244.102 242.89 240.179 245.144C239.007 245.82 238.015 246.497 237.113 247.173L232.695 243.566C232.334 243.296 231.838 243.521 231.838 243.972L232.019 255.965C232.019 256.1 232.019 256.19 232.019 256.325C232.109 259.075 233.552 261.465 235.4 262.953C239.683 266.379 253.434 270.482 245.725 277.786C238.015 285.089 217.141 273.052 217.141 273.052L215.157 274.945L204.156 273.187L204.427 285.27C225.256 295.594 238.781 297.082 255.102 291.086C264.39 287.659 268.087 281.843 268.538 276.478C268.583 275.802 268.583 275.126 268.538 274.494C268.538 270.617 268.583 262.457 268.583 262.231L263.623 265.432C257.717 260.608 248.159 255.333 256.68 250.915C263.578 247.308 278.501 255.649 278.501 255.649L286.031 248.12L286.076 236.713C286.166 235.767 285.805 235.631 284.813 235.676Z" fill="black"/>
<mask id="mask2" mask-type="alpha" maskUnits="userSpaceOnUse" x="204" y="234" width="83" height="61">
<path d="M284.814 235.676L275.752 236.533C275.752 236.533 256.185 234.73 256.05 234.73C255.959 234.73 253.48 239.238 252.353 241.402C248.25 241.808 244.102 242.89 240.18 245.144C239.007 245.82 238.016 246.497 237.114 247.173L232.696 243.566C232.335 243.296 231.839 243.521 231.839 243.972L232.019 255.965C232.019 256.1 232.019 256.19 232.019 256.325C232.109 259.075 233.552 261.465 235.401 262.953C239.684 266.379 253.435 270.482 245.725 277.786C238.016 285.089 217.141 273.052 217.141 273.052L215.157 274.945L204.157 273.187L204.427 285.27C225.256 295.594 238.782 297.082 255.103 291.086C264.39 287.659 268.087 281.843 268.538 276.478C268.583 275.802 268.583 275.126 268.538 274.494C268.538 270.617 268.583 262.457 268.583 262.231L263.624 265.432C257.718 260.608 248.16 255.333 256.681 250.915C263.579 247.308 278.502 255.649 278.502 255.649L286.031 248.12L286.076 236.713C286.166 235.767 285.806 235.631 284.814 235.676Z" fill="black"/>
</mask>
<g mask="url(#mask2)">
<path d="M229.855 271.474H201.496V297.488H229.855V271.474Z" fill="#FF642D"/>
<path d="M245.229 271.023H235.671V297.037H245.229V271.023Z" fill="#FF642D"/>
<path d="M253.389 271.023H249.962V297.443H253.389V271.023Z" fill="#FF642D"/>
<path d="M275.697 237.13C275.734 237.134 275.771 237.134 275.808 237.13L284.855 236.275C285.087 236.265 285.251 236.267 285.369 236.282C285.422 236.288 285.456 236.296 285.477 236.302C285.488 236.356 285.497 236.462 285.479 236.656C285.477 236.675 285.476 236.693 285.476 236.711L285.432 247.87L278.394 254.908C278.315 254.866 278.226 254.819 278.126 254.766C277.699 254.542 277.083 254.228 276.323 253.862C274.803 253.13 272.702 252.191 270.379 251.364C268.06 250.539 265.501 249.819 263.069 249.537C260.65 249.257 258.283 249.401 256.404 250.383C254.216 251.517 253.008 252.796 252.749 254.265C252.492 255.724 253.217 257.13 254.281 258.406C255.357 259.696 256.884 260.98 258.48 262.223C259.115 262.718 259.757 263.204 260.392 263.685C261.379 264.431 262.347 265.165 263.244 265.897C263.446 266.062 263.73 266.078 263.949 265.937L267.978 263.336C267.974 264.211 267.967 265.525 267.961 266.991C267.949 269.544 267.938 272.554 267.938 274.494C267.938 274.509 267.939 274.523 267.94 274.537C267.982 275.137 267.983 275.784 267.94 276.433C267.51 281.521 264.005 287.162 254.896 290.523C246.808 293.494 239.441 294.603 231.523 293.702C223.678 292.809 215.255 289.94 205.019 284.893L204.773 273.893L215.063 275.538C215.248 275.567 215.436 275.509 215.572 275.379L217.235 273.792C217.377 273.871 217.556 273.969 217.769 274.083C218.361 274.401 219.213 274.847 220.26 275.358C222.352 276.379 225.227 277.667 228.349 278.726C231.467 279.783 234.862 280.623 237.986 280.727C241.105 280.831 244.045 280.204 246.138 278.221C248.146 276.319 248.88 274.501 248.557 272.759C248.243 271.071 246.965 269.65 245.431 268.444C243.882 267.226 241.961 266.142 240.196 265.164C240.076 265.098 239.958 265.033 239.841 264.968C238.19 264.055 236.729 263.247 235.776 262.485C234.046 261.092 232.706 258.862 232.619 256.315V256.315V256.314V256.313V256.313V256.312V256.311V256.31V256.31V256.309V256.308V256.307V256.307V256.306V256.305V256.304V256.303V256.303V256.302V256.301V256.3V256.3V256.299V256.298V256.297V256.297V256.296V256.295V256.294V256.294V256.293V256.292V256.291V256.291V256.29V256.289V256.288V256.288V256.287V256.286V256.285V256.285V256.284V256.283V256.282V256.282V256.281V256.28V256.279V256.279V256.278V256.277V256.276V256.276V256.275V256.274V256.274V256.273V256.272V256.271V256.271V256.27V256.269V256.268V256.268V256.267V256.266V256.266V256.265V256.264V256.263V256.263V256.262V256.261V256.26V256.26V256.259V256.258V256.258V256.257V256.256V256.255V256.255V256.254V256.253V256.253V256.252V256.251V256.25V256.25V256.249V256.248V256.248V256.247V256.246V256.246V256.245V256.244V256.243V256.243V256.242V256.241V256.241V256.24V256.239V256.239V256.238V256.237V256.236V256.236V256.235V256.234V256.234V256.233V256.232V256.232V256.231V256.23V256.229V256.229V256.228V256.227V256.227V256.226V256.225V256.225V256.224V256.223V256.223V256.222V256.221V256.221V256.22V256.219V256.218V256.218V256.217V256.216V256.216V256.215V256.214V256.214V256.213V256.212V256.212V256.211V256.21V256.21V256.209V256.208V256.208V256.207V256.206V256.206V256.205V256.204V256.203V256.203V256.202V256.201V256.201V256.2V256.199V256.199V256.198V256.197V256.197V256.196V256.195V256.195V256.194V256.193V256.193V256.192V256.191V256.191V256.19V256.189V256.189V256.188V256.187V256.187V256.186V256.185V256.185V256.184V256.183V256.183V256.182V256.181V256.181V256.18V256.179V256.179V256.178V256.177V256.177V256.176V256.175V256.175V256.174V256.173V256.173V256.172V256.171V256.171V256.17V256.169V256.169V256.168V256.167V256.167V256.166V256.165V256.165V256.164V256.163V256.163V256.162V256.161V256.161V256.16V256.159V256.159V256.158V256.157V256.157V256.156V256.155V256.155V256.154V256.153V256.153V256.152V256.152V256.151V256.15V256.15V256.149V256.148V256.148V256.147V256.146V256.146V256.145V256.144V256.144V256.143V256.142V256.142V256.141V256.14V256.14V256.139V256.138V256.138V256.137V256.136V256.136V256.135V256.134V256.134V256.133V256.132V256.132V256.131V256.13V256.13V256.129V256.128V256.128V256.127V256.126V256.126V256.125V256.124V256.124V256.123V256.122V256.122V256.121V256.12V256.12V256.119V256.118V256.118V256.117V256.116V256.116V256.115V256.114V256.114V256.113V256.112V256.112V256.111V256.11V256.11V256.109V256.108V256.108V256.107V256.106V256.106V256.105V256.104V256.104V256.103V256.102V256.102V256.101V256.1V256.1V256.099V256.098V256.098V256.097V256.096V256.096V256.095V256.094V256.094V256.093V256.092V256.092V256.091V256.09V256.09V256.089V256.088V256.088V256.087V256.086V256.086V256.085V256.084V256.084V256.083V256.082V256.082V256.081V256.08V256.08V256.079V256.078V256.078V256.077V256.076V256.075V256.075V256.074V256.073V256.073V256.072V256.071V256.071V256.07V256.069V256.069V256.068V256.067V256.067V256.066V256.065V256.064V256.064V256.063V256.062V256.062V256.061V256.06V256.06V256.059V256.058V256.058V256.057V256.056V256.055V256.055V256.054V256.053V256.053V256.052V256.051V256.051V256.05V256.049V256.048V256.048V256.047V256.046V256.046V256.045V256.044V256.044V256.043V256.042V256.041V256.041V256.04V256.039V256.039V256.038V256.037V256.036V256.036V256.035V256.034V256.034V256.033V256.032V256.031V256.031V256.03V256.029V256.029V256.028V256.027V256.026V256.026V256.025V256.024V256.024V256.023V256.022V256.021V256.021V256.02V256.019V256.018V256.018V256.017V256.016V256.016V256.015V256.014V256.013V256.013V256.012V256.011V256.01V256.01V256.009V256.008V256.007V256.007V256.006V256.005V256.004V256.004V256.003V256.002V256.001V256.001V256V255.999V255.998V255.998V255.997V255.996V255.995V255.995V255.994V255.993V255.992V255.992V255.991V255.99V255.989V255.989V255.988V255.987V255.986V255.986V255.985V255.984V255.983V255.983V255.982V255.981V255.98V255.979V255.979V255.978V255.977V255.976V255.976V255.975V255.974V255.973V255.972V255.972V255.971V255.97V255.969V255.969V255.968V255.967V255.966V255.965V255.965H232.619L232.619 255.956L232.441 244.133L236.734 247.638C236.948 247.812 237.253 247.818 237.474 247.653C238.359 246.989 239.331 246.327 240.479 245.664C244.312 243.461 248.374 242.399 252.412 241.999C252.613 241.979 252.791 241.859 252.885 241.679C253.445 240.603 254.344 238.94 255.115 237.544C255.5 236.847 255.852 236.219 256.112 235.767C256.206 235.604 256.287 235.466 256.352 235.357C256.491 235.37 256.669 235.386 256.881 235.405C257.429 235.454 258.204 235.524 259.131 235.609C260.984 235.778 263.442 236.003 265.896 236.229C268.351 236.454 270.801 236.68 272.637 236.849L274.856 237.053L275.477 237.11L275.64 237.125L275.682 237.129L275.693 237.13L275.696 237.13L275.696 237.13C275.697 237.13 275.697 237.13 275.752 236.533L275.697 237.13Z" stroke="black" stroke-width="1.2" stroke-miterlimit="10" stroke-linecap="round" stroke-linejoin="round"/>
</g>
<path d="M204.7 273.425L217.185 260.924C217.185 260.924 238.014 272.962 245.769 265.658C253.524 258.354 239.773 254.251 235.444 250.825C231.161 247.398 229.223 239.238 240.178 233.016C251.134 226.795 263.577 229.364 273.045 231.529C282.513 233.693 285.55 236.15 285.55 236.15L278.591 243.566C278.591 243.566 263.668 235.271 256.77 238.832C247.662 243.566 259.159 249.292 264.84 254.342C270.656 259.481 271.512 273.007 255.192 279.003C238.871 284.999 225.529 283.749 204.7 273.425Z" fill="white" stroke="black" stroke-width="1.2" stroke-miterlimit="10" stroke-linecap="round" stroke-linejoin="round"/>
</svg>
