<svg width="368" height="298" viewBox="0 0 368 298" fill="none" xmlns="http://www.w3.org/2000/svg">
<path d="M290.923 86.584C281.294 54.9805 262.277 24.7526 236.451 3.74095C235.488 2.95 234.112 2.77806 232.977 3.29389L191.401 22.1047C154.261 15.2269 117.121 13.7481 81.2875 26.9535C80.0495 27.4006 79.1898 28.5698 79.121 29.911C78.6052 40.0901 76.4387 82.4229 76.4387 82.4229C51.6786 108.559 32.2832 141.469 27.6063 177.165C27.4344 178.403 27.9846 179.606 29.0163 180.328L73.6188 211.416C83.2477 243.019 102.265 273.282 128.091 294.259C129.054 295.05 130.429 295.222 131.564 294.706L173.14 275.93C210.281 282.807 247.421 284.286 283.254 271.081C284.492 270.634 285.352 269.465 285.42 268.123L288.103 215.646C312.897 189.476 332.258 156.6 336.935 120.904C337.107 119.666 336.557 118.463 335.525 117.74L290.923 86.584Z" fill="#FF788F" stroke="white" stroke-width="2" stroke-miterlimit="10" stroke-linecap="round" stroke-linejoin="round"/>
<path d="M353.455 180.627C353.455 172.746 350.459 170.532 350.459 170.532L327.989 151.123L327.598 166.038L220.884 74.3361C215.511 69.712 208.152 68.0838 201.346 70.0376L33.4756 117.517L36.1133 101.528L14.6533 108.106C14.6533 108.106 11.5271 109.994 11.5271 117.973C11.5271 123.737 13.3507 126.667 14.6533 128.068C16.8026 130.412 29.2096 143.471 29.2096 143.471L126.936 246.765C134.947 255.232 147.126 258.228 158.165 254.483L328.706 196.486L349.058 189.549L349.286 189.484C349.612 189.387 349.872 189.224 350.1 188.996C352.673 187.335 353.455 184.795 353.455 180.627Z" fill="black"/>
<path d="M20.5 110.497C18.1794 107.705 22.7034 113.27 20.5 110.497C68.7012 168.49 139.864 229.182 136.477 235.986C130.648 247.644 140.743 258.423 140.743 258.423C140.743 258.423 131.69 259.266 128.238 251.581C124.786 243.896 24.0537 139.99 13.6845 127.152C8 115 20.5 110.497 20.5 110.497Z" fill="#FF788F"/>
<path d="M13.6252 126.658C12.5161 121.856 13.1106 117.622 15.7282 113.934C18.205 110.445 19.7963 107.807 20.8089 105.92C20.8089 105.92 13.1911 107.402 12.2035 112.833C9.79375 115.406 13.6252 126.658 13.6252 126.658Z" fill="white"/>
<path d="M353.455 180.627C353.455 172.746 350.459 170.532 350.459 170.532L327.989 151.123L327.598 166.038L220.884 74.3361C215.511 69.712 208.152 68.0838 201.346 70.0376L33.4756 117.517L36.1133 101.528L14.6533 108.106C14.6533 108.106 11.5271 109.994 11.5271 117.973C11.5271 123.737 13.3507 126.667 14.6533 128.068C16.8026 130.412 29.2096 143.471 29.2096 143.471L126.936 246.765C134.947 255.232 147.126 258.228 158.165 254.483L328.705 196.486L349.058 189.549L349.286 189.484C349.612 189.387 349.872 189.224 350.1 188.996C352.673 187.335 353.455 184.795 353.455 180.627Z" stroke="black" stroke-width="1.2" stroke-miterlimit="10" stroke-linecap="round" stroke-linejoin="round"/>
<path d="M349.286 174.244L158.165 239.243C147.126 242.988 134.947 239.959 126.936 231.525L14.6533 112.827C12.8948 110.939 13.7415 107.878 16.2164 107.161L201.346 54.7975C208.184 52.8761 215.511 54.4718 220.884 59.096L350.068 170.076C351.501 171.313 351.077 173.625 349.286 174.244Z" fill="#FF788F"/>
<mask id="mask0" mask-type="alpha" maskUnits="userSpaceOnUse" x="13" y="54" width="338" height="187">
<path d="M349.286 174.244L158.165 239.243C147.126 242.988 134.947 239.959 126.936 231.525L14.6533 112.827C12.8948 110.939 13.7415 107.878 16.2164 107.161L201.346 54.7975C208.184 52.8761 215.511 54.4718 220.884 59.096L350.068 170.076C351.501 171.313 351.077 173.625 349.286 174.244Z" fill="#FF788F"/>
</mask>
<g mask="url(#mask0)">
<path d="M22.4688 132.724L240.195 68.442L365.796 172.942L136.477 250.575L22.4688 132.724Z" fill="white" stroke="black" stroke-width="1.2" stroke-miterlimit="10" stroke-linecap="round" stroke-linejoin="round"/>
</g>
<mask id="mask1" mask-type="alpha" maskUnits="userSpaceOnUse" x="13" y="54" width="338" height="187">
<path d="M349.286 174.244L158.165 239.243C147.126 242.988 134.947 239.959 126.936 231.525L14.6533 112.827C12.8948 110.939 13.7415 107.878 16.2164 107.161L201.346 54.7975C208.184 52.8761 215.511 54.4718 220.884 59.096L350.068 170.076C351.501 171.313 351.077 173.625 349.286 174.244Z" fill="#FF788F"/>
</mask>
<g mask="url(#mask1)">
<path d="M217.042 50.4338C209.357 53.6252 56.6943 98.8898 22.469 109.538C18.138 110.874 15.6956 113.935 15.6956 113.935L3.80957 105.533L217.042 50.4338Z" fill="white"/>
</g>
<path d="M349.286 174.244L158.165 239.243C147.126 242.988 134.947 239.959 126.936 231.525L14.6533 112.827C12.8948 110.939 13.7415 107.878 16.2164 107.161L201.346 54.7975C208.184 52.8761 215.511 54.4718 220.884 59.096L350.068 170.076C351.501 171.313 351.077 173.625 349.286 174.244Z" stroke="black" stroke-width="1.2" stroke-miterlimit="10" stroke-linecap="round" stroke-linejoin="round"/>
<path d="M42.9587 114.639C43.4655 112.21 41.5357 109.752 38.6484 109.149C35.7611 108.547 33.0097 110.028 32.5029 112.458C31.9961 114.888 33.9258 117.345 36.8131 117.948C39.7004 118.55 42.4518 117.069 42.9587 114.639Z" fill="black" stroke="black" stroke-width="1.2" stroke-miterlimit="10" stroke-linecap="round" stroke-linejoin="round"/>
<path d="M58.6012 110.649C59.108 108.22 57.1783 105.762 54.291 105.16C51.4037 104.557 48.6522 106.038 48.1454 108.468C47.6386 110.898 49.5684 113.355 52.4557 113.958C55.343 114.56 58.0944 113.079 58.6012 110.649Z" fill="#FF788F" stroke="black" stroke-width="1.2" stroke-miterlimit="10" stroke-linecap="round" stroke-linejoin="round"/>
<path d="M73.9206 106.634C74.4274 104.204 72.4976 101.746 69.6103 101.144C66.723 100.542 63.9716 102.023 63.4648 104.452C62.958 106.882 64.8877 109.34 67.775 109.942C70.6623 110.544 73.4138 109.063 73.9206 106.634Z" fill="white" stroke="black" stroke-width="1.2" stroke-miterlimit="10" stroke-linecap="round" stroke-linejoin="round"/>
<path d="M141.036 198.537L139.408 199.091C133.156 201.175 126.252 199.514 121.693 194.76L74.4418 145.783C70.1107 141.289 72.0971 133.799 78.1216 132.041L78.6752 131.878C84.6345 130.152 91.0823 131.813 95.4785 136.176L144.293 184.795C148.624 189.159 146.865 196.583 141.036 198.537Z" fill="#FF788F" stroke="black" stroke-width="1.2" stroke-miterlimit="10" stroke-linecap="round" stroke-linejoin="round"/>
<path d="M190.697 182.255L189.329 182.711C183.142 184.762 176.303 183.134 171.712 178.445L125.047 130.673C120.651 126.179 122.67 118.591 128.727 116.898L129.182 116.768C135.109 115.107 141.459 116.735 145.823 121.034L193.888 168.448C198.317 172.811 196.558 180.301 190.697 182.255Z" fill="black" stroke="black" stroke-width="1.2" stroke-miterlimit="10" stroke-linecap="round" stroke-linejoin="round"/>
<path d="M241.628 167.178L240.326 167.601C234.366 169.587 227.821 168.155 223.262 163.856L173.113 116.898C168.391 112.469 170.312 104.621 176.532 102.863L176.792 102.798C182.426 101.202 188.516 102.602 192.879 106.542L244.559 153.142C249.281 157.408 247.653 165.159 241.628 167.178Z" fill="#FF788F" stroke="black" stroke-width="1.2" stroke-miterlimit="10" stroke-linecap="round" stroke-linejoin="round"/>
<path d="M289.302 153.077L288.26 153.435C282.529 155.324 276.244 154.087 271.685 150.146L219.419 104.817C214.436 100.485 216.227 92.3443 222.577 90.5533C228.016 89.0227 233.845 90.2602 238.176 93.8748L292.005 138.814C296.987 142.982 295.489 151.026 289.302 153.077Z" fill="#FF788F" stroke="black" stroke-width="1.2" stroke-miterlimit="10" stroke-linecap="round" stroke-linejoin="round"/>
<path d="M141.036 198.537L139.408 199.091C133.155 201.175 126.252 199.514 121.693 194.76L96.6179 168.741L118.99 159.623L144.26 184.795C148.623 189.159 146.865 196.583 141.036 198.537Z" fill="black" stroke="black" stroke-width="1.2" stroke-miterlimit="10" stroke-linecap="round" stroke-linejoin="round"/>
<path d="M168.977 220.225C170.019 218.923 170.605 217.49 170.768 216.024L168.391 214.364C168.228 212.735 167.414 211.107 166.046 209.674L166.534 207.46C165.785 206.874 164.971 206.353 164.027 205.864C163.115 205.376 162.138 204.985 161.161 204.659L158.328 205.636C155.983 205.115 153.574 205.05 151.294 205.441L148.363 204.301C146.442 204.855 144.684 205.669 143.218 206.743L143.837 208.958C142.437 210.391 141.72 212.052 141.688 213.745L139.441 215.243C139.701 216.708 140.418 218.141 141.492 219.476L144.684 219.867C145.465 220.583 146.409 221.235 147.484 221.788C148.559 222.342 149.699 222.798 150.903 223.123L152.369 225.142C154.485 225.501 156.602 225.533 158.654 225.305L160.021 223.319C162.268 222.798 164.287 221.821 165.851 220.453L168.977 220.225ZM151.75 217.62C149.112 216.252 148.461 213.712 150.285 211.986C152.108 210.26 155.69 209.935 158.328 211.335C160.966 212.703 161.617 215.243 159.793 216.969C157.97 218.695 154.388 218.988 151.75 217.62Z" fill="#FF788F" stroke="black" stroke-width="1.2" stroke-miterlimit="10" stroke-linecap="round" stroke-linejoin="round"/>
<path d="M126.317 162.684C126.219 161.479 125.568 160.306 125.568 160.306L124.005 161.479L114.985 152.491C113.356 150.895 110.979 150.309 108.83 151.026L89.1935 157.376L87.435 155.389C87.435 155.389 86.393 156.464 86.5232 159.004C86.5558 160.078 86.8489 160.925 87.142 161.511C87.2722 161.87 87.4676 162.228 87.7607 162.521C87.7932 162.586 87.8258 162.619 87.8258 162.619L97.6929 172.844C99.3536 174.57 101.829 175.156 104.076 174.342L123.582 167.471C124.038 167.308 124.396 167.08 124.721 166.787C124.689 166.754 126.512 165.582 126.317 162.684Z" fill="black" stroke="black" stroke-width="1.2" stroke-miterlimit="10" stroke-linecap="round" stroke-linejoin="round"/>
<path d="M87.7933 159.264L97.6604 169.49C99.3212 171.216 101.796 171.802 104.043 170.988L123.549 164.116C125.764 163.335 126.382 160.534 124.721 158.874L114.952 149.104C113.324 147.509 110.947 146.922 108.797 147.639L89.0959 153.989C86.8815 154.77 86.1651 157.604 87.7933 159.264Z" fill="#FF788F" stroke="black" stroke-width="1.2" stroke-miterlimit="10" stroke-linecap="round" stroke-linejoin="round"/>
<path d="M157.481 127.514C157.416 126.309 156.765 125.137 156.765 125.137L155.169 126.277L146.279 117.158C144.684 115.53 142.306 114.912 140.157 115.595L120.456 121.652L118.73 119.633C118.73 119.633 117.688 120.675 117.753 123.215C117.785 124.29 118.046 125.137 118.306 125.723C118.437 126.081 118.632 126.439 118.925 126.732C118.958 126.798 118.99 126.83 118.99 126.83L128.727 137.218C130.355 138.944 132.83 139.563 135.11 138.814L154.681 132.236C155.137 132.073 155.495 131.845 155.821 131.552C155.821 131.585 157.644 130.445 157.481 127.514Z" fill="black" stroke="black" stroke-width="1.2" stroke-miterlimit="10" stroke-linecap="round" stroke-linejoin="round"/>
<path d="M119.055 123.574L128.792 133.962C130.42 135.688 132.895 136.306 135.175 135.557L154.746 128.979C156.96 128.23 157.644 125.43 156.016 123.769L146.377 113.869C144.781 112.241 142.404 111.623 140.255 112.306L120.455 118.396C118.176 119.08 117.427 121.848 119.055 123.574Z" fill="#FF788F" stroke="black" stroke-width="1.2" stroke-miterlimit="10" stroke-linecap="round" stroke-linejoin="round"/>
<path d="M279.077 78.2439C279.077 78.2439 261.818 88.632 228.7 100.453C195.582 112.274 170.605 134.092 139.05 142.591C120.846 147.476 109.937 148.453 107.722 155.487C106.322 159.948 125.503 171.802 155.104 164.898C184.868 157.962 198.48 148.583 198.48 148.583C198.48 148.583 199.001 175.123 215.544 180.855C231.175 186.293 232.152 193.132 257.552 179.813C267.419 174.635 277.058 168.936 289.009 160.925C304.152 150.765 325.156 134.45 325.156 134.45C325.156 134.45 332.646 117.354 314.019 94.5262C298.746 75.8341 279.077 78.2439 279.077 78.2439Z" fill="#FF788F"/>
<mask id="mask2" mask-type="alpha" maskUnits="userSpaceOnUse" x="107" y="78" width="220" height="110">
<path d="M279.077 78.2439C279.077 78.2439 261.818 88.632 228.7 100.453C195.582 112.274 170.605 134.092 139.05 142.591C120.846 147.476 109.937 148.453 107.722 155.487C106.322 159.948 125.503 171.802 155.104 164.898C184.868 157.962 198.48 148.583 198.48 148.583C198.48 148.583 199.001 175.123 215.544 180.855C231.175 186.293 232.152 193.132 257.552 179.813C267.419 174.635 277.058 168.936 289.009 160.925C304.152 150.765 325.156 134.45 325.156 134.45C325.156 134.45 332.646 117.354 314.019 94.5262C298.746 75.8341 279.077 78.2439 279.077 78.2439Z" fill="#FF788F"/>
</mask>
<g mask="url(#mask2)">
<path d="M120.683 165.712C109.221 156.952 118.795 152.947 127.522 149.788C134.751 147.15 162.138 139.628 186.529 125.267C214.827 108.627 245.275 90.9767 245.275 90.9767C245.275 90.9767 102.284 151.091 102.903 154.901C103.522 158.743 116.092 166.657 116.092 166.657L120.683 165.712Z" fill="white"/>
<path d="M279.305 100.583C279.305 100.583 265.661 88.9251 249.997 91.6931C243.777 92.8003 291.289 68.3769 291.289 68.3769C291.289 68.3769 306.725 66.1951 295.229 72.4149C283.246 78.8952 265.758 84.7243 267.419 89.902C268.396 92.8654 279.305 100.583 279.305 100.583Z" fill="white"/>
</g>
<path d="M279.077 78.2439C279.077 78.2439 261.818 88.632 228.7 100.453C195.582 112.274 170.605 134.092 139.05 142.591C120.846 147.476 109.937 148.453 107.722 155.487C106.322 159.948 125.503 171.802 155.104 164.898C184.868 157.962 198.48 148.583 198.48 148.583C198.48 148.583 199.001 175.123 215.544 180.855C231.175 186.293 232.152 193.132 257.552 179.813C267.419 174.635 277.058 168.936 289.009 160.925C304.152 150.765 325.156 134.45 325.156 134.45C325.156 134.45 332.646 117.354 314.019 94.5262C298.746 75.8341 279.077 78.2439 279.077 78.2439Z" stroke="black" stroke-width="1.2" stroke-miterlimit="10" stroke-linecap="round" stroke-linejoin="round"/>
<path d="M189.232 137.316C184.738 142.982 176.238 160.469 179.527 173.267C182.849 186.033 190.437 195.737 198.219 197.984C206.002 200.231 208.38 197.984 208.38 197.984C208.38 197.984 204.57 170.108 210.236 158.45" fill="#FF788F"/>
<mask id="mask3" mask-type="alpha" maskUnits="userSpaceOnUse" x="178" y="137" width="33" height="62">
<path d="M189.232 137.316C184.738 142.982 176.238 160.469 179.527 173.267C182.849 186.033 190.437 195.737 198.219 197.984C206.002 200.231 208.38 197.984 208.38 197.984C208.38 197.984 204.57 170.108 210.236 158.45" fill="#FF788F"/>
</mask>
<g mask="url(#mask3)">
<path d="M183.37 140.214C182.458 161.414 181.579 175.123 190.534 188.247C199.49 201.37 206.947 201.045 206.947 201.045C206.947 201.045 189.232 201.989 185.389 195.183C181.547 188.377 170.572 170.564 172.917 159.948C175.262 149.332 183.37 140.214 183.37 140.214Z" fill="white"/>
</g>
<path d="M189.232 137.316C184.738 142.982 176.238 160.469 179.527 173.267C182.849 186.033 190.437 195.737 198.219 197.984C206.002 200.231 208.38 197.984 208.38 197.984C208.38 197.984 204.57 170.108 210.236 158.45" stroke="black" stroke-width="1.2" stroke-miterlimit="10" stroke-linecap="round" stroke-linejoin="round"/>
<path d="M204.667 148.583C204.667 148.583 192.879 174.277 201.248 192.317C207.044 204.822 216.26 208.828 226.03 209.023C235.799 209.218 223.424 205.636 226.03 193.132C228.635 180.659 229.84 176.719 229.84 176.719" fill="#FF788F"/>
<mask id="mask4" mask-type="alpha" maskUnits="userSpaceOnUse" x="198" y="148" width="32" height="62">
<path d="M204.667 148.583C204.667 148.583 192.879 174.277 201.248 192.317C207.044 204.822 216.26 208.828 226.03 209.023C235.799 209.218 223.424 205.636 226.03 193.132C228.635 180.659 229.84 176.719 229.84 176.719" fill="#FF788F"/>
</mask>
<g mask="url(#mask4)">
<path d="M202.681 146.174C199.489 165.289 199.978 180.594 206.491 192.839C215.088 209.023 225.573 212.801 225.573 212.801C225.573 212.801 210.724 208.339 204.472 203.161C198.219 197.984 192.195 168.936 194.507 160.697C196.819 152.459 202.681 146.174 202.681 146.174Z" fill="white"/>
</g>
<path d="M204.667 148.583C204.667 148.583 192.879 174.277 201.248 192.317C207.044 204.822 216.26 208.828 226.03 209.023C235.799 209.218 223.424 205.636 226.03 193.132C228.635 180.659 229.84 176.719 229.84 176.719" stroke="black" stroke-width="1.2" stroke-miterlimit="10" stroke-linecap="round" stroke-linejoin="round"/>
<path d="M226.518 159.948C222.838 164.898 215.023 181.701 217.367 195.509C219.517 208.241 229.514 218.695 246.154 215.764C260.776 213.191 265.823 204.269 262.599 201.533C258.333 197.886 253.025 200.263 246.285 198.179C239.576 196.095 243.679 187.53 254.458 181.408" fill="#FF788F"/>
<mask id="mask5" mask-type="alpha" maskUnits="userSpaceOnUse" x="216" y="159" width="48" height="58">
<path d="M226.518 159.948C222.838 164.898 215.023 181.701 217.367 195.509C219.517 208.241 229.514 218.695 246.154 215.764C260.776 213.191 265.823 204.269 262.599 201.533C258.333 197.886 253.025 200.263 246.285 198.179C239.576 196.095 243.679 187.53 254.458 181.408" fill="#FF788F"/>
</mask>
<g mask="url(#mask5)">
<path d="M223.327 159.948C219.777 174.179 219.484 190.722 223.327 199.905C229.872 215.536 245.275 219.541 245.275 219.541C245.275 219.541 226.192 216.676 220.135 209.902C214.078 203.129 209.747 192.122 214.078 178.771C218.409 165.419 223.327 159.948 223.327 159.948Z" fill="white"/>
</g>
<path d="M226.518 159.948C222.838 164.898 215.023 181.701 217.367 195.509C219.517 208.241 229.514 218.695 246.154 215.764C260.776 213.191 265.823 204.269 262.599 201.533C258.333 197.886 253.025 200.263 246.285 198.179C239.576 196.095 243.679 187.53 254.458 181.408" stroke="black" stroke-width="1.2" stroke-miterlimit="10" stroke-linecap="round" stroke-linejoin="round"/>
<path d="M313.107 123.932C314.898 128.882 313.986 132.855 313.986 132.855Z" fill="#FF788F"/>
<path d="M313.107 123.932C314.898 128.882 313.986 132.855 313.986 132.855" stroke="black" stroke-width="1.2" stroke-miterlimit="10" stroke-linecap="round" stroke-linejoin="round"/>
<path d="M249.346 92.4746C252.472 91.172 272.857 88.6971 288.391 112.013C302.296 132.887 298.518 154.282 298.518 154.282" stroke="black" stroke-width="1.2" stroke-miterlimit="10" stroke-linecap="round" stroke-linejoin="round"/>
<path d="M311.251 126.863C315.351 126.863 318.676 123.539 318.676 119.438C318.676 115.337 315.351 112.013 311.251 112.013C307.15 112.013 303.826 115.337 303.826 119.438C303.826 123.539 307.15 126.863 311.251 126.863Z" fill="white" stroke="black" stroke-width="1.2" stroke-miterlimit="10" stroke-linecap="round" stroke-linejoin="round"/>
<path d="M243.419 192.122C243.419 192.122 241.303 198.961 244.885 202.054" stroke="black" stroke-width="1.2" stroke-miterlimit="10" stroke-linecap="round" stroke-linejoin="round"/>
</svg>
