<svg width="368" height="298" viewBox="0 0 368 298" fill="none" xmlns="http://www.w3.org/2000/svg">
<path d="M55.6651 214.228V249.356C55.6651 251.017 56.3178 252.619 57.5046 253.806L78.9848 275.286C80.1715 276.473 81.7736 277.126 83.4351 277.126H118.563C138.204 287.154 160.396 292.791 183.894 292.791C207.391 292.791 229.643 287.154 249.224 277.126H284.352C286.013 277.126 287.616 276.473 288.802 275.286L310.283 253.806C311.469 252.619 312.122 251.017 312.122 249.356V214.228C322.15 194.646 327.787 172.395 327.787 148.897C327.787 125.4 322.15 103.148 312.122 83.5666V48.4387C312.122 46.7773 311.469 45.1752 310.283 43.9884L288.802 22.5082C287.616 21.3215 286.013 20.6688 284.352 20.6688H249.224C229.643 10.6407 207.451 5.00366 183.894 5.00366C160.396 5.00366 138.144 10.6407 118.563 20.6688H83.4351C81.7736 20.6688 80.1715 21.3215 78.9848 22.5082L57.5046 43.9291C56.3178 45.1158 55.6651 46.718 55.6651 48.3794V83.5072C45.6371 103.089 40 125.34 40 148.838C40 172.395 45.6371 194.646 55.6651 214.228Z" fill="#6EDBFF" stroke="white" stroke-width="2" stroke-linecap="round" stroke-linejoin="round"/>
<path d="M268.585 260.611C268.585 260.611 293.745 249.379 293.2 247.774C292.397 245.367 273.913 249.86 270.575 252.781L268.585 260.611Z" fill="black"/>
<path d="M268.169 256.664C270.287 249.892 271.923 231.729 280.716 236.029C282.802 236.992 280.78 244.373 278.181 251.015C277.25 253.422 275.197 256.952 275.197 256.952C275.197 256.952 267.142 261.413 262.97 261.413C262.97 261.413 266.949 260.611 268.169 256.664Z" fill="white"/>
<path d="M156.394 258.557C168.91 260.386 170.097 266.773 159.09 272.838C148.083 278.903 130.753 281.663 118.238 279.834C105.722 278.005 102.77 272.228 113.777 266.163C124.784 260.13 143.879 256.728 156.394 258.557Z" fill="black" stroke="black" stroke-width="1.2" stroke-miterlimit="10" stroke-linecap="round" stroke-linejoin="round"/>
<path d="M159.539 193.411L159.379 264.462C159.379 268.987 156.394 273.479 150.489 276.913C138.584 283.845 119.2 283.845 107.198 276.913C101.133 273.447 98.1164 268.858 98.1484 264.301L98.3089 193.411" fill="white"/>
<path d="M159.539 193.411L159.379 264.462C159.379 268.987 156.394 273.479 150.489 276.913C138.584 283.845 119.2 283.845 107.198 276.913C101.133 273.447 98.1164 268.858 98.1484 264.301L98.3089 193.411" stroke="black" stroke-width="1.2" stroke-miterlimit="10" stroke-linecap="round" stroke-linejoin="round"/>
<path d="M150.425 186.159C162.427 190.17 162.492 196.685 150.554 200.696C138.648 204.708 119.265 204.708 107.262 200.696C95.2602 196.685 95.196 190.17 107.134 186.191C119.072 182.212 138.423 182.147 150.425 186.159Z" fill="#6EDBFF" stroke="black" stroke-width="1.2" stroke-miterlimit="10" stroke-linecap="round" stroke-linejoin="round"/>
<path d="M159.443 201.467C159.443 201.948 159.347 202.461 159.154 202.943C158.256 205.061 155.4 207.115 150.554 208.719C138.648 212.731 119.265 212.731 107.263 208.719C101.262 206.73 98.245 204.098 98.2129 201.467" stroke="black" stroke-width="1.2" stroke-miterlimit="10" stroke-linecap="round" stroke-linejoin="round"/>
<path d="M105.305 208.045V275.758" stroke="black" stroke-width="1.2" stroke-miterlimit="10" stroke-linecap="round" stroke-linejoin="round"/>
<path d="M117.083 210.933V280.764" stroke="black" stroke-width="1.2" stroke-miterlimit="10" stroke-linecap="round" stroke-linejoin="round"/>
<path d="M128.828 211.735V282.112" stroke="black" stroke-width="1.2" stroke-miterlimit="10" stroke-linecap="round" stroke-linejoin="round"/>
<path d="M140.605 210.965V280.764" stroke="black" stroke-width="1.2" stroke-miterlimit="10" stroke-linecap="round" stroke-linejoin="round"/>
<path d="M152.35 208.045V275.726" stroke="black" stroke-width="1.2" stroke-miterlimit="10" stroke-linecap="round" stroke-linejoin="round"/>
<path d="M168.942 178.489C167.37 176.628 165.541 175.44 163.679 174.927L163.262 174.831L162.749 174.702L127.32 166.872C126.261 166.711 125.202 166.808 124.239 167.225H124.207L124.111 167.289C123.918 167.385 123.726 167.482 123.533 167.578L87.687 186.48L126.068 199.188L132.39 212.345L168.525 193.347C169.103 193.026 169.616 192.609 170.066 192.032C172.793 188.534 172.28 182.436 168.942 178.489Z" fill="white" stroke="black" stroke-width="1.2" stroke-miterlimit="10"/>
<path d="M132.904 197.455C131.331 195.594 129.502 194.406 127.641 193.893L91.281 185.87C89.7406 185.613 88.1682 185.966 86.8524 187.025C84.0926 189.24 83.4507 194.374 85.4404 198.546C87.045 201.98 90.222 203.392 92.5326 201.659C93.3028 201.081 93.8483 200.151 94.1051 199.027L123.693 206.473C123.918 207.788 124.496 209.072 125.362 210.131C127.961 213.34 131.844 213.725 134.027 210.933C136.722 207.5 136.209 201.402 132.904 197.455Z" fill="white"/>
<path d="M124.72 201.37L93.4312 193.893" stroke="black" stroke-width="1.2" stroke-miterlimit="10" stroke-linecap="round" stroke-linejoin="round"/>
<path d="M94.0408 199.188L123.693 206.665" stroke="black" stroke-width="1.2" stroke-miterlimit="10" stroke-linecap="round" stroke-linejoin="round"/>
<path d="M91.2167 198.354C90.2219 199.092 88.8419 198.514 88.1359 197.038C87.2695 195.209 87.5262 192.995 88.7457 192.032C90.254 190.877 92.372 191.743 93.4631 194.021C94.843 196.846 94.3938 200.279 92.5004 201.723C90.1898 203.456 87.0127 202.044 85.4082 198.611C83.4185 194.407 84.0603 189.272 86.8202 187.09C88.168 186.031 89.7084 185.678 91.2488 185.934L127.608 193.957C129.47 194.471 131.299 195.658 132.871 197.519C136.209 201.467 136.69 207.564 133.994 211.062C131.812 213.854 127.929 213.469 125.33 210.26C123.244 207.692 122.923 203.809 124.624 201.531C126.004 199.702 128.539 199.862 130.24 201.948C131.652 203.649 131.876 206.248 130.721 207.757C129.791 208.976 128.122 208.816 126.999 207.436" stroke="black" stroke-width="1.2" stroke-miterlimit="10" stroke-linecap="round" stroke-linejoin="round"/>
<path d="M149.976 156.474C141.472 154.677 134.829 142.803 135.182 129.967C135.471 118.863 140.895 110.648 147.89 109.845L102.802 115.012C95.8062 115.814 90.3828 123.998 90.094 135.133C89.7731 147.97 96.3839 159.812 104.888 161.641C106.011 161.866 107.134 161.93 108.193 161.801L153.282 156.635C152.223 156.763 151.1 156.699 149.976 156.474Z" fill="#6EDBFF" stroke="black" stroke-width="1.2" stroke-miterlimit="10" stroke-linecap="round" stroke-linejoin="round"/>
<path d="M155.913 155.801C147.409 154.003 140.766 142.13 141.119 129.293C141.408 118.19 146.831 109.974 153.827 109.172L108.739 114.371C101.743 115.173 96.3196 123.356 96.0307 134.492C95.7098 147.328 102.321 159.17 110.825 160.999C111.948 161.224 113.071 161.288 114.13 161.16L159.219 155.993C158.16 156.089 157.069 156.057 155.913 155.801Z" fill="white" stroke="black" stroke-width="1.2" stroke-miterlimit="10" stroke-linecap="round" stroke-linejoin="round"/>
<path d="M111.081 177.815L156.202 172.616L154.726 182.34L109.637 187.507L111.081 177.815Z" fill="#6EDBFF" stroke="black" stroke-width="1.2" stroke-miterlimit="10" stroke-linecap="round" stroke-linejoin="round"/>
<path d="M117.756 175.087L162.844 169.921C160.758 171.268 158.544 172.199 156.169 172.616L111.081 177.783C113.456 177.366 115.67 176.467 117.756 175.087Z" fill="black" stroke="black" stroke-width="1.2" stroke-miterlimit="10" stroke-linecap="round" stroke-linejoin="round"/>
<path d="M112.14 91.6179L157.229 86.4512L158.191 96.6562L113.071 101.823L112.14 91.6179Z" fill="#6EDBFF" stroke="black" stroke-width="1.2" stroke-miterlimit="10" stroke-linecap="round" stroke-linejoin="round"/>
<path d="M99.8494 89.4354L144.938 84.2687C147.184 84.012 149.495 84.1082 151.869 84.6217C153.699 85.0068 155.496 85.6165 157.261 86.4509L112.172 91.6176C110.44 90.7832 108.642 90.1735 106.781 89.7884C104.406 89.2749 102.064 89.1787 99.8494 89.4354Z" fill="white" stroke="black" stroke-width="1.2" stroke-miterlimit="10" stroke-linecap="round" stroke-linejoin="round"/>
<path d="M113.071 101.823L158.159 96.656C160.47 98.068 162.62 99.9293 164.61 102.144L119.521 107.31C117.564 105.096 115.381 103.235 113.071 101.823Z" fill="white" stroke="black" stroke-width="1.2" stroke-miterlimit="10" stroke-linecap="round" stroke-linejoin="round"/>
<path d="M127.448 163.021L172.536 157.854L176.162 167L131.074 172.167L127.448 163.021Z" fill="white" stroke="black" stroke-width="1.2" stroke-miterlimit="10" stroke-linecap="round" stroke-linejoin="round"/>
<path d="M131.074 172.167C130.818 172.616 130.561 173.066 130.304 173.515C129.919 174.125 129.662 174.542 129.406 174.927C129.341 174.991 129.309 175.087 129.245 175.151C128.988 175.537 128.7 175.954 128.443 176.307C128.026 176.884 127.737 177.269 127.416 177.655C127.127 178.04 126.806 178.393 126.485 178.746C126.036 179.227 125.747 179.58 125.426 179.901C125.362 179.965 125.298 180.029 125.266 180.094C124.945 180.414 124.656 180.703 124.335 181.024C123.854 181.473 123.501 181.762 123.18 182.051L168.268 176.884C168.621 176.596 168.942 176.307 169.424 175.857C169.744 175.569 170.065 175.248 170.354 174.927C170.418 174.863 170.483 174.798 170.515 174.734C170.836 174.413 171.124 174.092 171.574 173.579C171.895 173.226 172.183 172.841 172.504 172.488C172.793 172.103 173.114 171.718 173.531 171.14C173.82 170.755 174.077 170.37 174.334 169.985C174.398 169.921 174.43 169.824 174.494 169.76C174.751 169.375 175.007 168.958 175.393 168.348C175.649 167.899 175.906 167.45 176.163 167L131.074 172.167Z" fill="#6EDBFF" stroke="black" stroke-width="1.2" stroke-miterlimit="10" stroke-linecap="round" stroke-linejoin="round"/>
<path d="M130.432 153.715L175.521 148.548C174.815 151.917 173.82 155.062 172.536 157.854L127.448 163.021C128.731 160.229 129.726 157.084 130.432 153.715Z" fill="#6EDBFF" stroke="black" stroke-width="1.2" stroke-miterlimit="10" stroke-linecap="round" stroke-linejoin="round"/>
<path d="M128.507 123.356L173.596 118.189C174.719 121.495 175.553 125.025 176.067 128.651L130.978 133.818C130.433 130.191 129.598 126.693 128.507 123.356Z" fill="white" stroke="black" stroke-width="1.2" stroke-miterlimit="10" stroke-linecap="round" stroke-linejoin="round"/>
<path d="M176.836 108.787C176.612 108.273 176.387 107.76 176.13 107.246C176.098 107.15 176.034 107.054 176.002 106.957C175.745 106.444 175.521 105.963 175.136 105.225C174.879 104.711 174.59 104.198 174.301 103.684C174.012 103.171 173.724 102.689 173.306 101.983C173.018 101.534 172.729 101.053 172.44 100.635C172.376 100.539 172.344 100.475 172.279 100.379C171.991 99.9295 171.702 99.4802 171.253 98.8704C170.932 98.4212 170.611 97.9719 170.29 97.5547L125.201 102.721C125.522 103.171 125.843 103.588 126.164 104.037C126.613 104.679 126.902 105.096 127.191 105.545C127.255 105.642 127.287 105.706 127.352 105.802C127.64 106.251 127.929 106.701 128.218 107.15C128.635 107.856 128.924 108.337 129.213 108.851C129.502 109.364 129.758 109.878 130.047 110.391C130.432 111.129 130.657 111.611 130.914 112.124C130.946 112.22 131.01 112.317 131.042 112.413C131.267 112.926 131.523 113.44 131.748 113.953C132.101 114.756 132.326 115.301 132.55 115.847L177.639 110.68C177.414 110.135 177.189 109.557 176.836 108.787Z" fill="white" stroke="black" stroke-width="1.2" stroke-miterlimit="10" stroke-linecap="round" stroke-linejoin="round"/>
<path d="M132.551 115.847L177.639 110.68L173.596 118.19L128.507 123.356L132.551 115.847Z" fill="#6EDBFF" stroke="black" stroke-width="1.2" stroke-miterlimit="10" stroke-linecap="round" stroke-linejoin="round"/>
<path d="M130.946 133.85L176.066 128.651L182.613 131.86L137.525 137.059L130.946 133.85Z" fill="white" stroke="black" stroke-width="1.2" stroke-miterlimit="10" stroke-linecap="round" stroke-linejoin="round"/>
<path d="M182.838 135.872C182.806 134.524 182.71 133.208 182.613 131.86L137.525 137.027C137.621 138.343 137.718 139.691 137.75 141.038C137.782 141.809 137.782 142.451 137.782 143.06C137.782 143.991 137.782 144.633 137.75 145.242C137.718 145.884 137.718 146.494 137.686 147.136C137.621 148.067 137.589 148.676 137.557 149.286C137.429 150.73 137.3 152.046 137.108 153.297L182.196 148.131C182.389 146.879 182.517 145.595 182.646 144.119C182.71 143.51 182.742 142.9 182.774 141.969C182.806 141.359 182.838 140.718 182.838 140.076C182.87 139.434 182.87 138.824 182.87 137.894C182.87 137.284 182.87 136.642 182.838 135.872Z" fill="white" stroke="black" stroke-width="1.2" stroke-miterlimit="10" stroke-linecap="round" stroke-linejoin="round"/>
<path d="M137.781 143.092C137.781 144.023 137.781 144.665 137.749 145.274C137.717 145.916 137.717 146.526 137.685 147.168C137.621 148.098 137.589 148.708 137.557 149.318C137.428 150.762 137.3 152.078 137.107 153.329L130.432 153.747C129.726 157.116 128.732 160.261 127.448 163.053L131.074 172.199C130.817 172.648 130.561 173.098 130.304 173.547C129.919 174.157 129.662 174.574 129.405 174.959C129.341 175.023 129.309 175.119 129.245 175.184C128.988 175.569 128.699 175.986 128.443 176.339C128.026 176.917 127.737 177.302 127.416 177.687C127.127 178.072 126.806 178.425 126.485 178.778C126.036 179.259 125.747 179.612 125.426 179.933C125.362 179.997 125.298 180.061 125.266 180.126C124.945 180.447 124.656 180.735 124.335 181.056C123.854 181.506 123.501 181.794 123.18 182.083L117.756 175.087C115.67 176.435 113.456 177.366 111.081 177.783L109.637 187.507C107.872 187.571 106.075 187.442 104.214 187.025C86.4031 183.271 72.5075 158.432 73.2135 131.571C73.9195 104.711 88.9383 86.0017 106.749 89.7885C108.578 90.1736 110.375 90.7833 112.14 91.6177L113.071 101.823C115.382 103.235 117.532 105.096 119.521 107.31L125.202 102.721C125.522 103.171 125.843 103.588 126.164 104.037C126.614 104.679 126.902 105.096 127.191 105.545C127.255 105.642 127.287 105.706 127.352 105.802C127.64 106.251 127.929 106.701 128.218 107.15C128.635 107.856 128.924 108.337 129.213 108.851C129.502 109.364 129.758 109.878 130.047 110.391C130.432 111.129 130.657 111.611 130.914 112.124C130.946 112.22 131.01 112.317 131.042 112.413C131.267 112.926 131.524 113.44 131.748 113.953C132.101 114.756 132.326 115.301 132.55 115.847L128.507 123.356C129.63 126.661 130.464 130.192 130.978 133.818L137.557 137.027C137.653 138.343 137.749 139.691 137.781 141.038C137.781 141.841 137.781 142.45 137.781 143.092ZM104.888 161.641C113.392 163.438 120.58 154.517 120.901 141.68C121.222 128.844 114.611 117.002 106.107 115.173C97.6029 113.376 90.4145 122.297 90.0936 135.134C89.7406 147.97 96.3835 159.844 104.888 161.641Z" fill="white" stroke="black" stroke-width="1.2" stroke-miterlimit="10" stroke-linecap="round" stroke-linejoin="round"/>
<path d="M211.688 292.029L213.902 293.986C233.863 284.583 244.581 276.657 243.65 274.763C242.591 272.613 230.621 275.437 214.319 281.15L211.688 292.029Z" fill="black"/>
<path d="M168.975 71.272C169.424 70.2772 167.146 68.2554 163.84 66.683C160.535 65.1426 157.518 64.6612 157.037 65.656L155.689 68.5443L167.627 74.1602L168.975 71.272Z" fill="white" stroke="black" stroke-width="1.2" stroke-miterlimit="10" stroke-linecap="round" stroke-linejoin="round"/>
<path d="M167.617 74.1667C168.077 73.1885 165.785 71.1413 162.498 69.5942C159.21 68.0472 156.172 67.586 155.712 68.5642C155.252 69.5424 157.543 71.5896 160.831 73.1367C164.118 74.6838 167.156 75.1449 167.617 74.1667Z" fill="black" stroke="black" stroke-width="1.2" stroke-miterlimit="10" stroke-linecap="round" stroke-linejoin="round"/>
<path d="M163.583 72.2667C163.744 71.8816 163.038 71.1756 161.979 70.6942C160.92 70.2128 159.925 70.0845 159.732 70.4696L143.109 108.53L144.842 109.332L163.583 72.2667Z" fill="white" stroke="black" stroke-width="1.2" stroke-miterlimit="10" stroke-linecap="round" stroke-linejoin="round"/>
<path d="M230.429 80.6423C228.985 79.8079 226.643 78.2996 226.097 78.9736C225.134 80.1289 228.055 82.5999 229.274 83.5306" fill="white"/>
<path d="M230.429 80.6423C228.985 79.8079 226.643 78.2996 226.097 78.9736C225.134 80.1289 228.055 82.5999 229.274 83.5306" stroke="black" stroke-width="1.2" stroke-miterlimit="10" stroke-linecap="round" stroke-linejoin="round"/>
<path d="M239.8 100.796L244.838 97.0092C244.453 95.7256 244.132 94.2173 243.876 92.5806C243.587 90.6552 243.523 88.8901 243.523 87.3818C240.474 88.2804 237.425 89.179 234.377 90.1096C234.409 91.6179 234.345 93.2866 234.184 95.0517C233.96 97.4585 233.574 99.6407 233.157 101.534C235.372 101.277 237.586 101.053 239.8 100.796Z" fill="#6EDBFF"/>
<path d="M244.838 97.0093C244.453 95.7256 244.132 94.2173 243.875 92.5806C243.587 90.6552 243.522 88.8901 243.522 87.3818" stroke="black" stroke-width="1.2" stroke-miterlimit="10" stroke-linecap="round" stroke-linejoin="round"/>
<path d="M234.377 90.0776C234.409 91.5859 234.345 93.2547 234.184 95.0197C233.96 97.4266 233.574 99.6088 233.157 101.502" stroke="black" stroke-width="1.2" stroke-miterlimit="10" stroke-linecap="round" stroke-linejoin="round"/>
<path d="M231.712 106.315L233.157 101.502C235.339 99.7688 236.462 99.1591 238.644 98.2926C240.698 97.5224 243.009 96.9448 244.806 96.9769C245.415 98.2284 245.993 99.5121 246.603 100.764" fill="white"/>
<path d="M231.712 106.315L233.157 101.502C235.339 99.7688 236.462 99.1591 238.644 98.2926C240.698 97.5224 243.009 96.9448 244.806 96.9769C245.415 98.2284 245.993 99.5121 246.603 100.764" stroke="black" stroke-width="1.2" stroke-miterlimit="10" stroke-linecap="round" stroke-linejoin="round"/>
<path d="M243.554 89.1467C248.817 85.1995 249.652 78.2035 246.667 74.9302C244.613 72.6838 241.212 71.7532 237.296 73.1973C224.845 80.2253 227.477 93.126 229.274 93.832C230.942 94.506 233.157 93.6074 235.146 91.6177" fill="#6EDBFF"/>
<path d="M219.839 150.923L219.101 148.355C218.427 145.724 217.785 142.419 217.56 138.632C217.304 134.62 217.56 131.122 217.945 128.33C219.133 125.506 220.32 122.682 221.508 119.858L235.05 119.024L236.719 152.688L219.839 150.923Z" fill="#6EDBFF" stroke="black" stroke-width="1.2" stroke-miterlimit="10" stroke-linecap="round" stroke-linejoin="round"/>
<path d="M193.332 75.3793C193.781 76.8555 193.909 80.4177 196.573 82.1506L197.568 84.9425C197.568 84.9425 202.927 86.5471 203.472 86.8359L205.045 84.9105L206.489 79.4228L202.253 67.0035C201.868 65.8482 201.226 64.7892 200.327 63.9548C199.75 63.3772 197.247 61.6442 195.353 60.9382" fill="#6EDBFF"/>
<path d="M193.332 75.3793C193.781 76.8555 193.909 80.4177 196.573 82.1506L197.568 84.9425C197.568 84.9425 202.927 86.5471 203.472 86.8359L205.045 84.9105L206.489 79.4228L202.253 67.0035C201.868 65.8482 201.226 64.7892 200.327 63.9548C199.75 63.3772 197.247 61.6442 195.353 60.9382" stroke="black" stroke-width="1.2" stroke-miterlimit="10" stroke-linecap="round" stroke-linejoin="round"/>
<path d="M203.6 52.5625L187.875 54.1671C187.362 54.2313 186.881 53.8462 186.816 53.3006L186.207 47.2033C186.143 46.6898 186.528 46.2085 187.073 46.1443L202.798 44.5397C203.311 44.4755 203.793 44.8606 203.857 45.4062L204.467 51.5035C204.499 52.017 204.114 52.4984 203.6 52.5625Z" stroke="black" stroke-width="1.2" stroke-miterlimit="10" stroke-linecap="round" stroke-linejoin="round"/>
<path d="M187.298 53.8138L186.496 46.6575L182.196 54.4236C181.939 54.7766 181.843 55.1938 181.875 55.611L182.741 60.1037C182.773 60.5209 182.998 60.8418 183.287 61.0665C183.543 61.259 183.896 61.3874 184.249 61.3232L199.108 59.8149C199.557 59.7828 199.91 59.5261 200.135 59.1731C200.295 58.9164 204.05 52.0809 204.05 52.0809L187.298 53.8138Z" fill="white" stroke="black" stroke-width="1.2" stroke-miterlimit="10" stroke-linecap="round" stroke-linejoin="round"/>
<path d="M203.6 52.5625L187.875 54.1671C187.362 54.2313 186.881 53.8462 186.816 53.3006L186.207 47.2033C186.143 46.6898 186.528 46.2085 187.073 46.1443L202.798 44.5397C203.311 44.4755 203.793 44.8606 203.857 45.4062L204.467 51.5035C204.499 52.017 204.114 52.4984 203.6 52.5625Z" fill="black" stroke="black" stroke-width="1.2" stroke-miterlimit="10" stroke-linecap="round" stroke-linejoin="round"/>
<path d="M187.298 53.8142L183.319 61.0989" stroke="black" stroke-width="1.2" stroke-miterlimit="10" stroke-linecap="round" stroke-linejoin="round"/>
<path d="M195 57.4725C194.904 57.1195 194.005 56.927 192.914 57.0232C191.823 57.1195 190.989 57.5046 190.989 57.8897L193.877 86.2585C193.909 86.6436 194.84 86.8682 195.963 86.7398C197.086 86.6115 197.953 86.2264 197.888 85.8413L195 57.4725Z" fill="black" stroke="black" stroke-width="1.2" stroke-miterlimit="10" stroke-linecap="round" stroke-linejoin="round"/>
<path d="M201.354 70.2769C196.605 67.132 194.037 65.9125 193.427 66.426C192.24 67.4208 194.198 69.7956 197.15 72.6517C197.118 73.8391 197.214 75.3153 197.599 76.984C197.824 77.9147 198.081 78.7491 198.37 79.4551" fill="#6EDBFF"/>
<path d="M201.354 70.2769C196.605 67.132 194.037 65.9125 193.427 66.426C192.24 67.4208 194.198 69.7956 197.15 72.6517C197.118 73.8391 197.214 75.3153 197.599 76.984C197.824 77.9147 198.081 78.7491 198.37 79.4551" stroke="black" stroke-width="1.2" stroke-miterlimit="10" stroke-linecap="round" stroke-linejoin="round"/>
<path d="M189.544 72.2986C188.581 72.6195 188.26 73.0367 188.132 73.2934C187.619 74.3845 188.646 76.3421 191.149 77.8825C192.497 78.7169 192.978 78.5885 193.203 78.3318C193.523 77.9788 192.817 76.8556 191.373 75.1868" fill="#6EDBFF"/>
<path d="M189.544 72.2986C188.581 72.6195 188.26 73.0367 188.132 73.2934C187.619 74.3845 188.646 76.3421 191.149 77.8825C192.497 78.7169 192.978 78.5885 193.203 78.3318C193.523 77.9788 192.817 76.8556 191.373 75.1868" stroke="black" stroke-width="1.2" stroke-miterlimit="10" stroke-linecap="round" stroke-linejoin="round"/>
<path d="M189.833 70.373C188.87 70.694 188.549 71.1112 188.421 71.3679C187.907 72.459 188.934 74.4166 191.437 75.957C192.785 76.7913 193.266 76.663 193.491 76.4062C193.812 76.0532 193.106 74.93 191.662 73.2613" fill="#6EDBFF"/>
<path d="M189.833 70.373C188.87 70.694 188.549 71.1112 188.421 71.3679C187.907 72.459 188.934 74.4166 191.437 75.957C192.785 76.7913 193.266 76.663 193.491 76.4062C193.812 76.0532 193.106 74.93 191.662 73.2613" stroke="black" stroke-width="1.2" stroke-miterlimit="10" stroke-linecap="round" stroke-linejoin="round"/>
<path d="M190.058 67.0996C189.031 67.3563 188.678 67.8377 188.549 68.0944C187.972 69.2497 188.902 71.4961 191.405 73.3574C192.753 74.3843 193.267 74.2881 193.523 74.0313C193.876 73.6783 193.203 72.3626 191.79 70.4371" fill="#6EDBFF"/>
<path d="M190.058 67.0996C189.031 67.3563 188.678 67.8377 188.549 68.0944C187.972 69.2497 188.902 71.4961 191.405 73.3574C192.753 74.3843 193.267 74.2881 193.523 74.0313C193.876 73.6783 193.203 72.3626 191.79 70.4371" stroke="black" stroke-width="1.2" stroke-miterlimit="10" stroke-linecap="round" stroke-linejoin="round"/>
<path d="M191.117 61.6121C190.86 61.6762 190.507 61.8367 190.122 62.1255C189.64 62.4785 189.384 62.8957 189.255 63.1524C188.806 64.1152 188.228 66.4579 190.25 69.4103C191.277 70.9186 193.074 71.1753 193.524 70.3088C194.133 69.3461 191.887 65.6877 190.667 63.4413" fill="#6EDBFF"/>
<path d="M191.117 61.6121C190.86 61.6762 190.507 61.8367 190.122 62.1255C189.64 62.4785 189.384 62.8957 189.255 63.1524C188.806 64.1152 188.228 66.4579 190.25 69.4103C191.277 70.9186 193.074 71.1753 193.524 70.3088C194.133 69.3461 191.887 65.6877 190.667 63.4413" stroke="black" stroke-width="1.2" stroke-miterlimit="10" stroke-linecap="round" stroke-linejoin="round"/>
<path d="M191.31 60.9382L191.759 65.3347" stroke="black" stroke-width="1.2" stroke-miterlimit="10" stroke-linecap="round" stroke-linejoin="round"/>
<path d="M197.054 85.713C199.043 84.7182 205.044 80.6747 206.745 79.4873C208.96 86.2907 213.581 96.7204 224.588 104.358C226.289 105.545 228.022 106.54 229.691 107.407C229.723 109.974 229.723 112.509 229.755 115.077H215.603C212.907 113.183 209.666 110.455 206.617 106.733C200.134 98.7742 197.92 90.3984 197.054 85.713Z" fill="white" stroke="black" stroke-width="1.2" stroke-miterlimit="10" stroke-linecap="round" stroke-linejoin="round"/>
<path d="M206.745 79.5193C205.109 80.6746 203.376 81.8299 201.514 83.0173C200.006 83.98 198.498 84.9106 197.054 85.745C197.118 86.451 198.016 90.1736 198.337 91.0401C200.038 90.4304 202.092 89.4676 204.338 87.9914C206.168 86.804 207.612 85.5525 208.735 84.4293L208.607 84.5576C208.125 83.5628 206.938 80.0648 206.745 79.5193Z" fill="#6EDBFF" stroke="black" stroke-width="1.2" stroke-miterlimit="10" stroke-linecap="round" stroke-linejoin="round"/>
<path d="M273.392 240.136C277.878 235.65 280.509 231.007 279.269 229.766C278.028 228.526 273.385 231.157 268.899 235.643C264.412 240.13 261.781 244.773 263.021 246.014C264.262 247.254 268.905 244.623 273.392 240.136Z" fill="#6EDBFF" stroke="black" stroke-width="1.2" stroke-miterlimit="10" stroke-linecap="round" stroke-linejoin="round"/>
<path d="M280.749 235.997L274.972 226.722L262.521 238.692L264.511 241.837L263.58 251.818C261.558 252.813 259.28 254.514 258.959 256.503C258.542 258.846 260.852 261.381 262.97 261.381C263.612 261.221 265.249 260.739 266.629 259.263C268.169 257.626 268.49 255.797 268.586 255.155" fill="white"/>
<path d="M280.749 235.997L274.972 226.722L262.521 238.692L264.511 241.837L263.58 251.818C261.558 252.813 259.28 254.514 258.959 256.503C258.542 258.846 260.852 261.381 262.97 261.381C263.612 261.221 265.249 260.739 266.629 259.263C268.169 257.626 268.49 255.797 268.586 255.155" stroke="black" stroke-width="1.2" stroke-miterlimit="10" stroke-linecap="round" stroke-linejoin="round"/>
<path d="M280.363 244.79L270.158 248.416" stroke="#6EDBFF" stroke-width="1.2" stroke-miterlimit="10" stroke-linecap="round" stroke-linejoin="round"/>
<path d="M281.326 240.843L271.153 244.469" stroke="#6EDBFF" stroke-width="1.2" stroke-miterlimit="10" stroke-linecap="round" stroke-linejoin="round"/>
<path d="M281.551 237.441L272.565 240.65" stroke="#6EDBFF" stroke-width="1.2" stroke-miterlimit="10" stroke-linecap="round" stroke-linejoin="round"/>
<path d="M278.983 248.994L269.228 252.46" stroke="#6EDBFF" stroke-width="1.2" stroke-miterlimit="10" stroke-linecap="round" stroke-linejoin="round"/>
<path d="M276.865 253.551L268.168 256.663" stroke="#6EDBFF" stroke-width="1.2" stroke-miterlimit="10" stroke-linecap="round" stroke-linejoin="round"/>
<path d="M218.619 284.84L217.849 289.493C217.624 292.413 213.163 295.045 209.248 295.366C204.723 295.751 200.198 295.398 194.037 293.087C190.314 291.707 179.371 284.744 182.227 278.999C183.415 276.625 185.95 275.148 188.71 275.309C198.658 278.486 208.638 281.663 218.619 284.84Z" fill="white" stroke="black" stroke-width="1.2" stroke-miterlimit="10" stroke-linecap="round" stroke-linejoin="round"/>
<path d="M187.393 280.122C187.233 277.491 188.677 275.918 188.677 275.309" stroke="black" stroke-width="1.2" stroke-miterlimit="10" stroke-linecap="round" stroke-linejoin="round"/>
<path d="M230.942 148.323C228.728 148.74 225.968 149.061 222.759 148.805C221.443 148.708 220.192 148.516 219.1 148.323C212.586 163.47 206.071 178.617 199.525 193.733C198.177 196.813 197.214 200.055 196.669 203.392C194.326 217.384 192.657 227.108 191.759 240.008C191.181 248.159 190.154 261.317 188.582 276.4C198.979 295.398 217.849 285.385 218.619 284.84C219.839 259.841 217.047 233.654 216.341 207.853C219.421 200.793 222.759 193.54 226.353 186.127C230.493 177.558 234.697 169.407 238.901 161.641C235.403 155.801 234.44 154.196 230.942 148.323Z" fill="black" stroke="black" stroke-width="1.2" stroke-miterlimit="10" stroke-linecap="round" stroke-linejoin="round"/>
<path d="M269.227 233.301C273.719 228.808 278.052 228.551 279.303 229.771L253.694 196.685L247.822 161.898C241.243 162.315 234.664 162.764 228.085 163.181L236.333 199.573C236.718 201.274 237.36 202.91 238.258 204.419L262.905 245.849C262.006 244.405 264.894 237.601 269.227 233.301Z" fill="black" stroke="black" stroke-width="1.2" stroke-miterlimit="10" stroke-linecap="round" stroke-linejoin="round"/>
<path d="M188.421 265.938C192.69 276.432 205.494 281.374 213.324 278.871C214.993 278.358 218.876 277.106 220.32 273.095" stroke="#6EDBFF" stroke-width="1.2" stroke-miterlimit="10" stroke-linecap="round" stroke-linejoin="round"/>
<path d="M258.99 242.351C268.328 221.331 275.774 225.022 277.892 225.311" stroke="#6EDBFF" stroke-width="1.2" stroke-miterlimit="10" stroke-linecap="round" stroke-linejoin="round"/>
<path d="M238.901 161.673L227.733 185.004" stroke="#6EDBFF" stroke-width="1.2" stroke-miterlimit="10" stroke-linecap="round" stroke-linejoin="round"/>
<path d="M246.635 100.796C253.598 106.765 252.86 123.805 262.648 137.123C266.371 142.194 270.992 146.077 274.811 149.318C275.485 149.896 275.774 150.794 275.517 151.661C275.356 152.238 275.1 152.848 274.682 153.458C272.949 156.025 270.382 155.64 268.392 157.437C265.376 160.165 268.168 163.791 265.825 167.193C264.574 168.99 262.231 170.145 247.116 171.012C242.527 171.269 233.06 168.958 230.332 168.99C226.995 163.47 225.23 156.924 223.465 148.195C221.635 139.209 220.865 134.043 219.806 127.592C224.074 119.794 228.31 111.996 232.579 104.198C234.889 103.395 237.488 102.625 240.345 101.951C242.559 101.47 244.677 101.085 246.635 100.796Z" fill="white"/>
<path d="M232.611 104.198C234.921 103.395 237.521 102.625 240.377 101.951C242.591 101.438 244.677 101.053 246.635 100.796C253.598 106.765 252.86 123.805 262.648 137.123C266.371 142.194 270.992 146.077 274.811 149.318C275.485 149.896 275.774 150.794 275.517 151.661C275.356 152.238 275.1 152.848 274.682 153.458C272.949 156.025 270.382 155.64 268.392 157.437C265.376 160.165 268.168 163.791 265.825 167.193C264.574 168.99 262.231 170.145 247.116 171.012C242.527 171.269 233.67 169.375 230.942 169.407C227.604 163.888 226.128 160.197 224.299 151.436C222.02 140.525 220.865 134.075 219.806 127.592" stroke="black" stroke-width="1.2" stroke-miterlimit="10" stroke-linecap="round" stroke-linejoin="round"/>
<path d="M222.534 139.979C222.598 137.701 222.951 134.46 224.299 130.801C225.294 128.105 226.545 125.955 227.637 124.383C225.037 125.442 222.438 126.501 219.838 127.56C220.063 129.261 220.384 131.058 220.769 132.951C221.282 135.519 221.892 137.861 222.534 139.979Z" fill="black"/>
<path d="M266.917 161.93C265.088 160.935 262.584 159.042 259.953 155.768C257.674 152.944 256.487 150.184 255.845 148.323C257.546 149.542 259.439 150.826 261.557 152.078C264.67 153.907 267.623 155.287 270.286 156.346C269.837 156.506 268.842 156.923 268.072 157.918C266.82 159.619 266.853 161.641 266.917 161.93Z" fill="black" stroke="black" stroke-width="1.2" stroke-miterlimit="10" stroke-linecap="round" stroke-linejoin="round"/>
<path d="M246.635 142.258L245.737 138.664C247.983 138.086 250.165 137.348 252.283 136.385C254.048 135.615 255.749 134.684 257.354 133.657L259.344 136.802C257.579 137.926 255.717 138.92 253.792 139.787C251.481 140.814 249.074 141.648 246.635 142.258Z" fill="#6EDBFF" stroke="black" stroke-width="1.2" stroke-miterlimit="10" stroke-linecap="round" stroke-linejoin="round"/>
<path d="M232.612 104.198C222.053 107.535 208.479 118.446 186.272 112.83C178.409 110.841 171.574 107.888 168.172 104.198C166.471 105.481 163.615 107.952 161.433 111.996C159.475 115.558 159.09 116.842 158.833 118.864C163.615 123.677 185.694 146.141 227.22 124.223" fill="white"/>
<path d="M232.612 104.198C222.053 107.535 208.479 118.446 186.272 112.83C178.409 110.841 171.574 107.888 168.172 104.198C166.471 105.481 163.615 107.952 161.433 111.996C159.475 115.558 159.09 116.842 158.833 118.864C163.615 123.677 185.694 146.141 227.22 124.223" stroke="black" stroke-width="1.2" stroke-miterlimit="10" stroke-linecap="round" stroke-linejoin="round"/>
<path d="M158.126 90.3981C155.302 86.3546 151.451 83.8193 150.135 84.4291C149.782 84.5895 149.333 84.9425 148.98 85.7769L147.055 90.6227" fill="white"/>
<path d="M152.157 88.5046C149.975 86.515 147.889 85.809 147.087 86.4829C146.958 86.6112 146.509 87.0605 146.734 88.5046L147.183 90.3017" fill="#6EDBFF"/>
<path d="M150.231 90.9116C148.049 88.922 145.963 88.2159 145.161 88.8899C145.033 89.0182 144.583 89.4675 144.808 90.9116L145.546 93.5431" fill="#6EDBFF"/>
<path d="M148.595 93.5432C146.413 91.5535 144.456 91.0401 143.525 91.5214C141.343 92.6446 143.108 99.5443 145.065 99.8973C146.734 100.186 146.509 98.4853 146.509 97.7793" fill="white"/>
<path d="M168.139 104.197C167.336 102.946 166.534 101.662 165.764 100.346C162.459 94.8587 161.335 89.4674 157.452 84.3328L155.784 87.6061L152.157 86.1941L145.546 93.5109L144.744 95.661C148.21 97.6186 153.345 111.45 158.8 118.863" fill="#6EDBFF"/>
<path d="M158.127 90.3981C155.303 86.3546 151.452 83.8193 150.136 84.4291C149.783 84.5895 149.141 85.3597 148.788 86.1941" fill="#6EDBFF"/>
<path d="M158.127 90.3981C155.303 86.3546 151.452 83.8193 150.136 84.4291C149.783 84.5895 149.141 85.3597 148.788 86.1941" stroke="black" stroke-width="1.2" stroke-miterlimit="10" stroke-linecap="round" stroke-linejoin="round"/>
<path d="M152.157 88.5047C149.975 86.515 147.889 85.809 147.087 86.4829C146.958 86.6112 146.509 87.0605 146.734 88.5047" stroke="black" stroke-width="1.2" stroke-miterlimit="10" stroke-linecap="round" stroke-linejoin="round"/>
<path d="M150.231 90.9116C148.049 88.922 145.963 88.2159 145.161 88.8899C145.033 89.0182 144.583 89.4675 144.808 90.9116" stroke="black" stroke-width="1.2" stroke-miterlimit="10" stroke-linecap="round" stroke-linejoin="round"/>
<path d="M148.595 93.5432C146.413 91.5535 144.456 91.0401 143.525 91.5214C141.343 92.6446 143.108 99.5443 145.065 99.8973C146.734 100.186 146.509 98.4853 146.509 97.7793" fill="#6EDBFF"/>
<path d="M148.595 93.5432C146.413 91.5535 144.456 91.0401 143.525 91.5214C141.343 92.6446 143.108 99.5443 145.065 99.8973C146.734 100.186 146.509 98.4853 146.509 97.7793" stroke="black" stroke-width="1.2" stroke-miterlimit="10" stroke-linecap="round" stroke-linejoin="round"/>
<path d="M168.138 104.197C167.336 102.946 166.534 101.662 165.764 100.346C162.458 94.8587 161.335 89.4674 157.452 84.3328L155.783 87.6061" stroke="black" stroke-width="1.2" stroke-miterlimit="10" stroke-linecap="round" stroke-linejoin="round"/>
<path d="M144.744 95.6931C147.247 96.367 152.767 111.835 158.8 118.895" stroke="black" stroke-width="1.2" stroke-miterlimit="10" stroke-linecap="round" stroke-linejoin="round"/>
<path d="M168.14 104.198C166.343 105.578 163.583 108.081 161.401 111.996C159.957 114.595 159.218 117.034 158.801 118.864C159.604 119.698 160.47 120.532 161.433 121.399C162.492 122.361 163.519 123.228 164.514 123.998C164.899 121.27 165.861 117.387 168.782 112.862C170.258 110.584 173.114 107.952 173.114 107.952C171.317 106.99 169.648 106.059 168.14 104.198Z" fill="#6EDBFF" stroke="black" stroke-width="1.2" stroke-miterlimit="10" stroke-linecap="round" stroke-linejoin="round"/>
<path d="M167.819 35.3936C167.177 36.3563 166.535 37.319 165.958 38.2818" stroke="white" stroke-width="1.2" stroke-miterlimit="10" stroke-linecap="round" stroke-linejoin="round"/>
<path d="M174.558 26.2473C173.98 26.9533 173.403 27.6914 172.825 28.4295C171.766 29.8095 170.771 31.1573 169.809 32.473" stroke="white" stroke-width="1.2" stroke-miterlimit="10" stroke-linecap="round" stroke-linejoin="round"/>
<path d="M201.033 15.0475L220.609 7.02466L220.031 18.1925L201.033 15.0475Z" fill="white" stroke="black" stroke-width="1.2" stroke-miterlimit="10" stroke-linecap="round" stroke-linejoin="round"/>
<path d="M220.031 18.1926L204.948 20.8561L201.033 15.0476L220.031 18.1926Z" fill="black" stroke="black" stroke-width="1.2" stroke-miterlimit="10" stroke-linecap="round" stroke-linejoin="round"/>
<path d="M241.822 2.5L239.222 12.6088L247.598 8.46899L241.822 2.5Z" fill="black" stroke="black" stroke-width="1.2" stroke-miterlimit="10" stroke-linecap="round" stroke-linejoin="round"/>
<path d="M241.821 2.5L233.959 12.6088H239.222L241.821 2.5Z" fill="white" stroke="black" stroke-width="1.2" stroke-miterlimit="10" stroke-linecap="round" stroke-linejoin="round"/>
<path d="M227.958 40.5283L232.643 35.9392L234.376 38.8274L227.958 40.5283Z" fill="black" stroke="black" stroke-width="1.2" stroke-miterlimit="10" stroke-linecap="round" stroke-linejoin="round"/>
<path d="M218.394 30.2913L209.505 33.5325L209.088 36.517L210.821 37.2872L218.394 30.2913Z" fill="black" stroke="black" stroke-width="1.2" stroke-miterlimit="10" stroke-linecap="round" stroke-linejoin="round"/>
<path d="M187.362 15.8181L183.543 20.8565L190.282 18.3212L187.362 15.8181Z" fill="black" stroke="black" stroke-width="1.2" stroke-miterlimit="10" stroke-linecap="round" stroke-linejoin="round"/>
<path d="M199.942 27.0178L202.895 27.9164L201.419 30.2911L199.942 27.0178Z" fill="black" stroke="black" stroke-width="1.2" stroke-miterlimit="10" stroke-linecap="round" stroke-linejoin="round"/>
<path d="M138.52 59.6869L141.408 66.4261L143.879 59.6548L138.52 59.6869Z" fill="black" stroke="black" stroke-width="1.2" stroke-miterlimit="10" stroke-linecap="round" stroke-linejoin="round"/>
<path d="M149.559 69.6672C149.462 73.1973 149.591 76.2139 149.751 78.5565" stroke="white" stroke-width="1.2" stroke-miterlimit="10" stroke-linecap="round" stroke-linejoin="round"/>
<path d="M153.827 45.6951C151.965 51.1827 150.874 56.4136 150.265 61.1631" stroke="white" stroke-width="1.2" stroke-miterlimit="10" stroke-linecap="round" stroke-linejoin="round"/>
<path d="M173.275 14.2776C168.493 19.0913 162.299 26.4723 157.421 36.7415C156.812 38.0573 156.234 39.3409 155.688 40.6567" stroke="white" stroke-width="1.2" stroke-miterlimit="10" stroke-linecap="round" stroke-linejoin="round"/>
<path d="M250.454 196.974C250.582 196.845 251.513 195.818 252.925 195.883C253.76 195.915 254.369 196.332 254.594 196.524" stroke="#6EDBFF" stroke-width="1.2" stroke-miterlimit="10" stroke-linecap="round" stroke-linejoin="round"/>
<path d="M155.817 90.9116C155.014 91.6176 154.084 92.5483 153.185 93.7678C151.998 95.3402 151.26 96.8485 150.778 98.0359" stroke="black" stroke-width="1.2" stroke-miterlimit="10" stroke-linecap="round" stroke-linejoin="round"/>
<path d="M268.169 256.664C269.998 250.791 270.447 238.211 277.218 235.9C278.117 235.612 279.754 235.227 280.748 236.029C282.578 238.243 280.813 244.373 278.213 251.016C277.282 253.422 275.229 256.952 275.229 256.952C275.229 256.952 267.142 261.413 262.97 261.413C262.97 261.413 266.949 260.611 268.169 256.664Z" stroke="black" stroke-width="1.2" stroke-miterlimit="10" stroke-linecap="round" stroke-linejoin="round"/>
<path d="M237.232 75.9892C237.232 75.9892 232.932 78.0751 230.59 83.1134C228.247 88.1518 228.504 92.5804 228.504 92.5804C228.504 92.5804 225.68 87.157 230.846 78.6848C236.013 70.2127 241.661 74.9943 241.661 74.9943L237.232 75.9892Z" fill="white"/>
<path d="M243.554 89.1467C248.817 85.1995 249.652 78.2035 246.667 74.9302C244.613 72.6838 241.212 71.7532 237.296 73.1973C224.845 80.2253 227.477 93.126 229.274 93.832C230.942 94.506 233.157 93.6074 235.146 91.6177" stroke="black" stroke-width="1.2" stroke-miterlimit="10" stroke-linecap="round" stroke-linejoin="round"/>
<path d="M236.302 73.7749C236.013 75.219 235.307 80.482 236.302 81.9261C237.04 81.4768 238.228 81.0596 238.998 81.4447C239.928 81.9261 240.955 84.1725 237.778 85.9054C240.185 90.7833 243.555 89.4034 243.555 89.4034C248.818 85.4561 249.62 78.1714 246.636 74.9302C244.582 72.6838 240.153 71.4322 236.302 73.7749Z" fill="black"/>
<path d="M249.973 81.7017C253.553 81.7017 256.455 78.6413 256.455 74.8662C256.455 71.0911 253.553 68.0308 249.973 68.0308C246.393 68.0308 243.49 71.0911 243.49 74.8662C243.49 78.6413 246.393 81.7017 249.973 81.7017Z" fill="black"/>
</svg>
