<svg width="368" height="298" viewBox="0 0 368 298" fill="none" xmlns="http://www.w3.org/2000/svg">
<path d="M320.723 158.373C320.723 99.7917 283.973 49.8148 232.281 30.1783L217.684 4.90027C216.832 3.4189 215.245 2.5 213.53 2.5H153.651C151.93 2.5 150.354 3.41333 149.497 4.90027L134.9 30.1839C83.2191 49.826 46.4799 99.7973 46.4799 158.373C46.4799 165.835 47.0925 173.148 48.2453 180.287L33.6432 205.582C32.7856 207.063 32.7856 208.895 33.6432 210.382L63.5881 262.247C64.4458 263.734 66.0274 264.647 67.7427 264.647H96.9691C120.588 283.927 150.739 295.5 183.607 295.5C216.476 295.5 246.627 283.927 270.245 264.647H299.455C301.17 264.647 302.752 263.734 303.61 262.247L333.549 210.382C334.407 208.901 334.407 207.069 333.549 205.582L318.958 180.309C320.1 173.164 320.723 165.841 320.723 158.373Z" fill="#6EDAFF" stroke="white" stroke-width="2" stroke-linecap="round" stroke-linejoin="round"/>
<path d="M140.266 225.864L142.833 257.794L160.675 256.35L158.14 224.644" fill="#6EDAFF"/>
<path d="M140.266 225.864L142.833 257.794L160.675 256.35L158.14 224.644" stroke="black" stroke-width="1.2" stroke-miterlimit="10" stroke-linecap="round" stroke-linejoin="round"/>
<path d="M158.141 224.644L145.241 63.7751L127.398 65.1871L140.267 225.864" fill="#6EDAFF"/>
<path d="M158.141 224.644L145.241 63.7751L127.398 65.1871L140.267 225.864" stroke="black" stroke-width="1.2" stroke-miterlimit="10" stroke-linecap="round" stroke-linejoin="round"/>
<path d="M242.9 108.454L228.008 107.51L224.884 156.831L239.777 157.774L242.9 108.454Z" fill="#6EDAFF" stroke="black" stroke-width="1.2" stroke-miterlimit="10" stroke-linecap="round" stroke-linejoin="round"/>
<path d="M242.858 108.477L227.968 107.546L227.391 116.564C229.605 117.174 232.012 117.591 234.579 117.719C237.307 117.879 239.906 117.719 242.313 117.334L242.858 108.477Z" fill="black" stroke="black" stroke-width="1.2" stroke-miterlimit="10" stroke-linecap="round" stroke-linejoin="round"/>
<path d="M242.877 108.474L227.984 107.531L227.532 114.673L242.424 115.616L242.877 108.474Z" fill="black" stroke="black" stroke-width="1.2" stroke-miterlimit="10" stroke-linecap="round" stroke-linejoin="round"/>
<path d="M281.335 111.814L189.396 106.006C184.422 105.685 181.694 100.069 184.518 95.9618L235.349 22.3143C238.109 18.3351 244.11 18.7202 246.324 23.0203L287.464 102.476C289.742 106.905 286.341 112.135 281.335 111.814Z" fill="#6EDAFF" stroke="white" stroke-width="3" stroke-miterlimit="10" stroke-linecap="round" stroke-linejoin="round"/>
<path d="M246.066 73.4022C246.131 72.9208 246.195 72.4394 246.195 71.9581C246.259 70.3536 246.002 68.7811 245.521 67.305L245.072 67.0803C242.986 66.0855 240.707 65.6363 238.461 65.8288C238.621 65.9572 238.782 66.1176 238.91 66.2781C240.162 67.6259 240.868 69.3588 240.932 71.1879C241.574 71.3163 242.183 71.5088 242.761 71.7976L246.066 73.4022Z" fill="white" stroke="#6EDAFF" stroke-width="1.2" stroke-miterlimit="10" stroke-linecap="round" stroke-linejoin="round"/>
<path d="M248.57 97.438C250.078 98.1761 251.683 98.5933 253.352 98.6895C258.614 99.0104 263.492 96.1865 265.803 91.4371C267.311 88.3243 267.503 84.8265 266.38 81.5853C265.257 78.3442 262.915 75.7128 259.802 74.2045L245.072 67.0805C243.532 66.3424 241.927 65.9252 240.291 65.8289C238.59 65.7327 236.889 65.9573 235.22 66.5349C231.979 67.6581 229.348 70.0007 227.84 73.1135C226.331 76.2262 226.139 79.7241 227.262 82.9652C227.583 83.8637 227.968 84.6981 228.449 85.5004L232.429 81.81C232.364 81.6174 232.268 81.457 232.204 81.2644C231.53 79.339 231.658 77.2531 232.525 75.424C233.423 73.5948 234.964 72.2149 236.889 71.541C238.815 70.8671 240.9 70.9955 242.73 71.8619L257.459 78.986C259.288 79.8845 260.668 81.4249 261.342 83.3503C262.016 85.2757 261.888 87.3616 261.021 89.1908C260.123 91.0199 258.582 92.3998 256.657 93.0737C255.662 93.4267 254.667 93.5551 253.672 93.4909C252.71 93.4267 251.747 93.17 250.849 92.7528L237.403 86.2705L233.295 90.0893C233.456 90.1856 233.648 90.2818 233.809 90.346L248.57 97.438Z" fill="white" stroke="#6EDAFF" stroke-width="1.2" stroke-miterlimit="10" stroke-linecap="round" stroke-linejoin="round"/>
<path d="M242.472 72.4395C241.959 72.1828 241.445 72.0223 240.932 71.8939C240.835 73.8835 239.969 75.7127 238.525 77.0605L226.523 88.228C225.047 89.6079 223.089 90.3459 221.036 90.2497C220.971 90.2497 220.907 90.2497 220.811 90.2497C218.853 90.1213 217.056 89.287 215.709 87.8429C214.329 86.3346 213.591 84.4092 213.655 82.3554C213.719 80.3016 214.585 78.4404 216.094 77.0284L228.096 65.893C229.636 64.449 231.658 63.743 233.776 63.8713C235.188 63.9676 236.535 64.449 237.658 65.2191C240.194 64.8661 242.761 65.2512 245.136 66.3744C244.558 65.0587 243.756 63.8071 242.729 62.7161C240.386 60.213 237.273 58.8331 234.096 58.6406C230.695 58.416 227.197 59.5391 224.501 62.0743L212.5 73.2096C209.964 75.5522 208.52 78.7292 208.392 82.195C208.264 85.6286 209.483 88.934 211.826 91.437C214.072 93.8438 217.153 95.32 220.458 95.5125C224.02 95.7371 227.454 94.5177 230.053 92.0788L242.055 80.9434C244.044 79.0822 245.36 76.7396 245.906 74.1403L242.472 72.4395Z" fill="white" stroke="#6EDAFF" stroke-width="1.2" stroke-miterlimit="10" stroke-linecap="round" stroke-linejoin="round"/>
<path d="M312.334 197.688L312.259 197.382C312.039 196.488 311.237 195.859 310.316 195.859H201.708C201.124 195.859 200.569 196.115 200.189 196.559L181.117 218.841C180.006 220.138 180.929 222.141 182.637 222.141H252.581C236.921 232.057 211.698 238.026 184.518 238.026C161.894 238.026 140.65 233.983 124.733 226.602C109.394 219.51 100.954 210.3 100.954 200.673C100.954 191.046 109.394 181.836 124.733 174.744C140.65 167.363 161.894 163.32 184.518 163.32C215.389 163.32 243.725 171.021 258.422 183.44L258.644 183.628C259.266 184.155 260.146 184.251 260.867 183.871L288.56 169.296C289.865 168.609 290.003 166.795 288.818 165.918L288.298 165.534C276.489 156.837 260.861 149.617 243.147 144.675C224.887 139.605 204.35 136.909 183.651 136.909C149.218 136.909 116.775 144.097 92.354 157.19C67.4839 170.508 53.7812 188.414 53.7812 207.572C53.7812 226.73 67.4839 244.637 92.386 257.954C116.807 271.015 149.218 278.235 183.683 278.235C218.148 278.235 250.56 271.047 274.981 257.954C299.883 244.637 313.585 226.73 313.585 207.572C313.585 204.267 313.136 200.93 312.334 197.688Z" fill="black" stroke="black" stroke-width="1.2" stroke-miterlimit="10" stroke-linecap="round" stroke-linejoin="round"/>
<path d="M292.246 208.342C287.047 235.747 240.901 257.184 184.743 257.184C125.087 257.184 76.7266 233.02 76.7266 203.176C76.7266 173.332 125.087 149.167 184.743 149.167C216.48 149.167 244.977 156.003 264.744 166.881" stroke="white" stroke-width="1.2" stroke-miterlimit="10" stroke-dasharray="12 12"/>
<path d="M208.297 208.343H289.133" stroke="white" stroke-width="1.2" stroke-miterlimit="10" stroke-dasharray="12 12"/>
<path d="M136.863 183.376C139.719 184.275 142.767 184.628 145.912 184.371C149.057 184.114 152.042 183.248 154.705 181.932L151.143 137.423C148.287 136.524 145.238 136.171 142.094 136.428C138.949 136.685 135.964 137.551 133.301 138.867L136.863 183.376Z" fill="black" stroke="black" stroke-width="1.2" stroke-miterlimit="10" stroke-linecap="round" stroke-linejoin="round"/>
<path d="M144.824 220.28L145.947 234.432" stroke="black" stroke-width="1.2" stroke-miterlimit="10" stroke-linecap="round" stroke-linejoin="round"/>
<path d="M143.988 210.14L144.47 215.884" stroke="black" stroke-width="1.2" stroke-miterlimit="10" stroke-linecap="round" stroke-linejoin="round"/>
<path d="M125.759 180.777L92.16 170.54L80.832 29.6628L114.046 35.1182L125.759 180.777Z" fill="#6EDAFF" stroke="black" stroke-width="1.2" stroke-miterlimit="10" stroke-linecap="round" stroke-linejoin="round"/>
<path d="M102.669 97.2677C106.468 96.9624 108.721 86.4465 107.703 73.7797C106.685 61.113 102.781 51.092 98.9828 51.3972C95.1846 51.7025 92.9307 62.2184 93.9487 74.8852C94.9667 87.5519 98.8711 97.5729 102.669 97.2677Z" stroke="black" stroke-width="1.2" stroke-miterlimit="10" stroke-linecap="round" stroke-linejoin="round"/>
<path d="M197.546 170.957L125.76 180.777L114.047 35.1183L185.833 25.2986L197.546 170.957Z" fill="white" stroke="black" stroke-width="1.2" stroke-miterlimit="10" stroke-linecap="round" stroke-linejoin="round"/>
<path d="M185.832 25.2986L114.078 35.6959L80.832 29.6629L152.586 19.2656L185.832 25.2986Z" fill="#6EDAFF" stroke="black" stroke-width="1.2" stroke-miterlimit="10" stroke-linecap="round" stroke-linejoin="round"/>
<path d="M160.197 157.855C172.634 156.855 181.867 145.476 180.819 132.438C179.771 119.4 168.839 109.641 156.402 110.641C143.965 111.64 134.732 123.02 135.78 136.058C136.828 149.095 147.76 158.854 160.197 157.855Z" fill="white" stroke="black" stroke-width="1.2" stroke-miterlimit="10" stroke-linecap="round" stroke-linejoin="round"/>
<path d="M154.093 110.948L147.707 113.259C147.707 113.259 143.054 115.569 140.711 119.259C138.369 122.95 136.026 125.838 135.898 130.94C135.769 136.043 135.962 137.711 136.09 138.385C136.09 138.385 136.315 139.862 136.989 139.958C137.631 140.022 139.492 139.829 141.738 138.77C143.985 137.744 146.841 136.909 151.815 131.646C156.789 126.351 161.474 121.057 164.298 118.971C167.122 116.885 170.074 114.35 173.765 113.772C177.455 113.194 180.568 113.13 181.209 113.355C181.851 113.547 178.706 112.488 176.717 112.071C174.727 111.654 166.705 110.114 161.281 110.403C155.858 110.691 154.093 110.948 154.093 110.948Z" fill="white"/>
<path d="M171.005 114.735C176.46 118.65 180.247 125.004 180.856 132.417C181.915 145.445 172.673 156.837 160.222 157.832C147.771 158.827 136.86 149.072 135.801 136.043C134.742 123.014 143.984 111.622 156.436 110.627" stroke="black" stroke-width="1.2" stroke-miterlimit="10" stroke-linecap="round" stroke-linejoin="round"/>
<path d="M136.41 139.99C153.739 138.61 159.066 114.542 177.967 113.002C190.675 111.975 186.567 129.111 180.599 129.593" stroke="black" stroke-width="1.2" stroke-miterlimit="10" stroke-linecap="round" stroke-linejoin="round"/>
<path d="M182.235 113.515C182.235 113.515 169.495 109.247 156.402 110.659" stroke="black" stroke-width="1.2" stroke-miterlimit="10" stroke-linecap="round" stroke-linejoin="round"/>
<path d="M180.762 129.015L179.062 124.266L175.628 119.163L171.938 115.441L172.034 114.318L174.922 113.451L178.58 112.97L181.95 113.515L184.709 115.28L186.154 118.008L186.346 120.447L185.736 123.848L184.742 126.223L182.977 128.469L180.762 129.015Z" fill="black"/>
<path d="M155.287 96.5278C167.724 95.5283 176.956 84.1488 175.909 71.1111C174.861 58.0733 163.929 48.3144 151.492 49.3139C139.055 50.3135 129.822 61.693 130.87 74.7307C131.918 87.7685 142.849 97.5274 155.287 96.5278Z" fill="#6EDAFF" stroke="black" stroke-width="1.2" stroke-miterlimit="10" stroke-linecap="round" stroke-linejoin="round"/>
<path d="M149.187 49.6553L142.801 51.9658C142.801 51.9658 138.148 54.2763 135.805 57.9667C133.463 61.6571 131.12 64.5453 130.992 69.6477C130.863 74.75 131.056 76.4187 131.184 77.0926C131.184 77.0926 131.409 78.5688 132.083 78.6651C132.724 78.7293 134.586 78.5367 136.832 77.4777C139.078 76.4508 141.934 75.6165 146.908 70.3537C151.882 65.0587 156.568 59.7638 159.392 57.6779C162.216 55.5921 165.168 53.0569 168.858 52.4793C172.549 51.9017 175.661 51.8375 176.303 52.0621C176.945 52.2547 173.8 51.1957 171.811 50.7785C169.821 50.3613 161.798 48.821 156.375 49.1098C150.952 49.3986 149.187 49.6553 149.187 49.6553Z" fill="white"/>
<path d="M166.063 53.442C171.519 57.3571 175.305 63.711 175.915 71.1239C176.974 84.1526 167.732 95.5447 155.281 96.5395C142.83 97.5343 131.919 87.7788 130.86 74.7501C129.801 61.7214 139.043 50.3293 151.494 49.3345" stroke="black" stroke-width="1.2" stroke-miterlimit="10" stroke-linecap="round" stroke-linejoin="round"/>
<path d="M131.504 78.665C148.833 77.2851 154.16 53.2173 173.061 51.6769C185.769 50.65 181.661 67.7863 175.692 68.2677" stroke="black" stroke-width="1.2" stroke-miterlimit="10" stroke-linecap="round" stroke-linejoin="round"/>
<path d="M177.298 52.1905C177.298 52.1905 164.558 47.9225 151.465 49.3345" stroke="black" stroke-width="1.2" stroke-miterlimit="10" stroke-linecap="round" stroke-linejoin="round"/>
<path d="M175.853 67.7223L174.152 62.9729L170.719 57.8706L166.996 54.1481L167.092 53.0249L169.98 52.1585L173.639 51.645L177.008 52.2226L179.8 53.9555L181.212 56.6832L181.405 59.1542L180.827 62.5558L179.832 64.8984L178.067 67.1768L175.853 67.7223Z" fill="black"/>
<path d="M107.482 157.537C111.28 157.231 113.534 146.716 112.516 134.049C111.498 121.382 107.594 111.361 103.795 111.666C99.9971 111.972 97.7432 122.487 98.7612 135.154C99.7792 147.821 103.684 157.842 107.482 157.537Z" stroke="black" stroke-width="1.2" stroke-miterlimit="10" stroke-linecap="round" stroke-linejoin="round"/>
<path d="M105.253 73.3699L102.204 72.2468L97.0056 68.7489L93.0905 64.6413L89.2718 60.3733L85.7739 56.4583L83.5918 54.6291L81.2812 53.6985L82.0514 53.2813L85.8381 52.6395L94.9197 51.5164L99.9579 51.5484L102.782 54.4366L104.579 58.2233L105.991 62.9085L107.852 72.4714L107.948 73.755L105.253 73.3699Z" fill="#6EDAFF"/>
<path d="M93.7651 65.5719C88.2134 59.6031 84.1379 52.7357 79.9662 53.7305C76.3721 54.597 85.3574 70.8026 93.7009 72.0542" fill="black"/>
<path d="M107.692 73.7872C93.733 72.6641 86.994 52.062 79.9662 53.7628C76.3721 54.6293 85.4858 69.1341 93.7009 72.0864" stroke="black" stroke-width="1.2" stroke-miterlimit="10" stroke-linecap="round" stroke-linejoin="round"/>
<path d="M79.9648 53.7627C81.8582 53.2172 94.0846 51.1313 98.9945 51.4201" stroke="black" stroke-width="1.2" stroke-miterlimit="10" stroke-linecap="round" stroke-linejoin="round"/>
<path d="M98.9648 51.3881C102.752 51.0672 106.667 61.1115 107.693 73.7551" stroke="black" stroke-width="1.2" stroke-miterlimit="10" stroke-linecap="round" stroke-linejoin="round"/>
<path d="M110.258 133.7L107.177 132.577L101.978 129.079L98.0953 124.971L94.2444 120.703L90.7466 116.788L88.5644 114.959L86.2539 114.029L87.0241 113.611L90.8107 112.97L99.8923 111.846L104.931 111.879L107.787 114.767L109.552 118.553L110.964 123.239L112.825 132.801L112.921 134.085L110.258 133.7Z" fill="#6EDAFF"/>
<path d="M98.7377 125.934C93.1861 119.965 89.1106 113.098 84.9389 114.093C81.3447 114.959 90.33 131.165 98.6736 132.416" fill="black"/>
<path d="M112.665 134.117C98.7059 132.994 91.9669 112.392 84.9391 114.093C81.3449 114.959 90.3944 129.464 98.6096 132.384" stroke="black" stroke-width="1.2" stroke-miterlimit="10" stroke-linecap="round" stroke-linejoin="round"/>
<path d="M84.9375 114.093C86.8308 113.547 99.0573 111.461 103.967 111.75" stroke="black" stroke-width="1.2" stroke-miterlimit="10" stroke-linecap="round" stroke-linejoin="round"/>
<path d="M103.938 111.75C107.724 111.429 111.639 121.473 112.666 134.117" stroke="black" stroke-width="1.2" stroke-miterlimit="10" stroke-linecap="round" stroke-linejoin="round"/>
<path d="M229.893 133.476L229.637 138.032" stroke="black" stroke-width="1.2" stroke-miterlimit="10" stroke-linecap="round" stroke-linejoin="round"/>
<path d="M231.079 114.895L230.148 129.849" stroke="black" stroke-width="1.2" stroke-miterlimit="10" stroke-linecap="round" stroke-linejoin="round"/>
</svg>
