<svg width="368" height="298" viewBox="0 0 368 298" fill="none" xmlns="http://www.w3.org/2000/svg">
<path d="M320.753 158.377C320.753 99.7767 283.991 49.8267 232.304 30.1515L217.698 4.91065C216.847 3.42172 215.252 2.5 213.55 2.5H153.674C151.973 2.5 150.377 3.42172 149.526 4.91065L134.921 30.187C83.2336 49.8267 46.4713 99.8122 46.4713 158.377C46.4713 165.821 47.0739 173.16 48.2438 180.285L33.6381 205.597C32.7873 207.086 32.7873 208.929 33.6381 210.383L63.5939 262.247C64.4448 263.736 66.04 264.658 67.7417 264.658H96.9885C120.599 283.943 150.767 295.5 183.63 295.5C216.493 295.5 246.661 283.908 270.271 264.658H299.483C301.185 264.658 302.78 263.736 303.631 262.247L333.586 210.383C334.437 208.894 334.437 207.051 333.586 205.597L318.981 180.321C320.151 173.195 320.753 165.857 320.753 158.377Z" fill="#B880FF" stroke="white" stroke-width="2" stroke-miterlimit="10" stroke-linecap="round" stroke-linejoin="round"/>
<path d="M193.698 163.162C193.167 164.687 191.749 168.019 188.345 170.572C186.608 171.883 184.871 172.592 183.63 173.018C177.568 167.736 174.13 163.304 168.032 158.022C164.203 151.286 139.034 149.018 139.246 127.18C139.282 124.45 139.778 119.842 143.039 114.418L168.032 103.57L194.904 156.817L193.698 163.162Z" fill="white"/>
<path d="M277.007 64.8223C257.935 18.4883 181.858 43.871 165.409 77.5491L158.035 111.334L164.203 137.993C173.279 147.99 188.983 144.905 194.124 164.651C196.783 174.861 195.684 184.61 194.124 188.439L287.714 200.067C285.587 189.077 282.431 176.563 277.752 163.056C273.675 151.322 269.137 140.935 264.635 131.966C267.648 122.997 276.334 98.9614 276.617 93.7501C276.759 84.1075 276.866 74.4649 277.007 64.8223Z" fill="white"/>
<path d="M164.168 137.957C173.243 147.954 188.948 144.87 194.088 164.616C196.747 174.826 195.648 184.575 194.088 188.403" stroke="#B880FF" stroke-width="1.2" stroke-miterlimit="10" stroke-linecap="round" stroke-linejoin="round"/>
<path d="M111.204 87.688C109.608 87.2626 106.276 86.1636 103.475 83.0794C98.4059 77.4782 99.4695 70.2463 99.6113 69.2182C105.602 61.4191 110.388 55.2152 116.344 47.416C122.442 41.3894 132.616 36.9581 140.592 39.5105C159.168 45.4662 163.919 73.3305 164.167 76.1311" fill="black"/>
<path d="M111.204 87.688C109.608 87.2626 106.276 86.1636 103.475 83.0794C98.4059 77.4782 99.4695 70.2463 99.6113 69.2182C105.602 61.4191 110.388 55.2152 116.344 47.416C122.442 41.3894 132.616 36.9581 140.592 39.5105C159.168 45.4662 163.919 73.3305 164.167 76.1311" stroke="black" stroke-width="1.2" stroke-miterlimit="10" stroke-linecap="round" stroke-linejoin="round"/>
<path d="M105.709 73.7556L115.99 60.0361L143.712 52.8042L157.751 79.924L161.083 86.3406C164.522 104.881 160.835 115.091 155.411 117.608C143.996 122.819 114.253 105.448 105.709 73.7556Z" fill="#B880FF"/>
<path d="M146.583 104.598C149.526 102.435 151.617 96.1251 150.093 93.2891" stroke="black" stroke-width="1.2" stroke-miterlimit="10" stroke-linecap="round" stroke-linejoin="round"/>
<path d="M149.526 65.8147C149.242 60.4262 150.873 56.5621 153.177 56.0303C155.056 55.6049 157.006 57.5902 157.715 58.2992C162.217 62.9078 161.012 70.2815 160.693 71.9477L168.031 80.6686C174.944 93.7499 177.425 109.171 170.123 113.496C168.74 114.311 165.408 115.836 159.204 114.134" fill="#B880FF"/>
<path d="M149.526 65.8147C149.242 60.4262 150.873 56.5621 153.177 56.0303C155.056 55.6049 157.006 57.5902 157.715 58.2992C162.217 62.9078 161.012 70.2815 160.693 71.9477L168.031 80.6686C174.944 93.7499 177.425 109.171 170.123 113.496C168.74 114.311 165.408 115.836 159.204 114.134" stroke="black" stroke-width="1.2" stroke-miterlimit="10" stroke-linecap="round" stroke-linejoin="round"/>
<path d="M113.083 73.7561L108.829 69.6084L105.709 73.7561C114.217 105.449 143.996 122.82 155.375 117.573C156.581 117.041 157.68 116.12 158.637 114.808C140.841 122.891 112.48 85.6321 113.083 73.7561Z" fill="white"/>
<path d="M105.709 73.7559C114.217 105.449 143.996 122.82 155.375 117.573C160.835 115.056 164.486 104.846 161.048 86.3054" stroke="black" stroke-width="1.2" stroke-miterlimit="10" stroke-linecap="round" stroke-linejoin="round"/>
<path d="M149.526 65.8151C146.017 60.3911 143.003 59.2213 140.947 59.1149C132.829 58.654 128.646 73.8269 115.742 75.8831C113.118 76.3085 110.921 76.0603 109.609 75.8476C96.1021 70.3173 89.0829 56.5624 92.2026 44.8637C95.6413 31.9242 109.751 27.5638 110.495 27.3511C109.822 28.4855 107.624 32.5269 108.51 37.809C109.183 41.8859 111.346 44.5801 112.339 45.6436C112.126 45.041 111.204 42.2758 112.587 39.1916C114.076 35.8592 117.089 34.7248 117.621 34.5476C116.876 39.8297 119.003 44.651 122.832 46.6363C125.313 47.9479 127.83 47.6643 129.071 47.4516L143.074 47.6289C145.237 48.976 147.364 50.3586 149.526 51.7057" fill="black"/>
<path d="M149.526 65.8151C146.017 60.3911 143.003 59.2213 140.947 59.1149C132.829 58.654 128.646 73.8269 115.742 75.8831C113.118 76.3085 110.921 76.0603 109.609 75.8476C96.1021 70.3173 89.0829 56.5624 92.2026 44.8637C95.6413 31.9242 109.751 27.5638 110.495 27.3511C109.822 28.4855 107.624 32.5269 108.51 37.809C109.183 41.8859 111.346 44.5801 112.339 45.6436C112.126 45.041 111.204 42.2758 112.587 39.1916C114.076 35.8592 117.089 34.7248 117.621 34.5476C116.876 39.8297 119.003 44.651 122.832 46.6363C125.313 47.9479 127.83 47.6643 129.071 47.4516L143.074 47.6289C145.237 48.976 147.364 50.3586 149.526 51.7057" stroke="black" stroke-width="1.2" stroke-miterlimit="10" stroke-linecap="round" stroke-linejoin="round"/>
<path d="M131.552 90.3472C129.638 96.3738 129.46 101.16 130.949 101.833C132.403 102.471 135.771 99.2453 138.89 94.034" stroke="black" stroke-width="1.2" stroke-miterlimit="10" stroke-linecap="round" stroke-linejoin="round"/>
<path d="M148.533 92.2964C148.888 92.6154 149.419 93.0054 150.128 93.289C151.227 93.7499 152.185 93.7499 152.716 93.7144" stroke="black" stroke-width="1.2" stroke-miterlimit="10" stroke-linecap="round" stroke-linejoin="round"/>
<path d="M215.5 81.4489C216.316 81.0235 217.45 80.4563 218.868 79.8891C222.519 78.4711 225.568 78.152 227.376 77.9748C229.432 77.7621 232.233 77.6912 235.53 78.0811" stroke="#B880FF" stroke-width="1.2" stroke-miterlimit="10" stroke-linecap="round" stroke-linejoin="round"/>
<path d="M222.909 111.298C222.555 116.155 221.527 122.855 218.62 130.335C216.351 136.149 213.586 140.758 211.175 144.197" stroke="#B880FF" stroke-width="1.2" stroke-miterlimit="10" stroke-linecap="round" stroke-linejoin="round"/>
<path d="M276.617 93.7143C282.537 91.9063 286.437 77.3361 281.403 69.2179C272.788 55.3921 242.301 61.1706 236.699 75.3509C235.281 78.9668 233.651 90.2047 240.457 93.5725L240.705 87.1914C240.705 84.6035 241.663 82.1219 243.435 80.243C251.234 72.0185 265.45 71.5931 271.583 76.5916C276.652 80.7039 277.007 87.9713 277.042 90.3465L276.617 93.7143Z" fill="white"/>
<path d="M164.38 155.718C165.337 154.158 167.287 151.534 170.619 149.372C173.562 147.458 176.327 146.713 178.064 146.394" stroke="#B880FF" stroke-width="1.2" stroke-miterlimit="10" stroke-linecap="round" stroke-linejoin="round"/>
<mask id="mask0" mask-type="alpha" maskUnits="userSpaceOnUse" x="32" y="1" width="303" height="296">
<path d="M320.753 158.377C320.753 99.7767 283.991 49.8267 232.304 30.1515L217.698 4.91065C216.847 3.42172 215.252 2.5 213.55 2.5H153.674C151.973 2.5 150.377 3.42172 149.526 4.91065L134.921 30.187C83.2336 49.8267 46.4713 99.8122 46.4713 158.377C46.4713 165.821 47.0739 173.16 48.2438 180.285L33.6381 205.597C32.7873 207.086 32.7873 208.929 33.6381 210.383L63.5939 262.247C64.4448 263.736 66.04 264.658 67.7417 264.658H96.9885C120.599 283.943 150.767 295.5 183.63 295.5C216.493 295.5 246.661 283.908 270.271 264.658H299.483C301.185 264.658 302.78 263.736 303.631 262.247L333.586 210.383C334.437 208.894 334.437 207.051 333.586 205.597L318.981 180.321C320.151 173.195 320.753 165.857 320.753 158.377Z" fill="#B880FF" stroke="white" stroke-width="1.2" stroke-miterlimit="10"/>
</mask>
<g mask="url(#mask0)">
<path d="M52.7461 203.116L55.6885 220.593L189.55 343.43" stroke="black" stroke-width="1.2" stroke-miterlimit="10" stroke-linecap="round" stroke-linejoin="round"/>
<path d="M349.043 210.241L126.519 169.721L62.495 195.671L54.4477 199.571C52.3206 200.599 52.037 203.506 53.9159 204.924L182.496 301.704" fill="#B880FF"/>
<path d="M349.043 210.241L126.519 169.721L62.495 195.671L54.4477 199.571C52.3206 200.599 52.037 203.506 53.9159 204.924L182.496 301.704" stroke="black" stroke-width="1.2" stroke-miterlimit="10" stroke-linecap="round" stroke-linejoin="round"/>
<path d="M171.08 177.839L78.7314 223.642" stroke="black" stroke-width="1.2" stroke-miterlimit="10" stroke-linecap="round" stroke-linejoin="round"/>
<path d="M206.318 208.292L122.088 256.292" stroke="black" stroke-width="1.2" stroke-miterlimit="10" stroke-linecap="round" stroke-linejoin="round"/>
<path d="M190.826 215.985L133.361 196.558" stroke="black" stroke-width="1.2" stroke-miterlimit="10" stroke-linecap="round" stroke-linejoin="round"/>
<path d="M217.734 194.856L205.291 192.162L204.936 190.035L222.91 190.354L223.193 192.162L217.734 194.856Z" fill="black" stroke="black" stroke-width="1.2" stroke-miterlimit="10" stroke-linecap="round" stroke-linejoin="round"/>
<path d="M217.911 192.729L204.937 190.034L209.51 187.73L222.91 190.353L217.911 192.729Z" fill="#B880FF" stroke="black" stroke-width="1.2" stroke-miterlimit="10" stroke-linecap="round" stroke-linejoin="round"/>
<path d="M192.493 207.937L181.326 204.605L180.971 202.478L197.598 203.47L197.917 205.278L192.493 207.937Z" fill="black" stroke="black" stroke-width="1.2" stroke-miterlimit="10" stroke-linecap="round" stroke-linejoin="round"/>
<path d="M192.599 205.845L180.971 202.478L185.58 200.173L197.598 203.47L192.599 205.845Z" fill="#B880FF" stroke="black" stroke-width="1.2" stroke-miterlimit="10" stroke-linecap="round" stroke-linejoin="round"/>
<path d="M184.339 195.671L172.038 192.586L171.719 190.778L188.274 191.771L188.558 193.579L184.339 195.671Z" fill="black" stroke="black" stroke-width="1.2" stroke-miterlimit="10" stroke-linecap="round" stroke-linejoin="round"/>
<path d="M184.02 193.792L171.719 190.778L175.618 188.829L188.274 191.771L184.02 193.792Z" fill="#B880FF" stroke="black" stroke-width="1.2" stroke-miterlimit="10" stroke-linecap="round" stroke-linejoin="round"/>
<path d="M181.29 186.95L168.315 184.15L168.031 182.342L185.225 183.015L185.509 184.859L181.29 186.95Z" fill="black" stroke="black" stroke-width="1.2" stroke-miterlimit="10" stroke-linecap="round" stroke-linejoin="round"/>
<path d="M180.972 185.035L168.032 182.341L171.897 180.427L185.226 183.015L180.972 185.035Z" fill="#B880FF" stroke="black" stroke-width="1.2" stroke-miterlimit="10" stroke-linecap="round" stroke-linejoin="round"/>
<path d="M100.888 202.477L104.362 205.845C109.68 204.463 114.926 202.655 119.783 200.457L115.529 197.195C119.322 195.316 122.265 193.331 124.285 191.346L134.85 190.46C137.048 188.014 138.111 185.674 138.04 183.618L131.588 176.988C130.277 176.528 128.752 176.138 127.051 175.854C125.384 175.57 123.612 175.393 121.733 175.322L114.891 178.796C111.629 178.69 108.013 178.938 104.327 179.505L104.256 176.74C100.179 177.485 96.0312 178.548 92.0607 179.789L91.8125 182.519C88.5865 183.582 85.4314 184.894 82.5599 186.347L77.3841 185.993C74.2644 187.695 71.6411 189.467 69.5495 191.204L74.4771 191.736C72.8464 193.26 63.771 191.807 63.2393 193.26C63.2393 193.26 63.771 199.712 63.771 200.35C63.771 201.379 64.0546 202.371 64.6573 203.293L72.1019 201.095C72.6337 201.627 73.3073 202.123 74.1935 202.584C75.0798 203.045 76.1079 203.399 77.2423 203.718L72.5982 207.795C75.7888 208.575 79.6529 208.894 84.0134 208.823L88.7992 204.392C92.6279 204.144 96.7402 203.506 100.888 202.477Z" fill="#B880FF" stroke="black" stroke-width="1.2" stroke-miterlimit="10" stroke-linecap="round" stroke-linejoin="round"/>
<path d="M123.009 183.05L124.321 191.346C123.257 192.303 122.017 193.331 120.528 194.324C118.755 195.529 117.054 196.486 115.529 197.195C115.104 194.43 114.643 191.665 114.218 188.9C115.671 188.191 117.337 187.304 119.074 186.135C120.634 185.071 121.91 184.043 123.009 183.05Z" fill="black" stroke="black" stroke-width="1.2" stroke-miterlimit="10" stroke-linecap="round" stroke-linejoin="round"/>
<path d="M120.457 166.991L130.277 168.693L131.588 176.988L121.768 175.287L120.457 166.991Z" fill="black" stroke="black" stroke-width="1.2" stroke-miterlimit="10" stroke-linecap="round" stroke-linejoin="round"/>
<path d="M70.8259 192.764L72.1376 201.06C72.6339 201.52 73.3429 202.052 74.2292 202.549C75.3991 203.187 76.498 203.506 77.278 203.683C76.8525 200.918 76.3917 198.153 75.9663 195.388C75.1864 195.21 74.0874 194.927 72.9175 194.253C72.0313 193.757 71.3222 193.225 70.8259 192.764Z" fill="black" stroke="black" stroke-width="1.2" stroke-miterlimit="10" stroke-linecap="round" stroke-linejoin="round"/>
<path d="M62.5305 192.516L63.3813 194.962L63.9131 198.436L64.693 203.258L63.8776 201.166L62.5305 192.516Z" fill="black" stroke="black" stroke-width="1.2" stroke-miterlimit="10" stroke-linecap="round" stroke-linejoin="round"/>
<path d="M133.573 182.164L134.885 190.46C135.559 189.822 136.587 188.652 137.331 186.915C137.863 185.603 138.04 184.433 138.076 183.618C137.65 180.853 137.189 178.087 136.764 175.322C136.729 176.102 136.551 177.237 136.09 178.477C135.346 180.285 134.247 181.491 133.573 182.164Z" fill="black" stroke="black" stroke-width="1.2" stroke-miterlimit="10" stroke-linecap="round" stroke-linejoin="round"/>
<path d="M71.2869 199.5L72.5985 207.795C74.1938 208.149 75.9664 208.433 77.9516 208.646C80.185 208.859 82.2411 208.894 84.0137 208.823C83.5883 206.058 83.1274 203.293 82.702 200.528C80.7877 200.598 78.5897 200.563 76.2145 200.315C74.4065 200.102 72.7758 199.819 71.2869 199.5Z" fill="#B880FF" stroke="black" stroke-width="1.2" stroke-miterlimit="10" stroke-linecap="round" stroke-linejoin="round"/>
<path d="M103.051 197.549L104.362 205.845C106.773 205.242 109.361 204.462 112.055 203.505C114.856 202.513 117.444 201.484 119.783 200.421C119.358 197.656 118.897 194.891 118.472 192.125C116.132 193.189 113.544 194.217 110.708 195.21C108.049 196.167 105.461 196.947 103.051 197.549Z" fill="#B880FF" stroke="black" stroke-width="1.2" stroke-miterlimit="10" stroke-linecap="round" stroke-linejoin="round"/>
<path d="M87.5232 196.096L88.8349 204.392L84.0136 208.823L82.7019 200.528L87.5232 196.096Z" fill="black" stroke="black" stroke-width="1.2" stroke-miterlimit="10" stroke-linecap="round" stroke-linejoin="round"/>
<path d="M99.5764 194.182L100.888 202.478L104.362 205.845L103.051 197.55L99.5764 194.182Z" fill="black" stroke="black" stroke-width="1.2" stroke-miterlimit="10" stroke-linecap="round" stroke-linejoin="round"/>
<path d="M140.877 202.3L90.3594 227.364" stroke="black" stroke-width="1.2" stroke-miterlimit="10" stroke-linecap="round" stroke-linejoin="round"/>
<path d="M154.348 207.476L100.037 234.419" stroke="black" stroke-width="1.2" stroke-miterlimit="10" stroke-linecap="round" stroke-linejoin="round"/>
<path d="M169.946 211.447L111.771 242.395" stroke="black" stroke-width="1.2" stroke-miterlimit="10" stroke-linecap="round" stroke-linejoin="round"/>
<path d="M106.843 222.472L105.567 218.466L94.8611 220.026L93.6204 220.451L93.6558 224.705C93.6204 225.308 94.0458 225.875 95.0029 226.265C97.3072 227.222 101.774 226.868 104.752 225.379C106.666 224.422 107.34 223.323 106.843 222.472Z" fill="black" stroke="black" stroke-width="1.2" stroke-miterlimit="10" stroke-linecap="round" stroke-linejoin="round"/>
<path d="M103.618 220.841C100.924 222.153 96.9177 222.507 94.8261 221.656C92.9118 220.877 93.3372 219.388 95.606 218.253C97.8749 217.119 101.455 216.658 103.724 217.225C106.241 217.863 106.277 219.529 103.618 220.841Z" fill="white" stroke="black" stroke-width="1.2" stroke-miterlimit="10" stroke-linecap="round" stroke-linejoin="round"/>
<path d="M138.289 230.483L136.977 226.335L125.916 227.931L124.64 228.356L124.676 232.752C124.64 233.39 125.066 233.957 126.058 234.347C128.469 235.34 133.042 234.95 136.126 233.426C138.076 232.468 138.785 231.369 138.289 230.483Z" fill="black" stroke="black" stroke-width="1.2" stroke-miterlimit="10" stroke-linecap="round" stroke-linejoin="round"/>
<path d="M134.956 228.817C132.191 230.2 128.043 230.519 125.881 229.633C123.895 228.817 124.321 227.293 126.696 226.123C129.036 224.953 132.723 224.457 135.098 225.095C137.686 225.733 137.721 227.435 134.956 228.817Z" fill="white" stroke="black" stroke-width="1.2" stroke-miterlimit="10" stroke-linecap="round" stroke-linejoin="round"/>
<path d="M146.229 213.786L144.953 209.78L134.283 211.34L133.042 211.766L133.077 215.984C133.042 216.587 133.467 217.154 134.424 217.544C136.729 218.501 141.195 218.111 144.138 216.658C146.052 215.701 146.726 214.602 146.229 213.786Z" fill="black" stroke="black" stroke-width="1.2" stroke-miterlimit="10" stroke-linecap="round" stroke-linejoin="round"/>
<path d="M143.003 212.155C140.345 213.467 136.339 213.822 134.247 212.971C132.333 212.191 132.758 210.702 135.027 209.567C137.296 208.433 140.841 207.972 143.145 208.575C145.627 209.178 145.662 210.844 143.003 212.155Z" fill="white" stroke="black" stroke-width="1.2" stroke-miterlimit="10" stroke-linecap="round" stroke-linejoin="round"/>
<path d="M230.07 261.148L240.705 269.408C252.404 266.997 263.713 263.559 273.71 259.127L260.841 251.186C268.357 247.464 273.745 243.423 277.042 239.346L301.609 238.53C304.694 233.426 305.119 228.533 303.098 224.102L276.227 212.084C272.823 211.056 275.199 208.007 271.086 207.334C267.116 206.66 262.968 206.199 258.749 205.88L245.881 212.261C238.543 211.801 230.743 212.049 223.051 212.864L221.243 207.44C212.876 208.646 204.616 210.347 196.817 212.51L197.703 217.827C191.322 219.706 185.26 221.975 179.836 224.669L168.669 223.464C162.82 226.584 158.069 229.881 154.454 233.213L165.124 234.808C162.288 237.786 160.551 240.835 160.055 243.742L145.768 247.535C145.343 251.151 146.335 254.731 148.959 257.993L164.238 254.164C165.62 255.405 167.358 256.575 169.485 257.674C171.647 258.773 174.093 259.73 176.823 260.545L168.421 269.124C175.937 271.358 184.941 272.705 194.867 273.13L203.375 263.736C211.884 263.807 221.03 262.885 230.07 261.148Z" fill="#B880FF" stroke="black" stroke-width="1.2" stroke-miterlimit="10" stroke-linecap="round" stroke-linejoin="round"/>
<path d="M274.419 223.606C272.646 225.556 270.342 227.825 267.364 230.023C264.032 232.504 260.841 234.241 258.218 235.446C259.104 240.693 259.955 245.94 260.841 251.187C263.748 249.875 267.329 247.925 271.051 245.018C273.497 243.104 275.447 241.154 277.042 239.382C276.156 234.099 275.305 228.853 274.419 223.606Z" fill="black" stroke="black" stroke-width="1.2" stroke-miterlimit="10" stroke-linecap="round" stroke-linejoin="round"/>
<path d="M162.501 219.175L151.83 217.58L154.453 233.32L165.124 234.915L162.501 219.175Z" fill="black" stroke="black" stroke-width="1.2" stroke-miterlimit="10" stroke-linecap="round" stroke-linejoin="round"/>
<path d="M279.7 194.217L282.324 209.957L268.427 216.87L265.804 201.13L279.7 194.217Z" fill="black" stroke="black" stroke-width="1.2" stroke-miterlimit="10" stroke-linecap="round" stroke-linejoin="round"/>
<path d="M146.335 242.394L148.959 258.135L164.202 254.27L161.579 238.53L146.335 242.394Z" fill="#B880FF" stroke="black" stroke-width="1.2" stroke-miterlimit="10" stroke-linecap="round" stroke-linejoin="round"/>
<path d="M146.335 253.455C147.044 255.689 148.179 257.249 148.923 258.135C148.037 252.888 147.186 247.642 146.3 242.395C145.449 241.367 143.96 239.346 143.322 236.404C142.967 234.596 145.555 250.974 146.335 253.455Z" fill="black" stroke="black" stroke-width="1.2" stroke-miterlimit="10" stroke-linecap="round" stroke-linejoin="round"/>
<path d="M298.986 222.826L301.609 238.566C302.425 237.396 304.197 234.489 304.303 230.413C304.374 227.612 301.716 213.006 301.716 213.006C301.716 213.006 302.212 217.65 298.986 222.826Z" fill="black" stroke="black" stroke-width="1.2" stroke-miterlimit="10" stroke-linecap="round" stroke-linejoin="round"/>
<path d="M230.07 261.148L227.447 245.408L238.082 253.668L240.705 269.408L230.07 261.148Z" fill="black" stroke="black" stroke-width="1.2" stroke-miterlimit="10" stroke-linecap="round" stroke-linejoin="round"/>
<path d="M271.086 243.387L273.71 259.127C269.03 261.148 263.784 263.169 258.005 264.977C251.801 266.926 245.987 268.344 240.705 269.408C239.819 264.161 238.968 258.915 238.082 253.668C243.648 252.569 249.816 251.045 256.374 248.918C261.763 247.216 266.655 245.302 271.086 243.387Z" fill="#B880FF" stroke="black" stroke-width="1.2" stroke-miterlimit="10" stroke-linecap="round" stroke-linejoin="round"/>
<path d="M161.579 238.53L164.202 254.27C165.585 255.405 167.322 256.61 169.449 257.78C172.179 259.269 174.731 260.12 176.787 260.651C175.901 255.405 175.05 250.158 174.164 244.911C172.427 244.451 170.335 243.742 168.102 242.678C165.408 241.331 163.21 239.842 161.579 238.53Z" fill="black" stroke="black" stroke-width="1.2" stroke-miterlimit="10" stroke-linecap="round" stroke-linejoin="round"/>
<path d="M165.762 253.491L168.386 269.231C172.037 270.259 176.149 271.181 180.651 271.89C185.827 272.705 190.578 273.095 194.796 273.237C193.91 267.991 193.059 262.744 192.173 257.497C187.742 257.355 182.743 256.93 177.319 256.044C173.136 255.335 169.236 254.448 165.762 253.491Z" fill="#B880FF" stroke="black" stroke-width="1.2" stroke-miterlimit="10" stroke-linecap="round" stroke-linejoin="round"/>
<path d="M227.447 245.408L238.082 253.668C249.781 251.257 261.09 247.818 271.087 243.387L258.253 235.446C265.769 231.724 271.158 227.682 274.454 223.606L299.022 222.79C302.106 217.685 302.531 212.793 300.511 208.362L277.007 209.78C275.199 206.341 271.441 203.399 265.84 201.094L279.737 194.182C276.333 193.153 272.576 192.267 268.499 191.594C264.528 190.92 260.38 190.459 256.162 190.14L243.293 196.521C235.955 196.06 228.156 196.309 220.463 197.124L218.655 191.7C210.289 192.905 202.029 194.607 194.229 196.769L195.116 202.087C188.735 203.966 182.673 206.235 177.249 208.929L166.082 207.724C160.232 210.843 155.482 214.14 151.866 217.473L162.537 219.068C159.701 222.046 157.963 225.095 157.467 228.001L143.145 231.901C142.72 235.517 143.712 239.098 146.336 242.359L161.615 238.53C162.997 239.771 164.735 240.941 166.862 242.04C169.024 243.139 171.47 244.096 174.2 244.911L165.763 253.491C173.278 255.724 182.283 257.071 192.209 257.496L200.717 248.102C209.296 248.067 218.407 247.145 227.447 245.408Z" fill="white" stroke="black" stroke-width="1.2" stroke-miterlimit="10" stroke-linecap="round" stroke-linejoin="round"/>
<path d="M231.205 226.619C218.797 232.752 200.256 234.277 190.578 230.341C181.715 226.726 183.63 219.777 194.194 214.53C204.758 209.284 221.278 207.121 231.878 209.851C243.435 212.864 243.577 220.486 231.205 226.619Z" fill="#B880FF"/>
<path d="M251.943 213.857C253.219 218.501 249.107 224.067 239.216 228.959C227.234 234.915 211.103 237.716 197.88 237.042" stroke="black" stroke-width="1.2" stroke-miterlimit="10" stroke-linecap="round" stroke-linejoin="round"/>
<path d="M256.374 223.854C253.68 226.406 249.887 228.923 245.066 231.334C236.947 235.34 227.376 238.247 217.627 239.984" stroke="black" stroke-width="1.2" stroke-miterlimit="10" stroke-linecap="round" stroke-linejoin="round"/>
<path d="M216.386 221.798C213.904 223.003 210.217 223.322 208.303 222.542C206.531 221.833 206.921 220.451 209.012 219.387C211.104 218.324 214.401 217.898 216.492 218.465C218.832 219.068 218.867 220.557 216.386 221.798Z" fill="#B880FF" stroke="black" stroke-width="1.2" stroke-miterlimit="10" stroke-linecap="round" stroke-linejoin="round"/>
<path d="M200.716 248.102L192.208 257.496L194.832 273.272L203.304 263.878L200.716 248.102Z" fill="black" stroke="black" stroke-width="1.2" stroke-miterlimit="10" stroke-linecap="round" stroke-linejoin="round"/>
<path d="M218.016 219.246L212.309 210.206C211.742 209.319 210.395 209.497 210.111 210.525L207.275 220.912C207.239 220.983 207.239 221.054 207.204 221.124L207.169 221.195C207.098 221.727 207.452 222.188 208.267 222.542C210.182 223.322 213.869 223.039 216.35 221.798C218.087 220.947 218.619 219.955 218.016 219.246Z" fill="#B880FF" stroke="black" stroke-width="1.2" stroke-miterlimit="10" stroke-linecap="round" stroke-linejoin="round"/>
<path d="M210.962 209.674C210.572 209.78 210.217 210.064 210.111 210.525L207.275 220.912C207.239 220.983 207.239 221.053 207.204 221.124L207.169 221.195C207.098 221.727 207.452 222.188 208.267 222.542C209.437 223.039 211.281 223.11 213.089 222.791L210.962 209.674Z" fill="black"/>
<path d="M99.5767 194.182L103.051 197.55C108.368 196.168 113.615 194.36 118.472 192.162L114.218 188.9C118.011 187.021 120.953 185.036 122.974 183.051L133.538 182.164C135.736 179.718 136.8 177.379 136.729 175.323L126.377 176.457C126.165 174.826 125.03 173.444 122.939 172.416L130.277 168.729C128.965 168.268 127.441 167.878 125.739 167.594C124.073 167.311 122.301 167.133 120.422 167.062L113.58 170.537C110.318 170.43 106.702 170.678 103.015 171.246L102.945 168.481C98.8677 169.225 94.72 170.289 90.7495 171.529L90.5013 174.259C87.2753 175.323 84.1202 176.634 81.2487 178.088L76.0729 177.733C72.9532 179.435 70.3299 181.207 68.2383 182.944L73.1659 183.476C71.5352 185.001 70.4008 186.525 69.869 187.943L62.7789 190.141C62.2471 191.878 62.4244 193.544 63.3815 194.998L70.8262 192.8C71.3579 193.331 72.0315 193.828 72.9178 194.289C73.804 194.749 74.8321 195.104 75.9665 195.423L71.3225 199.571C74.5131 200.351 78.3772 200.67 82.7376 200.599L87.5235 196.168C91.3167 195.848 95.429 195.175 99.5767 194.182Z" fill="white" stroke="black" stroke-width="1.2" stroke-miterlimit="10" stroke-linecap="round" stroke-linejoin="round"/>
<path d="M104.079 185.32C97.8749 188.51 89.5085 189.68 85.6444 188.049C82.0284 186.525 83.6946 183.086 89.1185 180.286C94.5779 177.45 102.377 175.996 106.738 177.166C111.382 178.407 110.318 182.129 104.079 185.32Z" fill="#B880FF"/>
<path d="M99.1155 181.881L96.3504 177.13C96.1022 176.705 95.4641 176.811 95.3578 177.308L94.0815 183.405C94.0815 183.618 94.1879 183.76 94.4715 183.901C95.2514 184.22 96.9176 184.008 98.1584 183.334C99.151 182.802 99.47 182.235 99.1155 181.881Z" fill="#B880FF" stroke="black" stroke-width="1.2" stroke-miterlimit="10" stroke-linecap="round" stroke-linejoin="round"/>
<path d="M95.7832 176.988C95.7123 177.059 95.3578 177.166 95.3578 177.307L94.0815 183.405C94.0815 183.618 94.1879 183.759 94.4715 183.901C94.9678 184.114 95.8186 184.078 96.6694 183.901L95.7832 176.988Z" fill="black"/>
<path d="M159.063 197.94L147.541 194.501L147.222 192.658L162.998 194.005L163.317 195.848L159.063 197.94Z" fill="black" stroke="black" stroke-width="1.2" stroke-miterlimit="10" stroke-linecap="round" stroke-linejoin="round"/>
<path d="M158.779 196.025L147.222 192.657L151.051 190.743L162.998 194.005L158.779 196.025Z" fill="#B880FF" stroke="black" stroke-width="1.2" stroke-miterlimit="10" stroke-linecap="round" stroke-linejoin="round"/>
<line x1="68.3865" y1="183.43" x2="68.8072" y2="187.637" stroke="black" stroke-width="1.2" stroke-linecap="round" stroke-linejoin="round"/>
</g>
<path d="M48.2438 180.285L33.6381 205.597C32.7873 207.086 32.7873 208.929 33.6381 210.383L63.5939 262.247C64.4448 263.736 66.04 264.658 67.7417 264.658H96.9885C120.599 283.943 150.767 295.5 183.63 295.5C216.493 295.5 246.661 283.908 270.271 264.658H299.483C301.185 264.658 302.78 263.736 303.631 262.247L333.586 210.383C334.437 208.894 334.437 207.05 333.586 205.597L318.981 180.321" stroke="white" stroke-width="2" stroke-miterlimit="10" stroke-linecap="round" stroke-linejoin="round"/>
<path d="M282.964 200.634C284.559 200.173 285.091 198.188 284.027 196.947C280.908 193.225 277.611 188.935 274.349 183.972C273.676 182.908 273.002 181.88 272.364 180.852C272.683 180.356 272.931 179.86 273.144 179.363C273.427 178.654 274.456 174.329 271.939 171.032C270.414 169.012 267.862 167.806 264.919 167.558C251.803 150.046 273.002 116.119 277.043 90.3821C277.221 82.1575 273.746 78.4707 272.825 77.7971C257.51 66.0984 240.565 80.2077 240.777 85.9862C240.777 85.9862 240.104 149.053 214.118 173.514C212.913 174.648 213.48 176.705 215.04 177.13C220.145 178.513 231.525 172.131 234.042 168.055C237.41 173.939 243.365 176.492 249.179 177.414L249.534 178.052C257.546 197.089 271.229 213.467 279.56 211.056C281.156 210.595 281.687 208.61 280.624 207.369C280.411 207.121 280.234 206.873 280.021 206.66C280.659 206.66 281.262 206.589 281.865 206.412C283.46 205.951 283.992 203.966 282.928 202.725C282.467 202.194 282.006 201.626 281.546 201.024L281.581 200.953C282.007 200.846 282.503 200.776 282.964 200.634Z" fill="#B880FF"/>
<path d="M264.954 176.811C259.814 176.457 243.294 174.791 234.112 168.02C237.48 173.904 243.435 176.457 249.249 177.379L249.568 177.981C254.567 177.91 264.564 177.698 264.954 176.811Z" fill="white"/>
<path d="M240.777 85.951C240.777 85.951 240.103 149.018 214.118 173.479C212.912 174.613 213.48 176.669 215.039 177.095C243.542 151.074 246.591 95.4164 246.697 77.7974C243.01 80.4916 240.706 83.824 240.777 85.951Z" fill="white"/>
<path d="M280.907 209.887C270.697 209.709 255.985 186.666 252.511 177.768L249.178 177.378L249.533 178.017C257.545 197.054 271.229 213.432 279.56 211.021C280.198 210.808 280.659 210.383 280.907 209.887Z" fill="white"/>
<path d="M249.533 178.016C257.545 197.053 271.229 213.431 279.56 211.021C281.155 210.56 281.687 208.575 280.623 207.334C277.504 203.612 274.207 199.322 270.945 194.359C267.117 188.545 264.139 183.015 261.799 178.052" stroke="black" stroke-width="1.2" stroke-miterlimit="10" stroke-linecap="round" stroke-linejoin="round"/>
<path d="M280.02 206.59C280.658 206.59 281.261 206.519 281.864 206.342C283.459 205.881 283.991 203.896 282.927 202.655C279.808 198.933 276.511 194.643 273.249 189.68C269.421 183.866 266.443 178.336 264.103 173.373" stroke="black" stroke-width="1.2" stroke-miterlimit="10" stroke-linecap="round" stroke-linejoin="round"/>
<path d="M281.509 200.882C282.006 200.846 282.502 200.776 282.963 200.634C284.558 200.173 285.09 198.188 284.026 196.947C280.907 193.225 277.61 188.935 274.348 183.972C272.54 181.207 270.91 178.513 269.456 175.889" stroke="black" stroke-width="1.2" stroke-miterlimit="10" stroke-linecap="round" stroke-linejoin="round"/>
<path d="M257.935 168.835C263.501 166.353 269.279 167.488 271.938 170.997C274.455 174.33 273.427 178.619 273.143 179.328C270.981 184.681 261.834 190.992 259.743 189.184C258.821 188.368 258.148 184.185 263.075 177.201" fill="#B880FF"/>
<path d="M257.935 168.835C263.501 166.353 269.279 167.488 271.938 170.997C274.455 174.33 273.427 178.619 273.143 179.328C270.981 184.681 261.834 190.992 259.743 189.184C258.821 188.368 258.148 184.185 263.075 177.201" stroke="black" stroke-width="1.2" stroke-miterlimit="10" stroke-linecap="round" stroke-linejoin="round"/>
<path d="M240.741 93.0054C239.287 105.839 237.196 148.344 214.118 173.478C213.019 174.684 213.479 176.669 215.039 177.094C220.144 178.477 231.524 172.096 234.041 168.019C241.734 181.455 262.862 177.378 264.883 176.811" stroke="black" stroke-width="1.2" stroke-miterlimit="10" stroke-linecap="round" stroke-linejoin="round"/>
<path d="M276.617 93.7144C272.257 117.927 251.412 147.883 264.954 167.523" stroke="black" stroke-width="1.2" stroke-miterlimit="10" stroke-linecap="round" stroke-linejoin="round"/>
<path d="M276.617 93.7143C282.537 91.9063 286.437 77.3361 281.403 69.2179C272.789 55.3921 242.301 61.1706 236.7 75.3509C235.282 78.9668 233.935 90.0983 240.741 93.4662L241.025 86.9432C241.025 84.3553 241.663 82.1574 243.435 80.2785C251.234 72.0539 265.45 71.6285 271.583 76.6271C276.653 80.7394 277.007 87.6877 277.043 90.0629L276.617 93.7143Z" stroke="#B880FF" stroke-width="1.2" stroke-miterlimit="10" stroke-linecap="round" stroke-linejoin="round"/>
<path d="M163.459 167.629C163.991 168.835 164.451 171.99 166.188 173.372C170.088 176.421 176.079 177.201 176.788 174.4C176.965 173.727 176.256 172.522 172.428 169.969C170.832 168.906 169.663 167.346 169.131 165.502C168.812 164.332 168.599 163.198 168.493 162.17" fill="#B880FF"/>
<path d="M163.459 167.629C163.991 168.835 164.451 171.99 166.188 173.372C170.088 176.421 176.079 177.201 176.788 174.4C176.965 173.727 176.256 172.522 172.428 169.969C170.832 168.906 169.663 167.346 169.131 165.502C168.812 164.332 168.599 163.198 168.493 162.17" stroke="black" stroke-width="1.2" stroke-miterlimit="10" stroke-linecap="round" stroke-linejoin="round"/>
<path d="M158.035 171.21C158.566 172.628 158.885 176.279 160.835 177.945C165.16 181.668 172.144 182.908 173.137 179.718C173.349 179.009 172.747 177.697 169.131 174.967C166.472 172.911 164.735 169.863 164.38 166.53C164.345 166.069 164.309 165.609 164.274 165.183" fill="#B880FF"/>
<path d="M158.035 171.21C158.566 172.628 158.885 176.279 160.835 177.945C165.16 181.668 172.144 182.908 173.137 179.718C173.349 179.009 172.747 177.697 169.131 174.967C166.472 172.911 164.735 169.863 164.38 166.53C164.345 166.069 164.309 165.609 164.274 165.183" stroke="black" stroke-width="1.2" stroke-miterlimit="10" stroke-linecap="round" stroke-linejoin="round"/>
<path d="M153.142 172.486C153.355 173.904 152.93 177.343 154.383 179.257C157.574 183.547 163.671 186.064 165.196 183.334C165.55 182.696 165.196 181.242 162.005 177.591C160.481 175.818 159.63 173.549 159.701 171.21C159.736 170.111 159.807 169.047 159.984 168.125" fill="#B880FF"/>
<path d="M153.142 172.486C153.355 173.904 152.93 177.343 154.383 179.257C157.574 183.547 163.671 186.064 165.196 183.334C165.55 182.696 165.196 181.242 162.005 177.591C160.481 175.818 159.63 173.549 159.701 171.21C159.736 170.111 159.807 169.047 159.984 168.125" stroke="black" stroke-width="1.2" stroke-miterlimit="10" stroke-linecap="round" stroke-linejoin="round"/>
<path d="M184.942 170.217C187.352 165.963 188.274 160.255 187.14 158.058C184.587 153.13 178.632 151.393 165.692 157.029C162.076 158.447 151.264 163.162 146.513 176.35C146.194 177.236 146.407 178.406 147.222 178.832C152.504 181.526 158.035 168.019 165.869 165.467C169.308 164.368 173.456 165.644 174.378 169.118C174.555 171.848 170.478 182.306 176.753 182.412C178.029 182.448 184.056 171.812 184.942 170.217Z" fill="#B880FF" stroke="black" stroke-width="1.2" stroke-miterlimit="10" stroke-linecap="round" stroke-linejoin="round"/>
</svg>
